<?xml version="1.0" encoding="utf-8" standalone="no"?>
<!DOCTYPE svg PUBLIC "-//W3C//DTD SVG 1.1//EN"
  "http://www.w3.org/Graphics/SVG/1.1/DTD/svg11.dtd">
<svg xmlns:xlink="http://www.w3.org/1999/xlink" width="728.39952pt" height="440.39952pt" viewBox="0 0 728.39952 440.39952" xmlns="http://www.w3.org/2000/svg" version="1.1">
 <metadata>
  <rdf:RDF xmlns:dc="http://purl.org/dc/elements/1.1/" xmlns:cc="http://creativecommons.org/ns#" xmlns:rdf="http://www.w3.org/1999/02/22-rdf-syntax-ns#">
   <cc:Work>
    <dc:type rdf:resource="http://purl.org/dc/dcmitype/StillImage"/>
    <dc:date>2026-03-25T20:38:53.899427</dc:date>
    <dc:format>image/svg+xml</dc:format>
    <dc:creator>
     <cc:Agent>
      <dc:title>Matplotlib v3.10.8, https://matplotlib.org/</dc:title>
     </cc:Agent>
    </dc:creator>
   </cc:Work>
  </rdf:RDF>
 </metadata>
 <defs>
  <style type="text/css">*{stroke-linejoin: round; stroke-linecap: butt}</style>
 </defs>
 <g id="figure_1">
  <g id="patch_1">
   <path d="M 0 440.39952 
L 728.39952 440.39952 
L 728.39952 0 
L 0 0 
z
" style="fill: #ffffff"/>
  </g>
  <g id="axes_1">
   <g id="patch_2">
    <path d="M 58.01375 398.97202 
L 721.19952 398.97202 
L 721.19952 41.86798 
L 58.01375 41.86798 
z
" style="fill: #ffffff"/>
   </g>
   <g id="patch_3">
    <path d="M 88.158558 398.97202 
L 203.865901 398.97202 
L 203.865901 41.86798 
L 88.158558 41.86798 
z
" clip-path="url(#p3718d3e616)" style="fill: #d8f0f0; opacity: 0.45; stroke: #d8f0f0; stroke-linejoin: miter"/>
   </g>
   <g id="patch_4">
    <path d="M 209.955761 398.97202 
L 386.561705 398.97202 
L 386.561705 41.86798 
L 209.955761 41.86798 
z
" clip-path="url(#p3718d3e616)" style="fill: #dce8f8; opacity: 0.45; stroke: #dce8f8; stroke-linejoin: miter"/>
   </g>
   <g id="patch_5">
    <path d="M 392.651565 398.97202 
L 691.054712 398.97202 
L 691.054712 41.86798 
L 392.651565 41.86798 
z
" clip-path="url(#p3718d3e616)" style="fill: #eaf2fb; opacity: 0.45; stroke: #eaf2fb; stroke-linejoin: miter"/>
   </g>
   <g id="matplotlib.axis_1">
    <g id="xtick_1">
     <g id="line2d_1">
      <path d="M 82.068698 398.97202 
L 82.068698 41.86798 
" clip-path="url(#p3718d3e616)" style="fill: none; stroke: #d9e6f2; stroke-opacity: 0.35; stroke-width: 0.8; stroke-linecap: square"/>
     </g>
     <g id="line2d_2">
      <defs>
       <path id="m7e2189e945" d="M 0 0 
L 0 3.5 
" style="stroke: #000000; stroke-width: 0.8"/>
      </defs>
      <g>
       <use xlink:href="#m7e2189e945" x="82.068698" y="398.97202" style="stroke: #000000; stroke-width: 0.8"/>
      </g>
     </g>
     <g id="text_1">
      <!-- 0 -->
      <g transform="translate(78.251198 415.090145) scale(0.12 -0.12)">
       <defs>
        <path id="DejaVuSans-30" d="M 2034 4250 
Q 1547 4250 1301 3770 
Q 1056 3291 1056 2328 
Q 1056 1369 1301 889 
Q 1547 409 2034 409 
Q 2525 409 2770 889 
Q 3016 1369 3016 2328 
Q 3016 3291 2770 3770 
Q 2525 4250 2034 4250 
z
M 2034 4750 
Q 2819 4750 3233 4129 
Q 3647 3509 3647 2328 
Q 3647 1150 3233 529 
Q 2819 -91 2034 -91 
Q 1250 -91 836 529 
Q 422 1150 422 2328 
Q 422 3509 836 4129 
Q 1250 4750 2034 4750 
z
" transform="scale(0.015625)"/>
       </defs>
       <use xlink:href="#DejaVuSans-30"/>
      </g>
     </g>
    </g>
    <g id="xtick_2">
     <g id="line2d_3">
      <path d="M 203.865901 398.97202 
L 203.865901 41.86798 
" clip-path="url(#p3718d3e616)" style="fill: none; stroke: #d9e6f2; stroke-opacity: 0.35; stroke-width: 0.8; stroke-linecap: square"/>
     </g>
     <g id="line2d_4">
      <g>
       <use xlink:href="#m7e2189e945" x="203.865901" y="398.97202" style="stroke: #000000; stroke-width: 0.8"/>
      </g>
     </g>
     <g id="text_2">
      <!-- 20 -->
      <g transform="translate(196.230901 415.090145) scale(0.12 -0.12)">
       <defs>
        <path id="DejaVuSans-32" d="M 1228 531 
L 3431 531 
L 3431 0 
L 469 0 
L 469 531 
Q 828 903 1448 1529 
Q 2069 2156 2228 2338 
Q 2531 2678 2651 2914 
Q 2772 3150 2772 3378 
Q 2772 3750 2511 3984 
Q 2250 4219 1831 4219 
Q 1534 4219 1204 4116 
Q 875 4013 500 3803 
L 500 4441 
Q 881 4594 1212 4672 
Q 1544 4750 1819 4750 
Q 2544 4750 2975 4387 
Q 3406 4025 3406 3419 
Q 3406 3131 3298 2873 
Q 3191 2616 2906 2266 
Q 2828 2175 2409 1742 
Q 1991 1309 1228 531 
z
" transform="scale(0.015625)"/>
       </defs>
       <use xlink:href="#DejaVuSans-32"/>
       <use xlink:href="#DejaVuSans-30" transform="translate(63.623047 0)"/>
      </g>
     </g>
    </g>
    <g id="xtick_3">
     <g id="line2d_5">
      <path d="M 325.663103 398.97202 
L 325.663103 41.86798 
" clip-path="url(#p3718d3e616)" style="fill: none; stroke: #d9e6f2; stroke-opacity: 0.35; stroke-width: 0.8; stroke-linecap: square"/>
     </g>
     <g id="line2d_6">
      <g>
       <use xlink:href="#m7e2189e945" x="325.663103" y="398.97202" style="stroke: #000000; stroke-width: 0.8"/>
      </g>
     </g>
     <g id="text_3">
      <!-- 40 -->
      <g transform="translate(318.028103 415.090145) scale(0.12 -0.12)">
       <defs>
        <path id="DejaVuSans-34" d="M 2419 4116 
L 825 1625 
L 2419 1625 
L 2419 4116 
z
M 2253 4666 
L 3047 4666 
L 3047 1625 
L 3713 1625 
L 3713 1100 
L 3047 1100 
L 3047 0 
L 2419 0 
L 2419 1100 
L 313 1100 
L 313 1709 
L 2253 4666 
z
" transform="scale(0.015625)"/>
       </defs>
       <use xlink:href="#DejaVuSans-34"/>
       <use xlink:href="#DejaVuSans-30" transform="translate(63.623047 0)"/>
      </g>
     </g>
    </g>
    <g id="xtick_4">
     <g id="line2d_7">
      <path d="M 447.460306 398.97202 
L 447.460306 41.86798 
" clip-path="url(#p3718d3e616)" style="fill: none; stroke: #d9e6f2; stroke-opacity: 0.35; stroke-width: 0.8; stroke-linecap: square"/>
     </g>
     <g id="line2d_8">
      <g>
       <use xlink:href="#m7e2189e945" x="447.460306" y="398.97202" style="stroke: #000000; stroke-width: 0.8"/>
      </g>
     </g>
     <g id="text_4">
      <!-- 60 -->
      <g transform="translate(439.825306 415.090145) scale(0.12 -0.12)">
       <defs>
        <path id="DejaVuSans-36" d="M 2113 2584 
Q 1688 2584 1439 2293 
Q 1191 2003 1191 1497 
Q 1191 994 1439 701 
Q 1688 409 2113 409 
Q 2538 409 2786 701 
Q 3034 994 3034 1497 
Q 3034 2003 2786 2293 
Q 2538 2584 2113 2584 
z
M 3366 4563 
L 3366 3988 
Q 3128 4100 2886 4159 
Q 2644 4219 2406 4219 
Q 1781 4219 1451 3797 
Q 1122 3375 1075 2522 
Q 1259 2794 1537 2939 
Q 1816 3084 2150 3084 
Q 2853 3084 3261 2657 
Q 3669 2231 3669 1497 
Q 3669 778 3244 343 
Q 2819 -91 2113 -91 
Q 1303 -91 875 529 
Q 447 1150 447 2328 
Q 447 3434 972 4092 
Q 1497 4750 2381 4750 
Q 2619 4750 2861 4703 
Q 3103 4656 3366 4563 
z
" transform="scale(0.015625)"/>
       </defs>
       <use xlink:href="#DejaVuSans-36"/>
       <use xlink:href="#DejaVuSans-30" transform="translate(63.623047 0)"/>
      </g>
     </g>
    </g>
    <g id="xtick_5">
     <g id="line2d_9">
      <path d="M 569.257509 398.97202 
L 569.257509 41.86798 
" clip-path="url(#p3718d3e616)" style="fill: none; stroke: #d9e6f2; stroke-opacity: 0.35; stroke-width: 0.8; stroke-linecap: square"/>
     </g>
     <g id="line2d_10">
      <g>
       <use xlink:href="#m7e2189e945" x="569.257509" y="398.97202" style="stroke: #000000; stroke-width: 0.8"/>
      </g>
     </g>
     <g id="text_5">
      <!-- 80 -->
      <g transform="translate(561.622509 415.090145) scale(0.12 -0.12)">
       <defs>
        <path id="DejaVuSans-38" d="M 2034 2216 
Q 1584 2216 1326 1975 
Q 1069 1734 1069 1313 
Q 1069 891 1326 650 
Q 1584 409 2034 409 
Q 2484 409 2743 651 
Q 3003 894 3003 1313 
Q 3003 1734 2745 1975 
Q 2488 2216 2034 2216 
z
M 1403 2484 
Q 997 2584 770 2862 
Q 544 3141 544 3541 
Q 544 4100 942 4425 
Q 1341 4750 2034 4750 
Q 2731 4750 3128 4425 
Q 3525 4100 3525 3541 
Q 3525 3141 3298 2862 
Q 3072 2584 2669 2484 
Q 3125 2378 3379 2068 
Q 3634 1759 3634 1313 
Q 3634 634 3220 271 
Q 2806 -91 2034 -91 
Q 1263 -91 848 271 
Q 434 634 434 1313 
Q 434 1759 690 2068 
Q 947 2378 1403 2484 
z
M 1172 3481 
Q 1172 3119 1398 2916 
Q 1625 2713 2034 2713 
Q 2441 2713 2670 2916 
Q 2900 3119 2900 3481 
Q 2900 3844 2670 4047 
Q 2441 4250 2034 4250 
Q 1625 4250 1398 4047 
Q 1172 3844 1172 3481 
z
" transform="scale(0.015625)"/>
       </defs>
       <use xlink:href="#DejaVuSans-38"/>
       <use xlink:href="#DejaVuSans-30" transform="translate(63.623047 0)"/>
      </g>
     </g>
    </g>
    <g id="xtick_6">
     <g id="line2d_11">
      <path d="M 691.054712 398.97202 
L 691.054712 41.86798 
" clip-path="url(#p3718d3e616)" style="fill: none; stroke: #d9e6f2; stroke-opacity: 0.35; stroke-width: 0.8; stroke-linecap: square"/>
     </g>
     <g id="line2d_12">
      <g>
       <use xlink:href="#m7e2189e945" x="691.054712" y="398.97202" style="stroke: #000000; stroke-width: 0.8"/>
      </g>
     </g>
     <g id="text_6">
      <!-- 100 -->
      <g transform="translate(679.602212 415.090145) scale(0.12 -0.12)">
       <defs>
        <path id="DejaVuSans-31" d="M 794 531 
L 1825 531 
L 1825 4091 
L 703 3866 
L 703 4441 
L 1819 4666 
L 2450 4666 
L 2450 531 
L 3481 531 
L 3481 0 
L 794 0 
L 794 531 
z
" transform="scale(0.015625)"/>
       </defs>
       <use xlink:href="#DejaVuSans-31"/>
       <use xlink:href="#DejaVuSans-30" transform="translate(63.623047 0)"/>
       <use xlink:href="#DejaVuSans-30" transform="translate(127.246094 0)"/>
      </g>
     </g>
    </g>
    <g id="text_7">
     <!-- Epoch -->
     <g transform="translate(371.23351 430.703895) scale(0.12 -0.12)">
      <defs>
       <path id="DejaVuSans-45" d="M 628 4666 
L 3578 4666 
L 3578 4134 
L 1259 4134 
L 1259 2753 
L 3481 2753 
L 3481 2222 
L 1259 2222 
L 1259 531 
L 3634 531 
L 3634 0 
L 628 0 
L 628 4666 
z
" transform="scale(0.015625)"/>
       <path id="DejaVuSans-70" d="M 1159 525 
L 1159 -1331 
L 581 -1331 
L 581 3500 
L 1159 3500 
L 1159 2969 
Q 1341 3281 1617 3432 
Q 1894 3584 2278 3584 
Q 2916 3584 3314 3078 
Q 3713 2572 3713 1747 
Q 3713 922 3314 415 
Q 2916 -91 2278 -91 
Q 1894 -91 1617 61 
Q 1341 213 1159 525 
z
M 3116 1747 
Q 3116 2381 2855 2742 
Q 2594 3103 2138 3103 
Q 1681 3103 1420 2742 
Q 1159 2381 1159 1747 
Q 1159 1113 1420 752 
Q 1681 391 2138 391 
Q 2594 391 2855 752 
Q 3116 1113 3116 1747 
z
" transform="scale(0.015625)"/>
       <path id="DejaVuSans-6f" d="M 1959 3097 
Q 1497 3097 1228 2736 
Q 959 2375 959 1747 
Q 959 1119 1226 758 
Q 1494 397 1959 397 
Q 2419 397 2687 759 
Q 2956 1122 2956 1747 
Q 2956 2369 2687 2733 
Q 2419 3097 1959 3097 
z
M 1959 3584 
Q 2709 3584 3137 3096 
Q 3566 2609 3566 1747 
Q 3566 888 3137 398 
Q 2709 -91 1959 -91 
Q 1206 -91 779 398 
Q 353 888 353 1747 
Q 353 2609 779 3096 
Q 1206 3584 1959 3584 
z
" transform="scale(0.015625)"/>
       <path id="DejaVuSans-63" d="M 3122 3366 
L 3122 2828 
Q 2878 2963 2633 3030 
Q 2388 3097 2138 3097 
Q 1578 3097 1268 2742 
Q 959 2388 959 1747 
Q 959 1106 1268 751 
Q 1578 397 2138 397 
Q 2388 397 2633 464 
Q 2878 531 3122 666 
L 3122 134 
Q 2881 22 2623 -34 
Q 2366 -91 2075 -91 
Q 1284 -91 818 406 
Q 353 903 353 1747 
Q 353 2603 823 3093 
Q 1294 3584 2113 3584 
Q 2378 3584 2631 3529 
Q 2884 3475 3122 3366 
z
" transform="scale(0.015625)"/>
       <path id="DejaVuSans-68" d="M 3513 2113 
L 3513 0 
L 2938 0 
L 2938 2094 
Q 2938 2591 2744 2837 
Q 2550 3084 2163 3084 
Q 1697 3084 1428 2787 
Q 1159 2491 1159 1978 
L 1159 0 
L 581 0 
L 581 4863 
L 1159 4863 
L 1159 2956 
Q 1366 3272 1645 3428 
Q 1925 3584 2291 3584 
Q 2894 3584 3203 3211 
Q 3513 2838 3513 2113 
z
" transform="scale(0.015625)"/>
      </defs>
      <use xlink:href="#DejaVuSans-45"/>
      <use xlink:href="#DejaVuSans-70" transform="translate(63.183594 0)"/>
      <use xlink:href="#DejaVuSans-6f" transform="translate(126.660156 0)"/>
      <use xlink:href="#DejaVuSans-63" transform="translate(187.841797 0)"/>
      <use xlink:href="#DejaVuSans-68" transform="translate(242.822266 0)"/>
     </g>
    </g>
   </g>
   <g id="matplotlib.axis_2">
    <g id="ytick_1">
     <g id="line2d_13">
      <path d="M 58.01375 340.842104 
L 721.19952 340.842104 
" clip-path="url(#p3718d3e616)" style="fill: none; stroke: #d9e6f2; stroke-opacity: 0.35; stroke-width: 0.8; stroke-linecap: square"/>
     </g>
     <g id="line2d_14">
      <defs>
       <path id="m9846ef1e1b" d="M 0 0 
L -3.5 0 
" style="stroke: #000000; stroke-width: 0.8"/>
      </defs>
      <g>
       <use xlink:href="#m9846ef1e1b" x="58.01375" y="340.842104" style="stroke: #000000; stroke-width: 0.8"/>
      </g>
     </g>
     <g id="text_8">
      <!-- $\mathdefault{10^{-5}}$ -->
      <g transform="translate(22.81375 345.401167) scale(0.12 -0.12)">
       <defs>
        <path id="DejaVuSans-2212" d="M 678 2272 
L 4684 2272 
L 4684 1741 
L 678 1741 
L 678 2272 
z
" transform="scale(0.015625)"/>
        <path id="DejaVuSans-35" d="M 691 4666 
L 3169 4666 
L 3169 4134 
L 1269 4134 
L 1269 2991 
Q 1406 3038 1543 3061 
Q 1681 3084 1819 3084 
Q 2600 3084 3056 2656 
Q 3513 2228 3513 1497 
Q 3513 744 3044 326 
Q 2575 -91 1722 -91 
Q 1428 -91 1123 -41 
Q 819 9 494 109 
L 494 744 
Q 775 591 1075 516 
Q 1375 441 1709 441 
Q 2250 441 2565 725 
Q 2881 1009 2881 1497 
Q 2881 1984 2565 2268 
Q 2250 2553 1709 2553 
Q 1456 2553 1204 2497 
Q 953 2441 691 2322 
L 691 4666 
z
" transform="scale(0.015625)"/>
       </defs>
       <use xlink:href="#DejaVuSans-31" transform="translate(0 0.684375)"/>
       <use xlink:href="#DejaVuSans-30" transform="translate(63.623047 0.684375)"/>
       <use xlink:href="#DejaVuSans-2212" transform="translate(128.203125 38.965625) scale(0.7)"/>
       <use xlink:href="#DejaVuSans-35" transform="translate(186.855469 38.965625) scale(0.7)"/>
      </g>
     </g>
    </g>
    <g id="ytick_2">
     <g id="line2d_15">
      <path d="M 58.01375 280.031625 
L 721.19952 280.031625 
" clip-path="url(#p3718d3e616)" style="fill: none; stroke: #d9e6f2; stroke-opacity: 0.35; stroke-width: 0.8; stroke-linecap: square"/>
     </g>
     <g id="line2d_16">
      <g>
       <use xlink:href="#m9846ef1e1b" x="58.01375" y="280.031625" style="stroke: #000000; stroke-width: 0.8"/>
      </g>
     </g>
     <g id="text_9">
      <!-- $\mathdefault{10^{-4}}$ -->
      <g transform="translate(22.81375 284.590687) scale(0.12 -0.12)">
       <use xlink:href="#DejaVuSans-31" transform="translate(0 0.684375)"/>
       <use xlink:href="#DejaVuSans-30" transform="translate(63.623047 0.684375)"/>
       <use xlink:href="#DejaVuSans-2212" transform="translate(128.203125 38.965625) scale(0.7)"/>
       <use xlink:href="#DejaVuSans-34" transform="translate(186.855469 38.965625) scale(0.7)"/>
      </g>
     </g>
    </g>
    <g id="ytick_3">
     <g id="line2d_17">
      <path d="M 58.01375 219.221145 
L 721.19952 219.221145 
" clip-path="url(#p3718d3e616)" style="fill: none; stroke: #d9e6f2; stroke-opacity: 0.35; stroke-width: 0.8; stroke-linecap: square"/>
     </g>
     <g id="line2d_18">
      <g>
       <use xlink:href="#m9846ef1e1b" x="58.01375" y="219.221145" style="stroke: #000000; stroke-width: 0.8"/>
      </g>
     </g>
     <g id="text_10">
      <!-- $\mathdefault{10^{-3}}$ -->
      <g transform="translate(22.81375 223.780207) scale(0.12 -0.12)">
       <defs>
        <path id="DejaVuSans-33" d="M 2597 2516 
Q 3050 2419 3304 2112 
Q 3559 1806 3559 1356 
Q 3559 666 3084 287 
Q 2609 -91 1734 -91 
Q 1441 -91 1130 -33 
Q 819 25 488 141 
L 488 750 
Q 750 597 1062 519 
Q 1375 441 1716 441 
Q 2309 441 2620 675 
Q 2931 909 2931 1356 
Q 2931 1769 2642 2001 
Q 2353 2234 1838 2234 
L 1294 2234 
L 1294 2753 
L 1863 2753 
Q 2328 2753 2575 2939 
Q 2822 3125 2822 3475 
Q 2822 3834 2567 4026 
Q 2313 4219 1838 4219 
Q 1578 4219 1281 4162 
Q 984 4106 628 3988 
L 628 4550 
Q 988 4650 1302 4700 
Q 1616 4750 1894 4750 
Q 2613 4750 3031 4423 
Q 3450 4097 3450 3541 
Q 3450 3153 3228 2886 
Q 3006 2619 2597 2516 
z
" transform="scale(0.015625)"/>
       </defs>
       <use xlink:href="#DejaVuSans-31" transform="translate(0 0.765625)"/>
       <use xlink:href="#DejaVuSans-30" transform="translate(63.623047 0.765625)"/>
       <use xlink:href="#DejaVuSans-2212" transform="translate(128.203125 39.046875) scale(0.7)"/>
       <use xlink:href="#DejaVuSans-33" transform="translate(186.855469 39.046875) scale(0.7)"/>
      </g>
     </g>
    </g>
    <g id="ytick_4">
     <g id="line2d_19">
      <path d="M 58.01375 158.410665 
L 721.19952 158.410665 
" clip-path="url(#p3718d3e616)" style="fill: none; stroke: #d9e6f2; stroke-opacity: 0.35; stroke-width: 0.8; stroke-linecap: square"/>
     </g>
     <g id="line2d_20">
      <g>
       <use xlink:href="#m9846ef1e1b" x="58.01375" y="158.410665" style="stroke: #000000; stroke-width: 0.8"/>
      </g>
     </g>
     <g id="text_11">
      <!-- $\mathdefault{10^{-2}}$ -->
      <g transform="translate(22.81375 162.969727) scale(0.12 -0.12)">
       <use xlink:href="#DejaVuSans-31" transform="translate(0 0.765625)"/>
       <use xlink:href="#DejaVuSans-30" transform="translate(63.623047 0.765625)"/>
       <use xlink:href="#DejaVuSans-2212" transform="translate(128.203125 39.046875) scale(0.7)"/>
       <use xlink:href="#DejaVuSans-32" transform="translate(186.855469 39.046875) scale(0.7)"/>
      </g>
     </g>
    </g>
    <g id="ytick_5">
     <g id="line2d_21">
      <path d="M 58.01375 97.600185 
L 721.19952 97.600185 
" clip-path="url(#p3718d3e616)" style="fill: none; stroke: #d9e6f2; stroke-opacity: 0.35; stroke-width: 0.8; stroke-linecap: square"/>
     </g>
     <g id="line2d_22">
      <g>
       <use xlink:href="#m9846ef1e1b" x="58.01375" y="97.600185" style="stroke: #000000; stroke-width: 0.8"/>
      </g>
     </g>
     <g id="text_12">
      <!-- $\mathdefault{10^{-1}}$ -->
      <g transform="translate(22.81375 102.159248) scale(0.12 -0.12)">
       <use xlink:href="#DejaVuSans-31" transform="translate(0 0.684375)"/>
       <use xlink:href="#DejaVuSans-30" transform="translate(63.623047 0.684375)"/>
       <use xlink:href="#DejaVuSans-2212" transform="translate(128.203125 38.965625) scale(0.7)"/>
       <use xlink:href="#DejaVuSans-31" transform="translate(186.855469 38.965625) scale(0.7)"/>
      </g>
     </g>
    </g>
    <g id="ytick_6">
     <g id="line2d_23">
      <defs>
       <path id="mcfa693fc0d" d="M 0 0 
L -2 0 
" style="stroke: #000000; stroke-width: 0.6"/>
      </defs>
      <g>
       <use xlink:href="#mcfa693fc0d" x="58.01375" y="383.346806" style="stroke: #000000; stroke-width: 0.6"/>
      </g>
     </g>
    </g>
    <g id="ytick_7">
     <g id="line2d_24">
      <g>
       <use xlink:href="#mcfa693fc0d" x="58.01375" y="372.638612" style="stroke: #000000; stroke-width: 0.6"/>
      </g>
     </g>
    </g>
    <g id="ytick_8">
     <g id="line2d_25">
      <g>
       <use xlink:href="#mcfa693fc0d" x="58.01375" y="365.041027" style="stroke: #000000; stroke-width: 0.6"/>
      </g>
     </g>
    </g>
    <g id="ytick_9">
     <g id="line2d_26">
      <g>
       <use xlink:href="#mcfa693fc0d" x="58.01375" y="359.147883" style="stroke: #000000; stroke-width: 0.6"/>
      </g>
     </g>
    </g>
    <g id="ytick_10">
     <g id="line2d_27">
      <g>
       <use xlink:href="#mcfa693fc0d" x="58.01375" y="354.332833" style="stroke: #000000; stroke-width: 0.6"/>
      </g>
     </g>
    </g>
    <g id="ytick_11">
     <g id="line2d_28">
      <g>
       <use xlink:href="#mcfa693fc0d" x="58.01375" y="350.261767" style="stroke: #000000; stroke-width: 0.6"/>
      </g>
     </g>
    </g>
    <g id="ytick_12">
     <g id="line2d_29">
      <g>
       <use xlink:href="#mcfa693fc0d" x="58.01375" y="346.735249" style="stroke: #000000; stroke-width: 0.6"/>
      </g>
     </g>
    </g>
    <g id="ytick_13">
     <g id="line2d_30">
      <g>
       <use xlink:href="#mcfa693fc0d" x="58.01375" y="343.624639" style="stroke: #000000; stroke-width: 0.6"/>
      </g>
     </g>
    </g>
    <g id="ytick_14">
     <g id="line2d_31">
      <g>
       <use xlink:href="#mcfa693fc0d" x="58.01375" y="322.536326" style="stroke: #000000; stroke-width: 0.6"/>
      </g>
     </g>
    </g>
    <g id="ytick_15">
     <g id="line2d_32">
      <g>
       <use xlink:href="#mcfa693fc0d" x="58.01375" y="311.828132" style="stroke: #000000; stroke-width: 0.6"/>
      </g>
     </g>
    </g>
    <g id="ytick_16">
     <g id="line2d_33">
      <g>
       <use xlink:href="#mcfa693fc0d" x="58.01375" y="304.230547" style="stroke: #000000; stroke-width: 0.6"/>
      </g>
     </g>
    </g>
    <g id="ytick_17">
     <g id="line2d_34">
      <g>
       <use xlink:href="#mcfa693fc0d" x="58.01375" y="298.337403" style="stroke: #000000; stroke-width: 0.6"/>
      </g>
     </g>
    </g>
    <g id="ytick_18">
     <g id="line2d_35">
      <g>
       <use xlink:href="#mcfa693fc0d" x="58.01375" y="293.522353" style="stroke: #000000; stroke-width: 0.6"/>
      </g>
     </g>
    </g>
    <g id="ytick_19">
     <g id="line2d_36">
      <g>
       <use xlink:href="#mcfa693fc0d" x="58.01375" y="289.451287" style="stroke: #000000; stroke-width: 0.6"/>
      </g>
     </g>
    </g>
    <g id="ytick_20">
     <g id="line2d_37">
      <g>
       <use xlink:href="#mcfa693fc0d" x="58.01375" y="285.924769" style="stroke: #000000; stroke-width: 0.6"/>
      </g>
     </g>
    </g>
    <g id="ytick_21">
     <g id="line2d_38">
      <g>
       <use xlink:href="#mcfa693fc0d" x="58.01375" y="282.814159" style="stroke: #000000; stroke-width: 0.6"/>
      </g>
     </g>
    </g>
    <g id="ytick_22">
     <g id="line2d_39">
      <g>
       <use xlink:href="#mcfa693fc0d" x="58.01375" y="261.725846" style="stroke: #000000; stroke-width: 0.6"/>
      </g>
     </g>
    </g>
    <g id="ytick_23">
     <g id="line2d_40">
      <g>
       <use xlink:href="#mcfa693fc0d" x="58.01375" y="251.017652" style="stroke: #000000; stroke-width: 0.6"/>
      </g>
     </g>
    </g>
    <g id="ytick_24">
     <g id="line2d_41">
      <g>
       <use xlink:href="#mcfa693fc0d" x="58.01375" y="243.420068" style="stroke: #000000; stroke-width: 0.6"/>
      </g>
     </g>
    </g>
    <g id="ytick_25">
     <g id="line2d_42">
      <g>
       <use xlink:href="#mcfa693fc0d" x="58.01375" y="237.526923" style="stroke: #000000; stroke-width: 0.6"/>
      </g>
     </g>
    </g>
    <g id="ytick_26">
     <g id="line2d_43">
      <g>
       <use xlink:href="#mcfa693fc0d" x="58.01375" y="232.711874" style="stroke: #000000; stroke-width: 0.6"/>
      </g>
     </g>
    </g>
    <g id="ytick_27">
     <g id="line2d_44">
      <g>
       <use xlink:href="#mcfa693fc0d" x="58.01375" y="228.640807" style="stroke: #000000; stroke-width: 0.6"/>
      </g>
     </g>
    </g>
    <g id="ytick_28">
     <g id="line2d_45">
      <g>
       <use xlink:href="#mcfa693fc0d" x="58.01375" y="225.114289" style="stroke: #000000; stroke-width: 0.6"/>
      </g>
     </g>
    </g>
    <g id="ytick_29">
     <g id="line2d_46">
      <g>
       <use xlink:href="#mcfa693fc0d" x="58.01375" y="222.00368" style="stroke: #000000; stroke-width: 0.6"/>
      </g>
     </g>
    </g>
    <g id="ytick_30">
     <g id="line2d_47">
      <g>
       <use xlink:href="#mcfa693fc0d" x="58.01375" y="200.915366" style="stroke: #000000; stroke-width: 0.6"/>
      </g>
     </g>
    </g>
    <g id="ytick_31">
     <g id="line2d_48">
      <g>
       <use xlink:href="#mcfa693fc0d" x="58.01375" y="190.207172" style="stroke: #000000; stroke-width: 0.6"/>
      </g>
     </g>
    </g>
    <g id="ytick_32">
     <g id="line2d_49">
      <g>
       <use xlink:href="#mcfa693fc0d" x="58.01375" y="182.609588" style="stroke: #000000; stroke-width: 0.6"/>
      </g>
     </g>
    </g>
    <g id="ytick_33">
     <g id="line2d_50">
      <g>
       <use xlink:href="#mcfa693fc0d" x="58.01375" y="176.716443" style="stroke: #000000; stroke-width: 0.6"/>
      </g>
     </g>
    </g>
    <g id="ytick_34">
     <g id="line2d_51">
      <g>
       <use xlink:href="#mcfa693fc0d" x="58.01375" y="171.901394" style="stroke: #000000; stroke-width: 0.6"/>
      </g>
     </g>
    </g>
    <g id="ytick_35">
     <g id="line2d_52">
      <g>
       <use xlink:href="#mcfa693fc0d" x="58.01375" y="167.830327" style="stroke: #000000; stroke-width: 0.6"/>
      </g>
     </g>
    </g>
    <g id="ytick_36">
     <g id="line2d_53">
      <g>
       <use xlink:href="#mcfa693fc0d" x="58.01375" y="164.303809" style="stroke: #000000; stroke-width: 0.6"/>
      </g>
     </g>
    </g>
    <g id="ytick_37">
     <g id="line2d_54">
      <g>
       <use xlink:href="#mcfa693fc0d" x="58.01375" y="161.1932" style="stroke: #000000; stroke-width: 0.6"/>
      </g>
     </g>
    </g>
    <g id="ytick_38">
     <g id="line2d_55">
      <g>
       <use xlink:href="#mcfa693fc0d" x="58.01375" y="140.104886" style="stroke: #000000; stroke-width: 0.6"/>
      </g>
     </g>
    </g>
    <g id="ytick_39">
     <g id="line2d_56">
      <g>
       <use xlink:href="#mcfa693fc0d" x="58.01375" y="129.396693" style="stroke: #000000; stroke-width: 0.6"/>
      </g>
     </g>
    </g>
    <g id="ytick_40">
     <g id="line2d_57">
      <g>
       <use xlink:href="#mcfa693fc0d" x="58.01375" y="121.799108" style="stroke: #000000; stroke-width: 0.6"/>
      </g>
     </g>
    </g>
    <g id="ytick_41">
     <g id="line2d_58">
      <g>
       <use xlink:href="#mcfa693fc0d" x="58.01375" y="115.905964" style="stroke: #000000; stroke-width: 0.6"/>
      </g>
     </g>
    </g>
    <g id="ytick_42">
     <g id="line2d_59">
      <g>
       <use xlink:href="#mcfa693fc0d" x="58.01375" y="111.090914" style="stroke: #000000; stroke-width: 0.6"/>
      </g>
     </g>
    </g>
    <g id="ytick_43">
     <g id="line2d_60">
      <g>
       <use xlink:href="#mcfa693fc0d" x="58.01375" y="107.019848" style="stroke: #000000; stroke-width: 0.6"/>
      </g>
     </g>
    </g>
    <g id="ytick_44">
     <g id="line2d_61">
      <g>
       <use xlink:href="#mcfa693fc0d" x="58.01375" y="103.49333" style="stroke: #000000; stroke-width: 0.6"/>
      </g>
     </g>
    </g>
    <g id="ytick_45">
     <g id="line2d_62">
      <g>
       <use xlink:href="#mcfa693fc0d" x="58.01375" y="100.38272" style="stroke: #000000; stroke-width: 0.6"/>
      </g>
     </g>
    </g>
    <g id="ytick_46">
     <g id="line2d_63">
      <g>
       <use xlink:href="#mcfa693fc0d" x="58.01375" y="79.294407" style="stroke: #000000; stroke-width: 0.6"/>
      </g>
     </g>
    </g>
    <g id="ytick_47">
     <g id="line2d_64">
      <g>
       <use xlink:href="#mcfa693fc0d" x="58.01375" y="68.586213" style="stroke: #000000; stroke-width: 0.6"/>
      </g>
     </g>
    </g>
    <g id="ytick_48">
     <g id="line2d_65">
      <g>
       <use xlink:href="#mcfa693fc0d" x="58.01375" y="60.988628" style="stroke: #000000; stroke-width: 0.6"/>
      </g>
     </g>
    </g>
    <g id="ytick_49">
     <g id="line2d_66">
      <g>
       <use xlink:href="#mcfa693fc0d" x="58.01375" y="55.095484" style="stroke: #000000; stroke-width: 0.6"/>
      </g>
     </g>
    </g>
    <g id="ytick_50">
     <g id="line2d_67">
      <g>
       <use xlink:href="#mcfa693fc0d" x="58.01375" y="50.280434" style="stroke: #000000; stroke-width: 0.6"/>
      </g>
     </g>
    </g>
    <g id="ytick_51">
     <g id="line2d_68">
      <g>
       <use xlink:href="#mcfa693fc0d" x="58.01375" y="46.209368" style="stroke: #000000; stroke-width: 0.6"/>
      </g>
     </g>
    </g>
    <g id="ytick_52">
     <g id="line2d_69">
      <g>
       <use xlink:href="#mcfa693fc0d" x="58.01375" y="42.68285" style="stroke: #000000; stroke-width: 0.6"/>
      </g>
     </g>
    </g>
    <g id="text_13">
     <!-- Loss -->
     <g transform="translate(16.318125 233.580625) rotate(-90) scale(0.12 -0.12)">
      <defs>
       <path id="DejaVuSans-4c" d="M 628 4666 
L 1259 4666 
L 1259 531 
L 3531 531 
L 3531 0 
L 628 0 
L 628 4666 
z
" transform="scale(0.015625)"/>
       <path id="DejaVuSans-73" d="M 2834 3397 
L 2834 2853 
Q 2591 2978 2328 3040 
Q 2066 3103 1784 3103 
Q 1356 3103 1142 2972 
Q 928 2841 928 2578 
Q 928 2378 1081 2264 
Q 1234 2150 1697 2047 
L 1894 2003 
Q 2506 1872 2764 1633 
Q 3022 1394 3022 966 
Q 3022 478 2636 193 
Q 2250 -91 1575 -91 
Q 1294 -91 989 -36 
Q 684 19 347 128 
L 347 722 
Q 666 556 975 473 
Q 1284 391 1588 391 
Q 1994 391 2212 530 
Q 2431 669 2431 922 
Q 2431 1156 2273 1281 
Q 2116 1406 1581 1522 
L 1381 1569 
Q 847 1681 609 1914 
Q 372 2147 372 2553 
Q 372 3047 722 3315 
Q 1072 3584 1716 3584 
Q 2034 3584 2315 3537 
Q 2597 3491 2834 3397 
z
" transform="scale(0.015625)"/>
      </defs>
      <use xlink:href="#DejaVuSans-4c"/>
      <use xlink:href="#DejaVuSans-6f" transform="translate(53.962891 0)"/>
      <use xlink:href="#DejaVuSans-73" transform="translate(115.144531 0)"/>
      <use xlink:href="#DejaVuSans-73" transform="translate(167.244141 0)"/>
     </g>
    </g>
   </g>
   <g id="line2d_70">
    <path d="M 88.158558 180.072839 
L 94.248418 241.069713 
L 100.338278 257.479976 
L 106.428138 264.114753 
L 112.517998 267.730911 
L 118.607858 269.756486 
L 124.697719 271.360844 
L 130.787579 272.187301 
L 136.877439 273.142367 
L 142.967299 273.689353 
L 149.057159 274.428134 
L 155.147019 274.547046 
L 161.236879 275.048313 
L 167.32674 275.552433 
L 173.4166 275.713504 
L 179.50646 276.012171 
L 185.59632 276.333221 
L 191.68618 276.848025 
L 197.77604 276.951933 
L 203.865901 277.267693 
L 209.955761 279.709551 
L 216.045621 280.221879 
L 222.135481 280.345203 
L 228.225341 281.002429 
L 234.315201 280.837971 
L 240.405061 281.008835 
L 246.494922 281.075511 
L 252.584782 281.260844 
L 258.674642 281.503361 
L 264.764502 281.537893 
L 270.854362 281.635486 
L 276.944222 281.946152 
L 283.034082 282.120829 
L 289.123943 282.121342 
L 295.213803 282.211934 
L 301.303663 282.313145 
L 307.393523 282.548043 
L 313.483383 282.781212 
L 319.573243 282.558203 
L 325.663103 282.709361 
L 331.752964 282.661834 
L 337.842824 282.381457 
L 343.932684 282.638573 
L 350.022544 283.016804 
L 356.112404 283.016825 
L 362.202264 282.865692 
L 368.292124 283.070235 
L 374.381985 282.758103 
L 380.471845 282.864495 
L 386.561705 282.965874 
L 392.651565 285.048386 
L 398.741425 285.186749 
L 404.831285 285.566988 
L 410.921146 285.585099 
L 417.011006 285.588839 
L 423.100866 285.666276 
L 429.190726 285.425176 
L 435.280586 285.706401 
L 441.370446 285.784118 
L 447.460306 285.625774 
L 453.550167 285.737481 
L 459.640027 285.559273 
L 465.729887 285.566531 
L 471.819747 285.507485 
L 477.909607 285.771072 
L 483.999467 285.526827 
L 490.089327 285.47614 
L 496.179188 285.479903 
L 502.269048 285.551691 
L 508.358908 285.719976 
L 514.448768 285.587746 
L 520.538628 285.707928 
L 526.628488 285.47586 
L 532.718348 285.468862 
L 538.808209 285.624921 
L 544.898069 285.575158 
L 550.987929 285.771567 
L 557.077789 285.456819 
L 563.167649 285.508233 
L 569.257509 285.678907 
L 575.347369 285.795139 
L 581.43723 285.576623 
L 587.52709 285.409516 
L 593.61695 285.53382 
L 599.70681 285.245881 
L 605.79667 285.33049 
L 611.88653 285.855773 
L 617.976391 285.412917 
L 624.066251 285.402477 
L 630.156111 285.541379 
L 636.245971 285.911327 
L 642.335831 285.497978 
L 648.425691 285.246934 
L 654.515551 285.471716 
L 660.605412 285.513001 
L 666.695272 285.419202 
L 672.785132 285.285119 
L 678.874992 285.443382 
L 684.964852 285.274072 
L 691.054712 285.309915 
" clip-path="url(#p3718d3e616)" style="fill: none; stroke: #e24a33; stroke-width: 2; stroke-linecap: square"/>
   </g>
   <g id="line2d_71">
    <path d="M 88.158558 58.711666 
L 94.248418 66.143881 
L 100.338278 68.40669 
L 106.428138 69.907915 
L 112.517998 71.43586 
L 118.607858 72.502893 
L 124.697719 73.639762 
L 130.787579 74.85087 
L 136.877439 75.571806 
L 142.967299 76.202434 
L 149.057159 76.991864 
L 155.147019 77.900856 
L 161.236879 78.590664 
L 167.32674 79.079039 
L 173.4166 79.549781 
L 179.50646 80.130442 
L 185.59632 80.653395 
L 191.68618 81.066996 
L 197.77604 81.475903 
L 203.865901 82.154788 
L 209.955761 87.556989 
L 216.045621 88.564524 
L 222.135481 88.766091 
L 228.225341 89.332524 
L 234.315201 89.787162 
L 240.405061 90.127689 
L 246.494922 90.306404 
L 252.584782 90.553427 
L 258.674642 91.319181 
L 264.764502 91.570434 
L 270.854362 91.755931 
L 276.944222 92.19836 
L 283.034082 92.249873 
L 289.123943 92.747738 
L 295.213803 92.923445 
L 301.303663 93.430349 
L 307.393523 93.628541 
L 313.483383 94.055523 
L 319.573243 93.947901 
L 325.663103 94.365483 
L 331.752964 94.862753 
L 337.842824 94.982433 
L 343.932684 95.414523 
L 350.022544 95.604529 
L 356.112404 95.681176 
L 362.202264 95.772472 
L 368.292124 95.897233 
L 374.381985 96.375938 
L 380.471845 96.754683 
L 386.561705 96.874743 
L 392.651565 100.960261 
L 398.741425 102.124332 
L 404.831285 102.706144 
L 410.921146 102.922258 
L 417.011006 103.252336 
L 423.100866 103.158691 
L 429.190726 103.680157 
L 435.280586 103.947342 
L 441.370446 104.135186 
L 447.460306 104.313165 
L 453.550167 104.353978 
L 459.640027 104.855196 
L 465.729887 104.930757 
L 471.819747 105.353626 
L 477.909607 105.333045 
L 483.999467 105.746814 
L 490.089327 105.722867 
L 496.179188 105.738106 
L 502.269048 106.137373 
L 508.358908 106.398483 
L 514.448768 106.515313 
L 520.538628 106.458712 
L 526.628488 106.87883 
L 532.718348 106.812017 
L 538.808209 107.177675 
L 544.898069 107.328745 
L 550.987929 107.596198 
L 557.077789 107.532809 
L 563.167649 107.879258 
L 569.257509 107.817921 
L 575.347369 108.204452 
L 581.43723 108.074521 
L 587.52709 108.10202 
L 593.61695 108.073239 
L 599.70681 108.121665 
L 605.79667 108.585424 
L 611.88653 108.882487 
L 617.976391 108.946347 
L 624.066251 108.928741 
L 630.156111 109.246526 
L 636.245971 109.579561 
L 642.335831 109.639839 
L 648.425691 109.807538 
L 654.515551 109.498889 
L 660.605412 110.037598 
L 666.695272 110.275384 
L 672.785132 110.484696 
L 678.874992 110.228776 
L 684.964852 110.538497 
L 691.054712 110.309731 
" clip-path="url(#p3718d3e616)" style="fill: none; stroke: #348abd; stroke-width: 2; stroke-linecap: square"/>
   </g>
   <g id="line2d_72">
    <path d="M 88.158558 153.222556 
L 94.248418 248.086281 
L 100.338278 279.468247 
L 106.428138 298.31318 
L 112.517998 313.536448 
L 118.607858 325.932022 
L 124.697719 337.2694 
L 130.787579 345.879894 
L 136.877439 353.91637 
L 142.967299 359.698722 
L 149.057159 362.09604 
L 155.147019 363.294649 
L 161.236879 366.292898 
L 167.32674 367.689631 
L 173.4166 369.327472 
L 179.50646 368.810378 
L 185.59632 369.206912 
L 191.68618 371.512194 
L 197.77604 372.44152 
L 203.865901 373.319848 
L 209.955761 378.423496 
L 216.045621 379.215709 
L 222.135481 378.953503 
L 228.225341 378.998909 
L 234.315201 379.423276 
L 240.405061 379.408469 
L 246.494922 379.203369 
L 252.584782 378.859869 
L 258.674642 380.543305 
L 264.764502 378.513361 
L 270.854362 379.134227 
L 276.944222 380.655721 
L 283.034082 379.466293 
L 289.123943 379.166753 
L 295.213803 378.907045 
L 301.303663 379.876987 
L 307.393523 380.988509 
L 313.483383 380.831757 
L 319.573243 380.937386 
L 325.663103 381.032629 
L 331.752964 380.333553 
L 337.842824 382.253677 
L 343.932684 380.271855 
L 350.022544 382.740018 
L 356.112404 379.0493 
L 362.202264 380.323685 
L 368.292124 380.497132 
L 374.381985 380.15274 
L 380.471845 378.938714 
L 386.561705 381.05259 
L 392.651565 382.275551 
L 398.741425 380.306151 
L 404.831285 381.341772 
L 410.921146 380.530256 
L 417.011006 380.575083 
L 423.100866 381.955686 
L 429.190726 381.253875 
L 435.280586 380.484464 
L 441.370446 381.001598 
L 447.460306 381.407138 
L 453.550167 379.990255 
L 459.640027 380.193188 
L 465.729887 380.71811 
L 471.819747 380.810661 
L 477.909607 380.022569 
L 483.999467 380.501685 
L 490.089327 379.235185 
L 496.179188 380.121829 
L 502.269048 379.411542 
L 508.358908 380.110331 
L 514.448768 380.066105 
L 520.538628 379.436119 
L 526.628488 378.864344 
L 532.718348 378.934847 
L 538.808209 381.017619 
L 544.898069 379.268591 
L 550.987929 380.862796 
L 557.077789 378.119285 
L 563.167649 377.19283 
L 569.257509 380.301917 
L 575.347369 379.764821 
L 581.43723 378.779329 
L 587.52709 381.727917 
L 593.61695 379.384457 
L 599.70681 379.548432 
L 605.79667 378.564692 
L 611.88653 378.759525 
L 617.976391 380.193876 
L 624.066251 377.923116 
L 630.156111 378.139863 
L 636.245971 378.394487 
L 642.335831 378.77209 
L 648.425691 378.630346 
L 654.515551 378.507462 
L 660.605412 379.108914 
L 666.695272 378.213241 
L 672.785132 377.839572 
L 678.874992 377.373029 
L 684.964852 377.589606 
L 691.054712 378.216525 
" clip-path="url(#p3718d3e616)" style="fill: none; stroke: #988ed5; stroke-width: 2; stroke-linecap: square"/>
   </g>
   <g id="line2d_73">
    <path d="M 88.158558 178.939932 
L 94.248418 240.937435 
L 100.338278 269.682717 
L 106.428138 287.513229 
L 112.517998 298.498403 
L 118.607858 304.786139 
L 124.697719 309.249488 
L 130.787579 311.535658 
L 136.877439 313.126586 
L 142.967299 314.129842 
L 149.057159 314.73051 
L 155.147019 315.199544 
L 161.236879 315.618831 
L 167.32674 315.912826 
L 173.4166 316.026183 
L 179.50646 316.213801 
L 185.59632 316.481767 
L 191.68618 316.681813 
L 197.77604 316.596764 
L 203.865901 316.843925 
L 209.955761 316.494281 
L 216.045621 316.71772 
L 222.135481 316.765878 
L 228.225341 317.47484 
L 234.315201 316.895411 
L 240.405061 317.188304 
L 246.494922 317.259811 
L 252.584782 317.320288 
L 258.674642 317.461164 
L 264.764502 317.502 
L 270.854362 317.570558 
L 276.944222 317.541406 
L 283.034082 318.005441 
L 289.123943 317.691909 
L 295.213803 317.791448 
L 301.303663 318.027126 
L 307.393523 317.888001 
L 313.483383 318.121764 
L 319.573243 318.17716 
L 325.663103 318.224864 
L 331.752964 318.113629 
L 337.842824 318.299096 
L 343.932684 318.522201 
L 350.022544 318.541912 
L 356.112404 318.44248 
L 362.202264 318.603672 
L 368.292124 318.658842 
L 374.381985 318.749194 
L 380.471845 318.876832 
L 386.561705 318.725727 
L 392.651565 318.864543 
L 398.741425 318.887185 
L 404.831285 318.953146 
L 410.921146 319.030698 
L 417.011006 318.921584 
L 423.100866 319.009548 
L 429.190726 319.148313 
L 435.280586 319.11396 
L 441.370446 319.355695 
L 447.460306 319.179253 
L 453.550167 318.892139 
L 459.640027 319.104927 
L 465.729887 319.124034 
L 471.819747 319.321518 
L 477.909607 319.243619 
L 483.999467 319.380219 
L 490.089327 319.1016 
L 496.179188 319.306853 
L 502.269048 319.246031 
L 508.358908 319.303851 
L 514.448768 319.323104 
L 520.538628 319.196479 
L 526.628488 319.399105 
L 532.718348 319.287501 
L 538.808209 319.212193 
L 544.898069 319.405201 
L 550.987929 319.18564 
L 557.077789 319.387917 
L 563.167649 319.362616 
L 569.257509 319.444229 
L 575.347369 319.299976 
L 581.43723 319.194598 
L 587.52709 319.355475 
L 593.61695 319.479642 
L 599.70681 319.394639 
L 605.79667 319.400781 
L 611.88653 319.573776 
L 617.976391 319.357177 
L 624.066251 319.626489 
L 630.156111 319.482998 
L 636.245971 319.564684 
L 642.335831 319.409091 
L 648.425691 319.418844 
L 654.515551 319.358383 
L 660.605412 319.512088 
L 666.695272 319.373246 
L 672.785132 319.410732 
L 678.874992 319.52836 
L 684.964852 319.39047 
L 691.054712 319.459914 
" clip-path="url(#p3718d3e616)" style="fill: none; stroke: #8eba42; stroke-width: 2; stroke-linecap: square"/>
   </g>
   <g id="line2d_74">
    <path d="M 88.158558 58.099982 
L 94.248418 66.070934 
L 100.338278 68.372344 
L 106.428138 69.883582 
L 112.517998 71.415095 
L 118.607858 72.483655 
L 124.697719 73.621318 
L 130.787579 74.832379 
L 136.877439 75.55358 
L 142.967299 76.184219 
L 149.057159 76.973601 
L 155.147019 77.882084 
L 161.236879 78.571753 
L 167.32674 79.060113 
L 173.4166 79.530629 
L 179.50646 80.111069 
L 185.59632 80.633866 
L 191.68618 81.047503 
L 197.77604 81.45616 
L 203.865901 82.134762 
L 209.955761 87.53414 
L 216.045621 88.541191 
L 222.135481 88.742675 
L 228.225341 89.309197 
L 234.315201 89.763207 
L 240.405061 90.103602 
L 246.494922 90.282215 
L 252.584782 90.529158 
L 258.674642 91.294409 
L 264.764502 91.545456 
L 270.854362 91.730865 
L 276.944222 92.173104 
L 283.034082 92.224788 
L 289.123943 92.722114 
L 295.213803 92.897739 
L 301.303663 93.404274 
L 307.393523 93.602428 
L 313.483383 94.029217 
L 319.573243 93.921538 
L 325.663103 94.338832 
L 331.752964 94.835532 
L 337.842824 94.9549 
L 343.932684 95.386795 
L 350.022544 95.576926 
L 356.112404 95.653463 
L 362.202264 95.744575 
L 368.292124 95.869388 
L 374.381985 96.347336 
L 380.471845 96.725787 
L 386.561705 96.845774 
L 392.651565 100.928521 
L 398.741425 102.091299 
L 404.831285 102.672773 
L 410.921146 102.88865 
L 417.011006 103.218278 
L 423.100866 103.12486 
L 429.190726 103.645443 
L 435.280586 103.912553 
L 441.370446 104.1003 
L 447.460306 104.277829 
L 453.550167 104.318615 
L 459.640027 104.819031 
L 465.729887 104.894503 
L 471.819747 105.316785 
L 477.909607 105.296492 
L 483.999467 105.709459 
L 490.089327 105.6854 
L 496.179188 105.700687 
L 502.269048 106.099443 
L 508.358908 106.360387 
L 514.448768 106.476905 
L 520.538628 106.42048 
L 526.628488 106.839782 
L 532.718348 106.773024 
L 538.808209 107.138303 
L 544.898069 107.289146 
L 550.987929 107.55636 
L 557.077789 107.492753 
L 563.167649 107.838724 
L 569.257509 107.777722 
L 575.347369 108.16375 
L 581.43723 108.033718 
L 587.52709 108.061037 
L 593.61695 108.032485 
L 599.70681 108.080457 
L 605.79667 108.54359 
L 611.88653 108.840892 
L 617.976391 108.904033 
L 624.066251 108.886526 
L 630.156111 109.203928 
L 636.245971 109.53692 
L 642.335831 109.596522 
L 648.425691 109.763624 
L 654.515551 109.455751 
L 660.605412 109.993683 
L 666.695272 110.230894 
L 672.785132 110.439686 
L 678.874992 110.184449 
L 684.964852 110.493373 
L 691.054712 110.26507 
" clip-path="url(#p3718d3e616)" style="fill: none; stroke: #222222; stroke-width: 2.2; stroke-linecap: square"/>
   </g>
   <g id="line2d_75">
    <path d="M 88.158558 64.502652 
L 94.248418 68.206553 
L 100.338278 69.510383 
L 106.428138 71.60873 
L 112.517998 72.275023 
L 118.607858 73.440146 
L 124.697719 74.115916 
L 130.787579 75.383823 
L 136.877439 75.533558 
L 142.967299 76.428304 
L 149.057159 77.025104 
L 155.147019 77.69698 
L 161.236879 78.170237 
L 167.32674 78.525357 
L 173.4166 79.008385 
L 179.50646 79.14309 
L 185.59632 79.427693 
L 191.68618 79.883245 
L 197.77604 80.413503 
L 203.865901 80.399006 
L 209.955761 89.907122 
L 216.045621 89.79129 
L 222.135481 89.980873 
L 228.225341 90.382989 
L 234.315201 90.543889 
L 240.405061 90.580217 
L 246.494922 89.840431 
L 252.584782 90.365019 
L 258.674642 91.152893 
L 264.764502 90.435805 
L 270.854362 91.139984 
L 276.944222 91.425565 
L 283.034082 91.248336 
L 289.123943 91.287799 
L 295.213803 91.593548 
L 301.303663 92.209187 
L 307.393523 92.209179 
L 313.483383 92.271986 
L 319.573243 92.272162 
L 325.663103 92.938022 
L 331.752964 92.882516 
L 337.842824 92.985593 
L 343.932684 92.514313 
L 350.022544 92.90621 
L 356.112404 92.743122 
L 362.202264 92.481649 
L 368.292124 91.409058 
L 374.381985 93.11091 
L 380.471845 93.535817 
L 386.561705 93.81325 
L 392.651565 105.768959 
L 398.741425 105.840075 
L 404.831285 106.151268 
L 410.921146 105.634501 
L 417.011006 105.560078 
L 423.100866 105.840416 
L 429.190726 105.9435 
L 435.280586 105.541732 
L 441.370446 105.977729 
L 447.460306 106.143167 
L 453.550167 105.785387 
L 459.640027 105.8912 
L 465.729887 106.242987 
L 471.819747 106.257979 
L 477.909607 106.074908 
L 483.999467 106.389084 
L 490.089327 106.003353 
L 496.179188 105.735675 
L 502.269048 105.87203 
L 508.358908 105.890122 
L 514.448768 106.242144 
L 520.538628 105.949477 
L 526.628488 105.932126 
L 532.718348 106.088473 
L 538.808209 106.663012 
L 544.898069 105.953967 
L 550.987929 106.563211 
L 557.077789 106.223488 
L 563.167649 106.245684 
L 569.257509 106.450952 
L 575.347369 106.394028 
L 581.43723 106.309407 
L 587.52709 106.043467 
L 593.61695 106.455025 
L 599.70681 106.085105 
L 605.79667 106.333685 
L 611.88653 106.856174 
L 617.976391 106.335315 
L 624.066251 106.260652 
L 630.156111 106.401447 
L 636.245971 106.571083 
L 642.335831 106.403498 
L 648.425691 105.565383 
L 654.515551 106.75325 
L 660.605412 106.74165 
L 666.695272 106.145873 
L 672.785132 106.734317 
L 678.874992 106.635091 
L 684.964852 106.818807 
L 691.054712 106.207945 
" clip-path="url(#p3718d3e616)" style="fill: none; stroke: #ffb547; stroke-width: 2.2; stroke-linecap: square"/>
   </g>
   <g id="patch_6">
    <path d="M 58.01375 398.97202 
L 58.01375 41.86798 
" style="fill: none; stroke: #000000; stroke-width: 0.8; stroke-linejoin: miter; stroke-linecap: square"/>
   </g>
   <g id="patch_7">
    <path d="M 58.01375 398.97202 
L 721.19952 398.97202 
" style="fill: none; stroke: #000000; stroke-width: 0.8; stroke-linejoin: miter; stroke-linecap: square"/>
   </g>
   <g id="text_14">
    <g id="patch_8">
     <path d="M 118.793557 65.1084 
L 173.230901 65.1084 
Q 175.480901 65.1084 175.480901 62.8584 
L 175.480901 44.070057 
Q 175.480901 41.820057 173.230901 41.820057 
L 118.793557 41.820057 
Q 116.543557 41.820057 116.543557 44.070057 
L 116.543557 62.8584 
Q 116.543557 65.1084 118.793557 65.1084 
z
" style="fill: #ffffff; opacity: 0.65"/>
    </g>
    <!-- Phase 1 -->
    <g style="fill: #0b2545" transform="translate(128.282932 50.90865) scale(0.09 -0.09)">
     <defs>
      <path id="DejaVuSans-50" d="M 1259 4147 
L 1259 2394 
L 2053 2394 
Q 2494 2394 2734 2622 
Q 2975 2850 2975 3272 
Q 2975 3691 2734 3919 
Q 2494 4147 2053 4147 
L 1259 4147 
z
M 628 4666 
L 2053 4666 
Q 2838 4666 3239 4311 
Q 3641 3956 3641 3272 
Q 3641 2581 3239 2228 
Q 2838 1875 2053 1875 
L 1259 1875 
L 1259 0 
L 628 0 
L 628 4666 
z
" transform="scale(0.015625)"/>
      <path id="DejaVuSans-61" d="M 2194 1759 
Q 1497 1759 1228 1600 
Q 959 1441 959 1056 
Q 959 750 1161 570 
Q 1363 391 1709 391 
Q 2188 391 2477 730 
Q 2766 1069 2766 1631 
L 2766 1759 
L 2194 1759 
z
M 3341 1997 
L 3341 0 
L 2766 0 
L 2766 531 
Q 2569 213 2275 61 
Q 1981 -91 1556 -91 
Q 1019 -91 701 211 
Q 384 513 384 1019 
Q 384 1609 779 1909 
Q 1175 2209 1959 2209 
L 2766 2209 
L 2766 2266 
Q 2766 2663 2505 2880 
Q 2244 3097 1772 3097 
Q 1472 3097 1187 3025 
Q 903 2953 641 2809 
L 641 3341 
Q 956 3463 1253 3523 
Q 1550 3584 1831 3584 
Q 2591 3584 2966 3190 
Q 3341 2797 3341 1997 
z
" transform="scale(0.015625)"/>
      <path id="DejaVuSans-65" d="M 3597 1894 
L 3597 1613 
L 953 1613 
Q 991 1019 1311 708 
Q 1631 397 2203 397 
Q 2534 397 2845 478 
Q 3156 559 3463 722 
L 3463 178 
Q 3153 47 2828 -22 
Q 2503 -91 2169 -91 
Q 1331 -91 842 396 
Q 353 884 353 1716 
Q 353 2575 817 3079 
Q 1281 3584 2069 3584 
Q 2775 3584 3186 3129 
Q 3597 2675 3597 1894 
z
M 3022 2063 
Q 3016 2534 2758 2815 
Q 2500 3097 2075 3097 
Q 1594 3097 1305 2825 
Q 1016 2553 972 2059 
L 3022 2063 
z
" transform="scale(0.015625)"/>
      <path id="DejaVuSans-20" transform="scale(0.015625)"/>
     </defs>
     <use xlink:href="#DejaVuSans-50"/>
     <use xlink:href="#DejaVuSans-68" transform="translate(60.302734 0)"/>
     <use xlink:href="#DejaVuSans-61" transform="translate(123.681641 0)"/>
     <use xlink:href="#DejaVuSans-73" transform="translate(184.960938 0)"/>
     <use xlink:href="#DejaVuSans-65" transform="translate(237.060547 0)"/>
     <use xlink:href="#DejaVuSans-20" transform="translate(298.583984 0)"/>
     <use xlink:href="#DejaVuSans-31" transform="translate(330.371094 0)"/>
    </g>
    <!-- L=50, S=10 -->
    <g style="fill: #0b2545" transform="translate(118.793557 60.986682) scale(0.09 -0.09)">
     <defs>
      <path id="DejaVuSans-3d" d="M 678 2906 
L 4684 2906 
L 4684 2381 
L 678 2381 
L 678 2906 
z
M 678 1631 
L 4684 1631 
L 4684 1100 
L 678 1100 
L 678 1631 
z
" transform="scale(0.015625)"/>
      <path id="DejaVuSans-2c" d="M 750 794 
L 1409 794 
L 1409 256 
L 897 -744 
L 494 -744 
L 750 256 
L 750 794 
z
" transform="scale(0.015625)"/>
      <path id="DejaVuSans-53" d="M 3425 4513 
L 3425 3897 
Q 3066 4069 2747 4153 
Q 2428 4238 2131 4238 
Q 1616 4238 1336 4038 
Q 1056 3838 1056 3469 
Q 1056 3159 1242 3001 
Q 1428 2844 1947 2747 
L 2328 2669 
Q 3034 2534 3370 2195 
Q 3706 1856 3706 1288 
Q 3706 609 3251 259 
Q 2797 -91 1919 -91 
Q 1588 -91 1214 -16 
Q 841 59 441 206 
L 441 856 
Q 825 641 1194 531 
Q 1563 422 1919 422 
Q 2459 422 2753 634 
Q 3047 847 3047 1241 
Q 3047 1584 2836 1778 
Q 2625 1972 2144 2069 
L 1759 2144 
Q 1053 2284 737 2584 
Q 422 2884 422 3419 
Q 422 4038 858 4394 
Q 1294 4750 2059 4750 
Q 2388 4750 2728 4690 
Q 3069 4631 3425 4513 
z
" transform="scale(0.015625)"/>
     </defs>
     <use xlink:href="#DejaVuSans-4c"/>
     <use xlink:href="#DejaVuSans-3d" transform="translate(55.712891 0)"/>
     <use xlink:href="#DejaVuSans-35" transform="translate(139.501953 0)"/>
     <use xlink:href="#DejaVuSans-30" transform="translate(203.125 0)"/>
     <use xlink:href="#DejaVuSans-2c" transform="translate(266.748047 0)"/>
     <use xlink:href="#DejaVuSans-20" transform="translate(298.535156 0)"/>
     <use xlink:href="#DejaVuSans-53" transform="translate(330.322266 0)"/>
     <use xlink:href="#DejaVuSans-3d" transform="translate(393.798828 0)"/>
     <use xlink:href="#DejaVuSans-31" transform="translate(477.587891 0)"/>
     <use xlink:href="#DejaVuSans-30" transform="translate(541.210938 0)"/>
    </g>
   </g>
   <g id="text_15">
    <g id="patch_9">
     <path d="M 268.176936 65.1084 
L 328.34053 65.1084 
Q 330.59053 65.1084 330.59053 62.8584 
L 330.59053 44.070057 
Q 330.59053 41.820057 328.34053 41.820057 
L 268.176936 41.820057 
Q 265.926936 41.820057 265.926936 44.070057 
L 265.926936 62.8584 
Q 265.926936 65.1084 268.176936 65.1084 
z
" style="fill: #ffffff; opacity: 0.65"/>
    </g>
    <!-- Phase 2 -->
    <g style="fill: #0b2545" transform="translate(280.529436 50.90865) scale(0.09 -0.09)">
     <use xlink:href="#DejaVuSans-50"/>
     <use xlink:href="#DejaVuSans-68" transform="translate(60.302734 0)"/>
     <use xlink:href="#DejaVuSans-61" transform="translate(123.681641 0)"/>
     <use xlink:href="#DejaVuSans-73" transform="translate(184.960938 0)"/>
     <use xlink:href="#DejaVuSans-65" transform="translate(237.060547 0)"/>
     <use xlink:href="#DejaVuSans-20" transform="translate(298.583984 0)"/>
     <use xlink:href="#DejaVuSans-32" transform="translate(330.371094 0)"/>
    </g>
    <!-- L=100, S=20 -->
    <g style="fill: #0b2545" transform="translate(268.176936 60.986682) scale(0.09 -0.09)">
     <use xlink:href="#DejaVuSans-4c"/>
     <use xlink:href="#DejaVuSans-3d" transform="translate(55.712891 0)"/>
     <use xlink:href="#DejaVuSans-31" transform="translate(139.501953 0)"/>
     <use xlink:href="#DejaVuSans-30" transform="translate(203.125 0)"/>
     <use xlink:href="#DejaVuSans-30" transform="translate(266.748047 0)"/>
     <use xlink:href="#DejaVuSans-2c" transform="translate(330.371094 0)"/>
     <use xlink:href="#DejaVuSans-20" transform="translate(362.158203 0)"/>
     <use xlink:href="#DejaVuSans-53" transform="translate(393.945312 0)"/>
     <use xlink:href="#DejaVuSans-3d" transform="translate(457.421875 0)"/>
     <use xlink:href="#DejaVuSans-32" transform="translate(541.210938 0)"/>
     <use xlink:href="#DejaVuSans-30" transform="translate(604.833984 0)"/>
    </g>
   </g>
   <g id="text_16">
    <g id="patch_10">
     <path d="M 511.771342 65.1084 
L 571.934936 65.1084 
Q 574.184936 65.1084 574.184936 62.8584 
L 574.184936 44.070057 
Q 574.184936 41.820057 571.934936 41.820057 
L 511.771342 41.820057 
Q 509.521342 41.820057 509.521342 44.070057 
L 509.521342 62.8584 
Q 509.521342 65.1084 511.771342 65.1084 
z
" style="fill: #ffffff; opacity: 0.65"/>
    </g>
    <!-- Phase 3 -->
    <g style="fill: #0b2545" transform="translate(524.123842 50.90865) scale(0.09 -0.09)">
     <use xlink:href="#DejaVuSans-50"/>
     <use xlink:href="#DejaVuSans-68" transform="translate(60.302734 0)"/>
     <use xlink:href="#DejaVuSans-61" transform="translate(123.681641 0)"/>
     <use xlink:href="#DejaVuSans-73" transform="translate(184.960938 0)"/>
     <use xlink:href="#DejaVuSans-65" transform="translate(237.060547 0)"/>
     <use xlink:href="#DejaVuSans-20" transform="translate(298.583984 0)"/>
     <use xlink:href="#DejaVuSans-33" transform="translate(330.371094 0)"/>
    </g>
    <!-- L=200, S=50 -->
    <g style="fill: #0b2545" transform="translate(511.771342 60.986682) scale(0.09 -0.09)">
     <use xlink:href="#DejaVuSans-4c"/>
     <use xlink:href="#DejaVuSans-3d" transform="translate(55.712891 0)"/>
     <use xlink:href="#DejaVuSans-32" transform="translate(139.501953 0)"/>
     <use xlink:href="#DejaVuSans-30" transform="translate(203.125 0)"/>
     <use xlink:href="#DejaVuSans-30" transform="translate(266.748047 0)"/>
     <use xlink:href="#DejaVuSans-2c" transform="translate(330.371094 0)"/>
     <use xlink:href="#DejaVuSans-20" transform="translate(362.158203 0)"/>
     <use xlink:href="#DejaVuSans-53" transform="translate(393.945312 0)"/>
     <use xlink:href="#DejaVuSans-3d" transform="translate(457.421875 0)"/>
     <use xlink:href="#DejaVuSans-35" transform="translate(541.210938 0)"/>
     <use xlink:href="#DejaVuSans-30" transform="translate(604.833984 0)"/>
    </g>
   </g>
   <g id="text_17">
    <!-- Training convergence: individual losses (log scale) -->
    <g transform="translate(238.893197 35.86798) scale(0.12 -0.12)">
     <defs>
      <path id="DejaVuSans-54" d="M -19 4666 
L 3928 4666 
L 3928 4134 
L 2272 4134 
L 2272 0 
L 1638 0 
L 1638 4134 
L -19 4134 
L -19 4666 
z
" transform="scale(0.015625)"/>
      <path id="DejaVuSans-72" d="M 2631 2963 
Q 2534 3019 2420 3045 
Q 2306 3072 2169 3072 
Q 1681 3072 1420 2755 
Q 1159 2438 1159 1844 
L 1159 0 
L 581 0 
L 581 3500 
L 1159 3500 
L 1159 2956 
Q 1341 3275 1631 3429 
Q 1922 3584 2338 3584 
Q 2397 3584 2469 3576 
Q 2541 3569 2628 3553 
L 2631 2963 
z
" transform="scale(0.015625)"/>
      <path id="DejaVuSans-69" d="M 603 3500 
L 1178 3500 
L 1178 0 
L 603 0 
L 603 3500 
z
M 603 4863 
L 1178 4863 
L 1178 4134 
L 603 4134 
L 603 4863 
z
" transform="scale(0.015625)"/>
      <path id="DejaVuSans-6e" d="M 3513 2113 
L 3513 0 
L 2938 0 
L 2938 2094 
Q 2938 2591 2744 2837 
Q 2550 3084 2163 3084 
Q 1697 3084 1428 2787 
Q 1159 2491 1159 1978 
L 1159 0 
L 581 0 
L 581 3500 
L 1159 3500 
L 1159 2956 
Q 1366 3272 1645 3428 
Q 1925 3584 2291 3584 
Q 2894 3584 3203 3211 
Q 3513 2838 3513 2113 
z
" transform="scale(0.015625)"/>
      <path id="DejaVuSans-67" d="M 2906 1791 
Q 2906 2416 2648 2759 
Q 2391 3103 1925 3103 
Q 1463 3103 1205 2759 
Q 947 2416 947 1791 
Q 947 1169 1205 825 
Q 1463 481 1925 481 
Q 2391 481 2648 825 
Q 2906 1169 2906 1791 
z
M 3481 434 
Q 3481 -459 3084 -895 
Q 2688 -1331 1869 -1331 
Q 1566 -1331 1297 -1286 
Q 1028 -1241 775 -1147 
L 775 -588 
Q 1028 -725 1275 -790 
Q 1522 -856 1778 -856 
Q 2344 -856 2625 -561 
Q 2906 -266 2906 331 
L 2906 616 
Q 2728 306 2450 153 
Q 2172 0 1784 0 
Q 1141 0 747 490 
Q 353 981 353 1791 
Q 353 2603 747 3093 
Q 1141 3584 1784 3584 
Q 2172 3584 2450 3431 
Q 2728 3278 2906 2969 
L 2906 3500 
L 3481 3500 
L 3481 434 
z
" transform="scale(0.015625)"/>
      <path id="DejaVuSans-76" d="M 191 3500 
L 800 3500 
L 1894 563 
L 2988 3500 
L 3597 3500 
L 2284 0 
L 1503 0 
L 191 3500 
z
" transform="scale(0.015625)"/>
      <path id="DejaVuSans-3a" d="M 750 794 
L 1409 794 
L 1409 0 
L 750 0 
L 750 794 
z
M 750 3309 
L 1409 3309 
L 1409 2516 
L 750 2516 
L 750 3309 
z
" transform="scale(0.015625)"/>
      <path id="DejaVuSans-64" d="M 2906 2969 
L 2906 4863 
L 3481 4863 
L 3481 0 
L 2906 0 
L 2906 525 
Q 2725 213 2448 61 
Q 2172 -91 1784 -91 
Q 1150 -91 751 415 
Q 353 922 353 1747 
Q 353 2572 751 3078 
Q 1150 3584 1784 3584 
Q 2172 3584 2448 3432 
Q 2725 3281 2906 2969 
z
M 947 1747 
Q 947 1113 1208 752 
Q 1469 391 1925 391 
Q 2381 391 2643 752 
Q 2906 1113 2906 1747 
Q 2906 2381 2643 2742 
Q 2381 3103 1925 3103 
Q 1469 3103 1208 2742 
Q 947 2381 947 1747 
z
" transform="scale(0.015625)"/>
      <path id="DejaVuSans-75" d="M 544 1381 
L 544 3500 
L 1119 3500 
L 1119 1403 
Q 1119 906 1312 657 
Q 1506 409 1894 409 
Q 2359 409 2629 706 
Q 2900 1003 2900 1516 
L 2900 3500 
L 3475 3500 
L 3475 0 
L 2900 0 
L 2900 538 
Q 2691 219 2414 64 
Q 2138 -91 1772 -91 
Q 1169 -91 856 284 
Q 544 659 544 1381 
z
M 1991 3584 
L 1991 3584 
z
" transform="scale(0.015625)"/>
      <path id="DejaVuSans-6c" d="M 603 4863 
L 1178 4863 
L 1178 0 
L 603 0 
L 603 4863 
z
" transform="scale(0.015625)"/>
      <path id="DejaVuSans-28" d="M 1984 4856 
Q 1566 4138 1362 3434 
Q 1159 2731 1159 2009 
Q 1159 1288 1364 580 
Q 1569 -128 1984 -844 
L 1484 -844 
Q 1016 -109 783 600 
Q 550 1309 550 2009 
Q 550 2706 781 3412 
Q 1013 4119 1484 4856 
L 1984 4856 
z
" transform="scale(0.015625)"/>
      <path id="DejaVuSans-29" d="M 513 4856 
L 1013 4856 
Q 1481 4119 1714 3412 
Q 1947 2706 1947 2009 
Q 1947 1309 1714 600 
Q 1481 -109 1013 -844 
L 513 -844 
Q 928 -128 1133 580 
Q 1338 1288 1338 2009 
Q 1338 2731 1133 3434 
Q 928 4138 513 4856 
z
" transform="scale(0.015625)"/>
     </defs>
     <use xlink:href="#DejaVuSans-54"/>
     <use xlink:href="#DejaVuSans-72" transform="translate(46.333984 0)"/>
     <use xlink:href="#DejaVuSans-61" transform="translate(87.447266 0)"/>
     <use xlink:href="#DejaVuSans-69" transform="translate(148.726562 0)"/>
     <use xlink:href="#DejaVuSans-6e" transform="translate(176.509766 0)"/>
     <use xlink:href="#DejaVuSans-69" transform="translate(239.888672 0)"/>
     <use xlink:href="#DejaVuSans-6e" transform="translate(267.671875 0)"/>
     <use xlink:href="#DejaVuSans-67" transform="translate(331.050781 0)"/>
     <use xlink:href="#DejaVuSans-20" transform="translate(394.527344 0)"/>
     <use xlink:href="#DejaVuSans-63" transform="translate(426.314453 0)"/>
     <use xlink:href="#DejaVuSans-6f" transform="translate(481.294922 0)"/>
     <use xlink:href="#DejaVuSans-6e" transform="translate(542.476562 0)"/>
     <use xlink:href="#DejaVuSans-76" transform="translate(605.855469 0)"/>
     <use xlink:href="#DejaVuSans-65" transform="translate(665.035156 0)"/>
     <use xlink:href="#DejaVuSans-72" transform="translate(726.558594 0)"/>
     <use xlink:href="#DejaVuSans-67" transform="translate(765.921875 0)"/>
     <use xlink:href="#DejaVuSans-65" transform="translate(829.398438 0)"/>
     <use xlink:href="#DejaVuSans-6e" transform="translate(890.921875 0)"/>
     <use xlink:href="#DejaVuSans-63" transform="translate(954.300781 0)"/>
     <use xlink:href="#DejaVuSans-65" transform="translate(1009.28125 0)"/>
     <use xlink:href="#DejaVuSans-3a" transform="translate(1070.804688 0)"/>
     <use xlink:href="#DejaVuSans-20" transform="translate(1104.496094 0)"/>
     <use xlink:href="#DejaVuSans-69" transform="translate(1136.283203 0)"/>
     <use xlink:href="#DejaVuSans-6e" transform="translate(1164.066406 0)"/>
     <use xlink:href="#DejaVuSans-64" transform="translate(1227.445312 0)"/>
     <use xlink:href="#DejaVuSans-69" transform="translate(1290.921875 0)"/>
     <use xlink:href="#DejaVuSans-76" transform="translate(1318.705078 0)"/>
     <use xlink:href="#DejaVuSans-69" transform="translate(1377.884766 0)"/>
     <use xlink:href="#DejaVuSans-64" transform="translate(1405.667969 0)"/>
     <use xlink:href="#DejaVuSans-75" transform="translate(1469.144531 0)"/>
     <use xlink:href="#DejaVuSans-61" transform="translate(1532.523438 0)"/>
     <use xlink:href="#DejaVuSans-6c" transform="translate(1593.802734 0)"/>
     <use xlink:href="#DejaVuSans-20" transform="translate(1621.585938 0)"/>
     <use xlink:href="#DejaVuSans-6c" transform="translate(1653.373047 0)"/>
     <use xlink:href="#DejaVuSans-6f" transform="translate(1681.15625 0)"/>
     <use xlink:href="#DejaVuSans-73" transform="translate(1742.337891 0)"/>
     <use xlink:href="#DejaVuSans-73" transform="translate(1794.4375 0)"/>
     <use xlink:href="#DejaVuSans-65" transform="translate(1846.537109 0)"/>
     <use xlink:href="#DejaVuSans-73" transform="translate(1908.060547 0)"/>
     <use xlink:href="#DejaVuSans-20" transform="translate(1960.160156 0)"/>
     <use xlink:href="#DejaVuSans-28" transform="translate(1991.947266 0)"/>
     <use xlink:href="#DejaVuSans-6c" transform="translate(2030.960938 0)"/>
     <use xlink:href="#DejaVuSans-6f" transform="translate(2058.744141 0)"/>
     <use xlink:href="#DejaVuSans-67" transform="translate(2119.925781 0)"/>
     <use xlink:href="#DejaVuSans-20" transform="translate(2183.402344 0)"/>
     <use xlink:href="#DejaVuSans-73" transform="translate(2215.189453 0)"/>
     <use xlink:href="#DejaVuSans-63" transform="translate(2267.289062 0)"/>
     <use xlink:href="#DejaVuSans-61" transform="translate(2322.269531 0)"/>
     <use xlink:href="#DejaVuSans-6c" transform="translate(2383.548828 0)"/>
     <use xlink:href="#DejaVuSans-65" transform="translate(2411.332031 0)"/>
     <use xlink:href="#DejaVuSans-29" transform="translate(2472.855469 0)"/>
    </g>
   </g>
   <g id="legend_1">
    <g id="patch_11">
     <path d="M 555.85827 157.15048 
L 712.79952 157.15048 
Q 715.19952 157.15048 715.19952 154.75048 
L 715.19952 50.26798 
Q 715.19952 47.86798 712.79952 47.86798 
L 555.85827 47.86798 
Q 553.45827 47.86798 553.45827 50.26798 
L 553.45827 154.75048 
Q 553.45827 157.15048 555.85827 157.15048 
z
" style="fill: #ffffff; opacity: 0.8; stroke: #cccccc; stroke-linejoin: miter"/>
    </g>
    <g id="line2d_76">
     <path d="M 558.25827 57.586105 
L 570.25827 57.586105 
L 582.25827 57.586105 
" style="fill: none; stroke: #e24a33; stroke-width: 2; stroke-linecap: square"/>
    </g>
    <g id="text_18">
     <!-- Train q loss -->
     <g transform="translate(591.85827 61.786105) scale(0.12 -0.12)">
      <defs>
       <path id="DejaVuSans-71" d="M 947 1747 
Q 947 1113 1208 752 
Q 1469 391 1925 391 
Q 2381 391 2643 752 
Q 2906 1113 2906 1747 
Q 2906 2381 2643 2742 
Q 2381 3103 1925 3103 
Q 1469 3103 1208 2742 
Q 947 2381 947 1747 
z
M 2906 525 
Q 2725 213 2448 61 
Q 2172 -91 1784 -91 
Q 1150 -91 751 415 
Q 353 922 353 1747 
Q 353 2572 751 3078 
Q 1150 3584 1784 3584 
Q 2172 3584 2448 3432 
Q 2725 3281 2906 2969 
L 2906 3500 
L 3481 3500 
L 3481 -1331 
L 2906 -1331 
L 2906 525 
z
" transform="scale(0.015625)"/>
      </defs>
      <use xlink:href="#DejaVuSans-54"/>
      <use xlink:href="#DejaVuSans-72" transform="translate(46.333984 0)"/>
      <use xlink:href="#DejaVuSans-61" transform="translate(87.447266 0)"/>
      <use xlink:href="#DejaVuSans-69" transform="translate(148.726562 0)"/>
      <use xlink:href="#DejaVuSans-6e" transform="translate(176.509766 0)"/>
      <use xlink:href="#DejaVuSans-20" transform="translate(239.888672 0)"/>
      <use xlink:href="#DejaVuSans-71" transform="translate(271.675781 0)"/>
      <use xlink:href="#DejaVuSans-20" transform="translate(335.152344 0)"/>
      <use xlink:href="#DejaVuSans-6c" transform="translate(366.939453 0)"/>
      <use xlink:href="#DejaVuSans-6f" transform="translate(394.722656 0)"/>
      <use xlink:href="#DejaVuSans-73" transform="translate(455.904297 0)"/>
      <use xlink:href="#DejaVuSans-73" transform="translate(508.003906 0)"/>
     </g>
    </g>
    <g id="line2d_77">
     <path d="M 558.25827 75.199855 
L 570.25827 75.199855 
L 582.25827 75.199855 
" style="fill: none; stroke: #348abd; stroke-width: 2; stroke-linecap: square"/>
    </g>
    <g id="text_19">
     <!-- Train omega loss -->
     <g transform="translate(591.85827 79.399855) scale(0.12 -0.12)">
      <defs>
       <path id="DejaVuSans-6d" d="M 3328 2828 
Q 3544 3216 3844 3400 
Q 4144 3584 4550 3584 
Q 5097 3584 5394 3201 
Q 5691 2819 5691 2113 
L 5691 0 
L 5113 0 
L 5113 2094 
Q 5113 2597 4934 2840 
Q 4756 3084 4391 3084 
Q 3944 3084 3684 2787 
Q 3425 2491 3425 1978 
L 3425 0 
L 2847 0 
L 2847 2094 
Q 2847 2600 2669 2842 
Q 2491 3084 2119 3084 
Q 1678 3084 1418 2786 
Q 1159 2488 1159 1978 
L 1159 0 
L 581 0 
L 581 3500 
L 1159 3500 
L 1159 2956 
Q 1356 3278 1631 3431 
Q 1906 3584 2284 3584 
Q 2666 3584 2933 3390 
Q 3200 3197 3328 2828 
z
" transform="scale(0.015625)"/>
      </defs>
      <use xlink:href="#DejaVuSans-54"/>
      <use xlink:href="#DejaVuSans-72" transform="translate(46.333984 0)"/>
      <use xlink:href="#DejaVuSans-61" transform="translate(87.447266 0)"/>
      <use xlink:href="#DejaVuSans-69" transform="translate(148.726562 0)"/>
      <use xlink:href="#DejaVuSans-6e" transform="translate(176.509766 0)"/>
      <use xlink:href="#DejaVuSans-20" transform="translate(239.888672 0)"/>
      <use xlink:href="#DejaVuSans-6f" transform="translate(271.675781 0)"/>
      <use xlink:href="#DejaVuSans-6d" transform="translate(332.857422 0)"/>
      <use xlink:href="#DejaVuSans-65" transform="translate(430.269531 0)"/>
      <use xlink:href="#DejaVuSans-67" transform="translate(491.792969 0)"/>
      <use xlink:href="#DejaVuSans-61" transform="translate(555.269531 0)"/>
      <use xlink:href="#DejaVuSans-20" transform="translate(616.548828 0)"/>
      <use xlink:href="#DejaVuSans-6c" transform="translate(648.335938 0)"/>
      <use xlink:href="#DejaVuSans-6f" transform="translate(676.119141 0)"/>
      <use xlink:href="#DejaVuSans-73" transform="translate(737.300781 0)"/>
      <use xlink:href="#DejaVuSans-73" transform="translate(789.400391 0)"/>
     </g>
    </g>
    <g id="line2d_78">
     <path d="M 558.25827 92.813605 
L 570.25827 92.813605 
L 582.25827 92.813605 
" style="fill: none; stroke: #988ed5; stroke-width: 2; stroke-linecap: square"/>
    </g>
    <g id="text_20">
     <!-- Train unity loss -->
     <g transform="translate(591.85827 97.013605) scale(0.12 -0.12)">
      <defs>
       <path id="DejaVuSans-74" d="M 1172 4494 
L 1172 3500 
L 2356 3500 
L 2356 3053 
L 1172 3053 
L 1172 1153 
Q 1172 725 1289 603 
Q 1406 481 1766 481 
L 2356 481 
L 2356 0 
L 1766 0 
Q 1100 0 847 248 
Q 594 497 594 1153 
L 594 3053 
L 172 3053 
L 172 3500 
L 594 3500 
L 594 4494 
L 1172 4494 
z
" transform="scale(0.015625)"/>
       <path id="DejaVuSans-79" d="M 2059 -325 
Q 1816 -950 1584 -1140 
Q 1353 -1331 966 -1331 
L 506 -1331 
L 506 -850 
L 844 -850 
Q 1081 -850 1212 -737 
Q 1344 -625 1503 -206 
L 1606 56 
L 191 3500 
L 800 3500 
L 1894 763 
L 2988 3500 
L 3597 3500 
L 2059 -325 
z
" transform="scale(0.015625)"/>
      </defs>
      <use xlink:href="#DejaVuSans-54"/>
      <use xlink:href="#DejaVuSans-72" transform="translate(46.333984 0)"/>
      <use xlink:href="#DejaVuSans-61" transform="translate(87.447266 0)"/>
      <use xlink:href="#DejaVuSans-69" transform="translate(148.726562 0)"/>
      <use xlink:href="#DejaVuSans-6e" transform="translate(176.509766 0)"/>
      <use xlink:href="#DejaVuSans-20" transform="translate(239.888672 0)"/>
      <use xlink:href="#DejaVuSans-75" transform="translate(271.675781 0)"/>
      <use xlink:href="#DejaVuSans-6e" transform="translate(335.054688 0)"/>
      <use xlink:href="#DejaVuSans-69" transform="translate(398.433594 0)"/>
      <use xlink:href="#DejaVuSans-74" transform="translate(426.216797 0)"/>
      <use xlink:href="#DejaVuSans-79" transform="translate(465.425781 0)"/>
      <use xlink:href="#DejaVuSans-20" transform="translate(524.605469 0)"/>
      <use xlink:href="#DejaVuSans-6c" transform="translate(556.392578 0)"/>
      <use xlink:href="#DejaVuSans-6f" transform="translate(584.175781 0)"/>
      <use xlink:href="#DejaVuSans-73" transform="translate(645.357422 0)"/>
      <use xlink:href="#DejaVuSans-73" transform="translate(697.457031 0)"/>
     </g>
    </g>
    <g id="line2d_79">
     <path d="M 558.25827 110.427355 
L 570.25827 110.427355 
L 582.25827 110.427355 
" style="fill: none; stroke: #8eba42; stroke-width: 2; stroke-linecap: square"/>
    </g>
    <g id="text_21">
     <!-- Train kinematic loss -->
     <g transform="translate(591.85827 114.627355) scale(0.12 -0.12)">
      <defs>
       <path id="DejaVuSans-6b" d="M 581 4863 
L 1159 4863 
L 1159 1991 
L 2875 3500 
L 3609 3500 
L 1753 1863 
L 3688 0 
L 2938 0 
L 1159 1709 
L 1159 0 
L 581 0 
L 581 4863 
z
" transform="scale(0.015625)"/>
      </defs>
      <use xlink:href="#DejaVuSans-54"/>
      <use xlink:href="#DejaVuSans-72" transform="translate(46.333984 0)"/>
      <use xlink:href="#DejaVuSans-61" transform="translate(87.447266 0)"/>
      <use xlink:href="#DejaVuSans-69" transform="translate(148.726562 0)"/>
      <use xlink:href="#DejaVuSans-6e" transform="translate(176.509766 0)"/>
      <use xlink:href="#DejaVuSans-20" transform="translate(239.888672 0)"/>
      <use xlink:href="#DejaVuSans-6b" transform="translate(271.675781 0)"/>
      <use xlink:href="#DejaVuSans-69" transform="translate(329.585938 0)"/>
      <use xlink:href="#DejaVuSans-6e" transform="translate(357.369141 0)"/>
      <use xlink:href="#DejaVuSans-65" transform="translate(420.748047 0)"/>
      <use xlink:href="#DejaVuSans-6d" transform="translate(482.271484 0)"/>
      <use xlink:href="#DejaVuSans-61" transform="translate(579.683594 0)"/>
      <use xlink:href="#DejaVuSans-74" transform="translate(640.962891 0)"/>
      <use xlink:href="#DejaVuSans-69" transform="translate(680.171875 0)"/>
      <use xlink:href="#DejaVuSans-63" transform="translate(707.955078 0)"/>
      <use xlink:href="#DejaVuSans-20" transform="translate(762.935547 0)"/>
      <use xlink:href="#DejaVuSans-6c" transform="translate(794.722656 0)"/>
      <use xlink:href="#DejaVuSans-6f" transform="translate(822.505859 0)"/>
      <use xlink:href="#DejaVuSans-73" transform="translate(883.6875 0)"/>
      <use xlink:href="#DejaVuSans-73" transform="translate(935.787109 0)"/>
     </g>
    </g>
    <g id="line2d_80">
     <path d="M 558.25827 128.041105 
L 570.25827 128.041105 
L 582.25827 128.041105 
" style="fill: none; stroke: #222222; stroke-width: 2.2; stroke-linecap: square"/>
    </g>
    <g id="text_22">
     <!-- Train total loss -->
     <g transform="translate(591.85827 132.241105) scale(0.12 -0.12)">
      <use xlink:href="#DejaVuSans-54"/>
      <use xlink:href="#DejaVuSans-72" transform="translate(46.333984 0)"/>
      <use xlink:href="#DejaVuSans-61" transform="translate(87.447266 0)"/>
      <use xlink:href="#DejaVuSans-69" transform="translate(148.726562 0)"/>
      <use xlink:href="#DejaVuSans-6e" transform="translate(176.509766 0)"/>
      <use xlink:href="#DejaVuSans-20" transform="translate(239.888672 0)"/>
      <use xlink:href="#DejaVuSans-74" transform="translate(271.675781 0)"/>
      <use xlink:href="#DejaVuSans-6f" transform="translate(310.884766 0)"/>
      <use xlink:href="#DejaVuSans-74" transform="translate(372.066406 0)"/>
      <use xlink:href="#DejaVuSans-61" transform="translate(411.275391 0)"/>
      <use xlink:href="#DejaVuSans-6c" transform="translate(472.554688 0)"/>
      <use xlink:href="#DejaVuSans-20" transform="translate(500.337891 0)"/>
      <use xlink:href="#DejaVuSans-6c" transform="translate(532.125 0)"/>
      <use xlink:href="#DejaVuSans-6f" transform="translate(559.908203 0)"/>
      <use xlink:href="#DejaVuSans-73" transform="translate(621.089844 0)"/>
      <use xlink:href="#DejaVuSans-73" transform="translate(673.189453 0)"/>
     </g>
    </g>
    <g id="line2d_81">
     <path d="M 558.25827 145.654855 
L 570.25827 145.654855 
L 582.25827 145.654855 
" style="fill: none; stroke: #ffb547; stroke-width: 2.2; stroke-linecap: square"/>
    </g>
    <g id="text_23">
     <!-- Val total loss -->
     <g transform="translate(591.85827 149.854855) scale(0.12 -0.12)">
      <defs>
       <path id="DejaVuSans-56" d="M 1831 0 
L 50 4666 
L 709 4666 
L 2188 738 
L 3669 4666 
L 4325 4666 
L 2547 0 
L 1831 0 
z
" transform="scale(0.015625)"/>
      </defs>
      <use xlink:href="#DejaVuSans-56"/>
      <use xlink:href="#DejaVuSans-61" transform="translate(60.658203 0)"/>
      <use xlink:href="#DejaVuSans-6c" transform="translate(121.9375 0)"/>
      <use xlink:href="#DejaVuSans-20" transform="translate(149.720703 0)"/>
      <use xlink:href="#DejaVuSans-74" transform="translate(181.507812 0)"/>
      <use xlink:href="#DejaVuSans-6f" transform="translate(220.716797 0)"/>
      <use xlink:href="#DejaVuSans-74" transform="translate(281.898438 0)"/>
      <use xlink:href="#DejaVuSans-61" transform="translate(321.107422 0)"/>
      <use xlink:href="#DejaVuSans-6c" transform="translate(382.386719 0)"/>
      <use xlink:href="#DejaVuSans-20" transform="translate(410.169922 0)"/>
      <use xlink:href="#DejaVuSans-6c" transform="translate(441.957031 0)"/>
      <use xlink:href="#DejaVuSans-6f" transform="translate(469.740234 0)"/>
      <use xlink:href="#DejaVuSans-73" transform="translate(530.921875 0)"/>
      <use xlink:href="#DejaVuSans-73" transform="translate(583.021484 0)"/>
     </g>
    </g>
   </g>
  </g>
  <g id="text_24">
   <!-- Training convergence with curriculum phases -->
   <g style="fill: #0b2545" transform="translate(205.600541 17.837812) scale(0.14 -0.14)">
    <defs>
     <path id="DejaVuSans-77" d="M 269 3500 
L 844 3500 
L 1563 769 
L 2278 3500 
L 2956 3500 
L 3675 769 
L 4391 3500 
L 4966 3500 
L 4050 0 
L 3372 0 
L 2619 2869 
L 1863 0 
L 1184 0 
L 269 3500 
z
" transform="scale(0.015625)"/>
    </defs>
    <use xlink:href="#DejaVuSans-54"/>
    <use xlink:href="#DejaVuSans-72" transform="translate(46.333984 0)"/>
    <use xlink:href="#DejaVuSans-61" transform="translate(87.447266 0)"/>
    <use xlink:href="#DejaVuSans-69" transform="translate(148.726562 0)"/>
    <use xlink:href="#DejaVuSans-6e" transform="translate(176.509766 0)"/>
    <use xlink:href="#DejaVuSans-69" transform="translate(239.888672 0)"/>
    <use xlink:href="#DejaVuSans-6e" transform="translate(267.671875 0)"/>
    <use xlink:href="#DejaVuSans-67" transform="translate(331.050781 0)"/>
    <use xlink:href="#DejaVuSans-20" transform="translate(394.527344 0)"/>
    <use xlink:href="#DejaVuSans-63" transform="translate(426.314453 0)"/>
    <use xlink:href="#DejaVuSans-6f" transform="translate(481.294922 0)"/>
    <use xlink:href="#DejaVuSans-6e" transform="translate(542.476562 0)"/>
    <use xlink:href="#DejaVuSans-76" transform="translate(605.855469 0)"/>
    <use xlink:href="#DejaVuSans-65" transform="translate(665.035156 0)"/>
    <use xlink:href="#DejaVuSans-72" transform="translate(726.558594 0)"/>
    <use xlink:href="#DejaVuSans-67" transform="translate(765.921875 0)"/>
    <use xlink:href="#DejaVuSans-65" transform="translate(829.398438 0)"/>
    <use xlink:href="#DejaVuSans-6e" transform="translate(890.921875 0)"/>
    <use xlink:href="#DejaVuSans-63" transform="translate(954.300781 0)"/>
    <use xlink:href="#DejaVuSans-65" transform="translate(1009.28125 0)"/>
    <use xlink:href="#DejaVuSans-20" transform="translate(1070.804688 0)"/>
    <use xlink:href="#DejaVuSans-77" transform="translate(1102.591797 0)"/>
    <use xlink:href="#DejaVuSans-69" transform="translate(1184.378906 0)"/>
    <use xlink:href="#DejaVuSans-74" transform="translate(1212.162109 0)"/>
    <use xlink:href="#DejaVuSans-68" transform="translate(1251.371094 0)"/>
    <use xlink:href="#DejaVuSans-20" transform="translate(1314.75 0)"/>
    <use xlink:href="#DejaVuSans-63" transform="translate(1346.537109 0)"/>
    <use xlink:href="#DejaVuSans-75" transform="translate(1401.517578 0)"/>
    <use xlink:href="#DejaVuSans-72" transform="translate(1464.896484 0)"/>
    <use xlink:href="#DejaVuSans-72" transform="translate(1504.259766 0)"/>
    <use xlink:href="#DejaVuSans-69" transform="translate(1545.373047 0)"/>
    <use xlink:href="#DejaVuSans-63" transform="translate(1573.15625 0)"/>
    <use xlink:href="#DejaVuSans-75" transform="translate(1628.136719 0)"/>
    <use xlink:href="#DejaVuSans-6c" transform="translate(1691.515625 0)"/>
    <use xlink:href="#DejaVuSans-75" transform="translate(1719.298828 0)"/>
    <use xlink:href="#DejaVuSans-6d" transform="translate(1782.677734 0)"/>
    <use xlink:href="#DejaVuSans-20" transform="translate(1880.089844 0)"/>
    <use xlink:href="#DejaVuSans-70" transform="translate(1911.876953 0)"/>
    <use xlink:href="#DejaVuSans-68" transform="translate(1975.353516 0)"/>
    <use xlink:href="#DejaVuSans-61" transform="translate(2038.732422 0)"/>
    <use xlink:href="#DejaVuSans-73" transform="translate(2100.011719 0)"/>
    <use xlink:href="#DejaVuSans-65" transform="translate(2152.111328 0)"/>
    <use xlink:href="#DejaVuSans-73" transform="translate(2213.634766 0)"/>
   </g>
  </g>
 </g>
 <defs>
  <clipPath id="p3718d3e616">
   <rect x="58.01375" y="41.86798" width="663.18577" height="357.10404"/>
  </clipPath>
 </defs>
</svg>
