<?xml version="1.0" encoding="utf-8" standalone="no"?>
<!DOCTYPE svg PUBLIC "-//W3C//DTD SVG 1.1//EN"
  "http://www.w3.org/Graphics/SVG/1.1/DTD/svg11.dtd">
<svg xmlns:xlink="http://www.w3.org/1999/xlink" width="856.710312pt" height="567.034375pt" viewBox="0 0 856.710312 567.034375" xmlns="http://www.w3.org/2000/svg" version="1.1">
 <metadata>
  <rdf:RDF xmlns:dc="http://purl.org/dc/elements/1.1/" xmlns:cc="http://creativecommons.org/ns#" xmlns:rdf="http://www.w3.org/1999/02/22-rdf-syntax-ns#">
   <cc:Work>
    <dc:type rdf:resource="http://purl.org/dc/dcmitype/StillImage"/>
    <dc:date>2026-03-04T20:18:43.692931</dc:date>
    <dc:format>image/svg+xml</dc:format>
    <dc:creator>
     <cc:Agent>
      <dc:title>Matplotlib v3.10.8, https://matplotlib.org/</dc:title>
     </cc:Agent>
    </dc:creator>
   </cc:Work>
  </rdf:RDF>
 </metadata>
 <defs>
  <style type="text/css">*{stroke-linejoin: round; stroke-linecap: butt}</style>
 </defs>
 <g id="figure_1">
  <g id="patch_1">
   <path d="M 0 567.034375 
L 856.710312 567.034375 
L 856.710312 0 
L 0 0 
z
" style="fill: #ffffff"/>
  </g>
  <g id="axes_1">
   <g id="patch_2">
    <path d="M 58.801563 181.838125 
L 849.510313 181.838125 
L 849.510313 22.318125 
L 58.801563 22.318125 
z
" style="fill: #ffffff"/>
   </g>
   <g id="matplotlib.axis_1">
    <g id="xtick_1">
     <g id="line2d_1">
      <path d="M 94.742869 181.838125 
L 94.742869 22.318125 
" clip-path="url(#p3d1bdcf7e2)" style="fill: none; stroke: #b0b0b0; stroke-width: 0.8; stroke-linecap: square"/>
     </g>
     <g id="line2d_2">
      <defs>
       <path id="mc7de9bf658" d="M 0 0 
L 0 3.5 
" style="stroke: #000000; stroke-width: 0.8"/>
      </defs>
      <g>
       <use xlink:href="#mc7de9bf658" x="94.742869" y="181.838125" style="stroke: #000000; stroke-width: 0.8"/>
      </g>
     </g>
    </g>
    <g id="xtick_2">
     <g id="line2d_3">
      <path d="M 185.04766 181.838125 
L 185.04766 22.318125 
" clip-path="url(#p3d1bdcf7e2)" style="fill: none; stroke: #b0b0b0; stroke-width: 0.8; stroke-linecap: square"/>
     </g>
     <g id="line2d_4">
      <g>
       <use xlink:href="#mc7de9bf658" x="185.04766" y="181.838125" style="stroke: #000000; stroke-width: 0.8"/>
      </g>
     </g>
    </g>
    <g id="xtick_3">
     <g id="line2d_5">
      <path d="M 275.352451 181.838125 
L 275.352451 22.318125 
" clip-path="url(#p3d1bdcf7e2)" style="fill: none; stroke: #b0b0b0; stroke-width: 0.8; stroke-linecap: square"/>
     </g>
     <g id="line2d_6">
      <g>
       <use xlink:href="#mc7de9bf658" x="275.352451" y="181.838125" style="stroke: #000000; stroke-width: 0.8"/>
      </g>
     </g>
    </g>
    <g id="xtick_4">
     <g id="line2d_7">
      <path d="M 365.657242 181.838125 
L 365.657242 22.318125 
" clip-path="url(#p3d1bdcf7e2)" style="fill: none; stroke: #b0b0b0; stroke-width: 0.8; stroke-linecap: square"/>
     </g>
     <g id="line2d_8">
      <g>
       <use xlink:href="#mc7de9bf658" x="365.657242" y="181.838125" style="stroke: #000000; stroke-width: 0.8"/>
      </g>
     </g>
    </g>
    <g id="xtick_5">
     <g id="line2d_9">
      <path d="M 455.962033 181.838125 
L 455.962033 22.318125 
" clip-path="url(#p3d1bdcf7e2)" style="fill: none; stroke: #b0b0b0; stroke-width: 0.8; stroke-linecap: square"/>
     </g>
     <g id="line2d_10">
      <g>
       <use xlink:href="#mc7de9bf658" x="455.962033" y="181.838125" style="stroke: #000000; stroke-width: 0.8"/>
      </g>
     </g>
    </g>
    <g id="xtick_6">
     <g id="line2d_11">
      <path d="M 546.266824 181.838125 
L 546.266824 22.318125 
" clip-path="url(#p3d1bdcf7e2)" style="fill: none; stroke: #b0b0b0; stroke-width: 0.8; stroke-linecap: square"/>
     </g>
     <g id="line2d_12">
      <g>
       <use xlink:href="#mc7de9bf658" x="546.266824" y="181.838125" style="stroke: #000000; stroke-width: 0.8"/>
      </g>
     </g>
    </g>
    <g id="xtick_7">
     <g id="line2d_13">
      <path d="M 636.571615 181.838125 
L 636.571615 22.318125 
" clip-path="url(#p3d1bdcf7e2)" style="fill: none; stroke: #b0b0b0; stroke-width: 0.8; stroke-linecap: square"/>
     </g>
     <g id="line2d_14">
      <g>
       <use xlink:href="#mc7de9bf658" x="636.571615" y="181.838125" style="stroke: #000000; stroke-width: 0.8"/>
      </g>
     </g>
    </g>
    <g id="xtick_8">
     <g id="line2d_15">
      <path d="M 726.876406 181.838125 
L 726.876406 22.318125 
" clip-path="url(#p3d1bdcf7e2)" style="fill: none; stroke: #b0b0b0; stroke-width: 0.8; stroke-linecap: square"/>
     </g>
     <g id="line2d_16">
      <g>
       <use xlink:href="#mc7de9bf658" x="726.876406" y="181.838125" style="stroke: #000000; stroke-width: 0.8"/>
      </g>
     </g>
    </g>
    <g id="xtick_9">
     <g id="line2d_17">
      <path d="M 817.181197 181.838125 
L 817.181197 22.318125 
" clip-path="url(#p3d1bdcf7e2)" style="fill: none; stroke: #b0b0b0; stroke-width: 0.8; stroke-linecap: square"/>
     </g>
     <g id="line2d_18">
      <g>
       <use xlink:href="#mc7de9bf658" x="817.181197" y="181.838125" style="stroke: #000000; stroke-width: 0.8"/>
      </g>
     </g>
    </g>
   </g>
   <g id="matplotlib.axis_2">
    <g id="ytick_1">
     <g id="line2d_19">
      <path d="M 58.801563 149.732854 
L 849.510313 149.732854 
" clip-path="url(#p3d1bdcf7e2)" style="fill: none; stroke: #b0b0b0; stroke-width: 0.8; stroke-linecap: square"/>
     </g>
     <g id="line2d_20">
      <defs>
       <path id="m248663dbae" d="M 0 0 
L -3.5 0 
" style="stroke: #000000; stroke-width: 0.8"/>
      </defs>
      <g>
       <use xlink:href="#m248663dbae" x="58.801563" y="149.732854" style="stroke: #000000; stroke-width: 0.8"/>
      </g>
     </g>
     <g id="text_1">
      <!-- −0.35 -->
      <g transform="translate(21.15625 153.532073) scale(0.1 -0.1)">
       <defs>
        <path id="DejaVuSans-2212" d="M 678 2272 
L 4684 2272 
L 4684 1741 
L 678 1741 
L 678 2272 
z
" transform="scale(0.015625)"/>
        <path id="DejaVuSans-30" d="M 2034 4250 
Q 1547 4250 1301 3770 
Q 1056 3291 1056 2328 
Q 1056 1369 1301 889 
Q 1547 409 2034 409 
Q 2525 409 2770 889 
Q 3016 1369 3016 2328 
Q 3016 3291 2770 3770 
Q 2525 4250 2034 4250 
z
M 2034 4750 
Q 2819 4750 3233 4129 
Q 3647 3509 3647 2328 
Q 3647 1150 3233 529 
Q 2819 -91 2034 -91 
Q 1250 -91 836 529 
Q 422 1150 422 2328 
Q 422 3509 836 4129 
Q 1250 4750 2034 4750 
z
" transform="scale(0.015625)"/>
        <path id="DejaVuSans-2e" d="M 684 794 
L 1344 794 
L 1344 0 
L 684 0 
L 684 794 
z
" transform="scale(0.015625)"/>
        <path id="DejaVuSans-33" d="M 2597 2516 
Q 3050 2419 3304 2112 
Q 3559 1806 3559 1356 
Q 3559 666 3084 287 
Q 2609 -91 1734 -91 
Q 1441 -91 1130 -33 
Q 819 25 488 141 
L 488 750 
Q 750 597 1062 519 
Q 1375 441 1716 441 
Q 2309 441 2620 675 
Q 2931 909 2931 1356 
Q 2931 1769 2642 2001 
Q 2353 2234 1838 2234 
L 1294 2234 
L 1294 2753 
L 1863 2753 
Q 2328 2753 2575 2939 
Q 2822 3125 2822 3475 
Q 2822 3834 2567 4026 
Q 2313 4219 1838 4219 
Q 1578 4219 1281 4162 
Q 984 4106 628 3988 
L 628 4550 
Q 988 4650 1302 4700 
Q 1616 4750 1894 4750 
Q 2613 4750 3031 4423 
Q 3450 4097 3450 3541 
Q 3450 3153 3228 2886 
Q 3006 2619 2597 2516 
z
" transform="scale(0.015625)"/>
        <path id="DejaVuSans-35" d="M 691 4666 
L 3169 4666 
L 3169 4134 
L 1269 4134 
L 1269 2991 
Q 1406 3038 1543 3061 
Q 1681 3084 1819 3084 
Q 2600 3084 3056 2656 
Q 3513 2228 3513 1497 
Q 3513 744 3044 326 
Q 2575 -91 1722 -91 
Q 1428 -91 1123 -41 
Q 819 9 494 109 
L 494 744 
Q 775 591 1075 516 
Q 1375 441 1709 441 
Q 2250 441 2565 725 
Q 2881 1009 2881 1497 
Q 2881 1984 2565 2268 
Q 2250 2553 1709 2553 
Q 1456 2553 1204 2497 
Q 953 2441 691 2322 
L 691 4666 
z
" transform="scale(0.015625)"/>
       </defs>
       <use xlink:href="#DejaVuSans-2212"/>
       <use xlink:href="#DejaVuSans-30" transform="translate(83.789062 0)"/>
       <use xlink:href="#DejaVuSans-2e" transform="translate(147.412109 0)"/>
       <use xlink:href="#DejaVuSans-33" transform="translate(179.199219 0)"/>
       <use xlink:href="#DejaVuSans-35" transform="translate(242.822266 0)"/>
      </g>
     </g>
    </g>
    <g id="ytick_2">
     <g id="line2d_21">
      <path d="M 58.801563 113.757502 
L 849.510313 113.757502 
" clip-path="url(#p3d1bdcf7e2)" style="fill: none; stroke: #b0b0b0; stroke-width: 0.8; stroke-linecap: square"/>
     </g>
     <g id="line2d_22">
      <g>
       <use xlink:href="#m248663dbae" x="58.801563" y="113.757502" style="stroke: #000000; stroke-width: 0.8"/>
      </g>
     </g>
     <g id="text_2">
      <!-- −0.30 -->
      <g transform="translate(21.15625 117.556721) scale(0.1 -0.1)">
       <use xlink:href="#DejaVuSans-2212"/>
       <use xlink:href="#DejaVuSans-30" transform="translate(83.789062 0)"/>
       <use xlink:href="#DejaVuSans-2e" transform="translate(147.412109 0)"/>
       <use xlink:href="#DejaVuSans-33" transform="translate(179.199219 0)"/>
       <use xlink:href="#DejaVuSans-30" transform="translate(242.822266 0)"/>
      </g>
     </g>
    </g>
    <g id="ytick_3">
     <g id="line2d_23">
      <path d="M 58.801563 77.78215 
L 849.510313 77.78215 
" clip-path="url(#p3d1bdcf7e2)" style="fill: none; stroke: #b0b0b0; stroke-width: 0.8; stroke-linecap: square"/>
     </g>
     <g id="line2d_24">
      <g>
       <use xlink:href="#m248663dbae" x="58.801563" y="77.78215" style="stroke: #000000; stroke-width: 0.8"/>
      </g>
     </g>
     <g id="text_3">
      <!-- −0.25 -->
      <g transform="translate(21.15625 81.581369) scale(0.1 -0.1)">
       <defs>
        <path id="DejaVuSans-32" d="M 1228 531 
L 3431 531 
L 3431 0 
L 469 0 
L 469 531 
Q 828 903 1448 1529 
Q 2069 2156 2228 2338 
Q 2531 2678 2651 2914 
Q 2772 3150 2772 3378 
Q 2772 3750 2511 3984 
Q 2250 4219 1831 4219 
Q 1534 4219 1204 4116 
Q 875 4013 500 3803 
L 500 4441 
Q 881 4594 1212 4672 
Q 1544 4750 1819 4750 
Q 2544 4750 2975 4387 
Q 3406 4025 3406 3419 
Q 3406 3131 3298 2873 
Q 3191 2616 2906 2266 
Q 2828 2175 2409 1742 
Q 1991 1309 1228 531 
z
" transform="scale(0.015625)"/>
       </defs>
       <use xlink:href="#DejaVuSans-2212"/>
       <use xlink:href="#DejaVuSans-30" transform="translate(83.789062 0)"/>
       <use xlink:href="#DejaVuSans-2e" transform="translate(147.412109 0)"/>
       <use xlink:href="#DejaVuSans-32" transform="translate(179.199219 0)"/>
       <use xlink:href="#DejaVuSans-35" transform="translate(242.822266 0)"/>
      </g>
     </g>
    </g>
    <g id="ytick_4">
     <g id="line2d_25">
      <path d="M 58.801563 41.806798 
L 849.510313 41.806798 
" clip-path="url(#p3d1bdcf7e2)" style="fill: none; stroke: #b0b0b0; stroke-width: 0.8; stroke-linecap: square"/>
     </g>
     <g id="line2d_26">
      <g>
       <use xlink:href="#m248663dbae" x="58.801563" y="41.806798" style="stroke: #000000; stroke-width: 0.8"/>
      </g>
     </g>
     <g id="text_4">
      <!-- −0.20 -->
      <g transform="translate(21.15625 45.606017) scale(0.1 -0.1)">
       <use xlink:href="#DejaVuSans-2212"/>
       <use xlink:href="#DejaVuSans-30" transform="translate(83.789062 0)"/>
       <use xlink:href="#DejaVuSans-2e" transform="translate(147.412109 0)"/>
       <use xlink:href="#DejaVuSans-32" transform="translate(179.199219 0)"/>
       <use xlink:href="#DejaVuSans-30" transform="translate(242.822266 0)"/>
      </g>
     </g>
    </g>
    <g id="text_5">
     <!-- r_slow x -->
     <g transform="translate(14.798437 122.324219) rotate(-90) scale(0.1 -0.1)">
      <defs>
       <path id="DejaVuSans-72" d="M 2631 2963 
Q 2534 3019 2420 3045 
Q 2306 3072 2169 3072 
Q 1681 3072 1420 2755 
Q 1159 2438 1159 1844 
L 1159 0 
L 581 0 
L 581 3500 
L 1159 3500 
L 1159 2956 
Q 1341 3275 1631 3429 
Q 1922 3584 2338 3584 
Q 2397 3584 2469 3576 
Q 2541 3569 2628 3553 
L 2631 2963 
z
" transform="scale(0.015625)"/>
       <path id="DejaVuSans-5f" d="M 3263 -1063 
L 3263 -1509 
L -63 -1509 
L -63 -1063 
L 3263 -1063 
z
" transform="scale(0.015625)"/>
       <path id="DejaVuSans-73" d="M 2834 3397 
L 2834 2853 
Q 2591 2978 2328 3040 
Q 2066 3103 1784 3103 
Q 1356 3103 1142 2972 
Q 928 2841 928 2578 
Q 928 2378 1081 2264 
Q 1234 2150 1697 2047 
L 1894 2003 
Q 2506 1872 2764 1633 
Q 3022 1394 3022 966 
Q 3022 478 2636 193 
Q 2250 -91 1575 -91 
Q 1294 -91 989 -36 
Q 684 19 347 128 
L 347 722 
Q 666 556 975 473 
Q 1284 391 1588 391 
Q 1994 391 2212 530 
Q 2431 669 2431 922 
Q 2431 1156 2273 1281 
Q 2116 1406 1581 1522 
L 1381 1569 
Q 847 1681 609 1914 
Q 372 2147 372 2553 
Q 372 3047 722 3315 
Q 1072 3584 1716 3584 
Q 2034 3584 2315 3537 
Q 2597 3491 2834 3397 
z
" transform="scale(0.015625)"/>
       <path id="DejaVuSans-6c" d="M 603 4863 
L 1178 4863 
L 1178 0 
L 603 0 
L 603 4863 
z
" transform="scale(0.015625)"/>
       <path id="DejaVuSans-6f" d="M 1959 3097 
Q 1497 3097 1228 2736 
Q 959 2375 959 1747 
Q 959 1119 1226 758 
Q 1494 397 1959 397 
Q 2419 397 2687 759 
Q 2956 1122 2956 1747 
Q 2956 2369 2687 2733 
Q 2419 3097 1959 3097 
z
M 1959 3584 
Q 2709 3584 3137 3096 
Q 3566 2609 3566 1747 
Q 3566 888 3137 398 
Q 2709 -91 1959 -91 
Q 1206 -91 779 398 
Q 353 888 353 1747 
Q 353 2609 779 3096 
Q 1206 3584 1959 3584 
z
" transform="scale(0.015625)"/>
       <path id="DejaVuSans-77" d="M 269 3500 
L 844 3500 
L 1563 769 
L 2278 3500 
L 2956 3500 
L 3675 769 
L 4391 3500 
L 4966 3500 
L 4050 0 
L 3372 0 
L 2619 2869 
L 1863 0 
L 1184 0 
L 269 3500 
z
" transform="scale(0.015625)"/>
       <path id="DejaVuSans-20" transform="scale(0.015625)"/>
       <path id="DejaVuSans-78" d="M 3513 3500 
L 2247 1797 
L 3578 0 
L 2900 0 
L 1881 1375 
L 863 0 
L 184 0 
L 1544 1831 
L 300 3500 
L 978 3500 
L 1906 2253 
L 2834 3500 
L 3513 3500 
z
" transform="scale(0.015625)"/>
      </defs>
      <use xlink:href="#DejaVuSans-72"/>
      <use xlink:href="#DejaVuSans-5f" transform="translate(41.113281 0)"/>
      <use xlink:href="#DejaVuSans-73" transform="translate(91.113281 0)"/>
      <use xlink:href="#DejaVuSans-6c" transform="translate(143.212891 0)"/>
      <use xlink:href="#DejaVuSans-6f" transform="translate(170.996094 0)"/>
      <use xlink:href="#DejaVuSans-77" transform="translate(232.177734 0)"/>
      <use xlink:href="#DejaVuSans-20" transform="translate(313.964844 0)"/>
      <use xlink:href="#DejaVuSans-78" transform="translate(345.751953 0)"/>
     </g>
    </g>
   </g>
   <g id="line2d_27">
    <path d="M 94.742869 100.026991 
L 105.579444 102.270763 
L 116.416019 104.187251 
L 123.640402 105.320041 
L 141.701361 108.933312 
L 156.150127 111.970624 
L 170.598894 114.937947 
L 195.884235 120.311665 
L 203.108619 121.975769 
L 206.72081 122.968279 
L 235.618343 130.051174 
L 253.679301 134.560118 
L 271.74026 138.803706 
L 278.964643 140.474414 
L 293.41341 143.450571 
L 307.862176 146.321529 
L 318.698751 148.06465 
L 329.535326 149.591219 
L 358.432859 153.183411 
L 365.657242 153.615831 
L 372.881626 153.920514 
L 380.106009 154.002426 
L 387.330392 153.882496 
L 394.554775 153.494206 
L 405.39135 152.748333 
L 416.227925 151.981211 
L 423.452309 151.313584 
L 430.676692 150.724588 
L 437.901075 150.398676 
L 448.73765 149.987914 
L 455.962033 149.688356 
L 459.574225 149.665047 
L 463.186417 149.812425 
L 470.4108 150.533188 
L 481.247375 151.757368 
L 488.471758 152.876155 
L 499.308333 154.889973 
L 510.144908 156.338081 
L 528.205866 158.355909 
L 539.042441 159.230954 
L 546.266824 159.616735 
L 560.715591 160.140758 
L 567.939974 160.163874 
L 589.613124 158.907122 
L 596.837507 158.17137 
L 604.061891 156.927527 
L 611.286274 155.631621 
L 618.510657 154.49703 
L 625.73504 153.048599 
L 632.959424 151.52737 
L 651.020382 148.176261 
L 661.856957 145.605741 
L 669.08134 143.673471 
L 676.305723 141.378236 
L 687.142298 137.586388 
L 694.366682 134.810658 
L 719.652023 124.565995 
L 723.264215 122.98672 
L 730.488598 120.390575 
L 755.773939 112.193417 
L 759.386131 111.329179 
L 762.998323 110.619802 
L 770.222706 109.358054 
L 777.447089 108.121331 
L 781.059281 107.668862 
L 784.671473 107.345845 
L 795.508047 106.894127 
L 802.732431 106.533864 
L 813.569006 106.387987 
L 813.569006 106.387987 
" clip-path="url(#p3d1bdcf7e2)" style="fill: none; stroke: #1f77b4; stroke-width: 2; stroke-linecap: square"/>
   </g>
   <g id="line2d_28">
    <path d="M 94.742869 29.569034 
L 98.355061 79.113802 
L 101.967253 100.379836 
L 105.579444 108.877582 
L 109.191636 110.08971 
L 112.803828 108.616235 
L 116.416019 105.004186 
L 120.028211 103.337552 
L 123.640402 103.21151 
L 127.252594 105.125146 
L 130.864786 106.679097 
L 134.476977 106.807648 
L 138.089169 105.190718 
L 141.701361 104.271801 
L 145.313552 106.202334 
L 148.925744 109.370706 
L 152.537936 110.983089 
L 156.150127 112.218891 
L 159.762319 109.914929 
L 163.37451 107.092432 
L 166.986702 105.937513 
L 170.598894 108.45494 
L 174.211085 111.882923 
L 177.823277 113.889471 
L 181.435469 113.989803 
L 185.04766 113.12921 
L 188.659852 113.189508 
L 192.272044 113.899528 
L 195.884235 114.208542 
L 199.496427 117.596083 
L 203.108619 122.159321 
L 206.72081 124.518992 
L 210.333002 124.442334 
L 213.945193 120.813409 
L 221.169577 114.166428 
L 224.781768 111.984991 
L 228.39396 111.675741 
L 232.006152 115.223203 
L 235.618343 122.590496 
L 239.230535 129.610564 
L 242.842727 131.514765 
L 246.454918 128.868722 
L 250.06711 125.880536 
L 253.679301 124.873724 
L 257.291493 130.213969 
L 260.903685 136.22984 
L 264.515876 139.682761 
L 268.128068 141.174506 
L 271.74026 142.365942 
L 275.352451 140.696392 
L 278.964643 140.613686 
L 282.576835 144.665831 
L 286.189026 147.199362 
L 289.801218 145.924276 
L 293.41341 145.23467 
L 297.025601 145.806919 
L 300.637793 147.420889 
L 304.249984 149.767845 
L 307.862176 152.417061 
L 311.474368 153.534562 
L 315.086559 151.935709 
L 318.698751 150.881422 
L 322.310943 147.17496 
L 325.923134 146.914985 
L 329.535326 150.070169 
L 333.147518 152.69286 
L 336.759709 153.634507 
L 343.984092 151.544868 
L 347.596284 151.168479 
L 351.208476 150.36887 
L 354.820667 150.486849 
L 358.432859 153.034426 
L 362.045051 155.111071 
L 365.657242 156.722297 
L 369.269434 156.976718 
L 372.881626 154.753638 
L 376.493817 151.932986 
L 380.106009 148.770317 
L 383.718201 145.814403 
L 387.330392 143.083403 
L 394.554775 157.700826 
L 398.166967 159.71237 
L 401.779159 157.537816 
L 405.39135 154.627167 
L 409.003542 152.876734 
L 412.615734 157.460278 
L 416.227925 163.723923 
L 419.840117 167.319997 
L 423.452309 167.341461 
L 427.0645 164.448138 
L 430.676692 162.680572 
L 434.288883 164.142619 
L 437.901075 165.393452 
L 441.513267 164.682253 
L 445.125458 163.350343 
L 448.73765 161.891084 
L 452.349842 159.326997 
L 459.574225 160.850842 
L 463.186417 159.145954 
L 466.798608 158.108864 
L 470.4108 155.324107 
L 474.022992 153.877607 
L 477.635183 154.744353 
L 481.247375 157.934833 
L 484.859566 160.752269 
L 488.471758 159.900575 
L 492.08395 157.24735 
L 495.696141 155.575333 
L 499.308333 153.290691 
L 502.920525 154.979626 
L 506.532716 158.972394 
L 510.144908 161.88032 
L 513.7571 163.173246 
L 517.369291 161.389447 
L 520.981483 156.57612 
L 524.593674 152.142419 
L 528.205866 149.421176 
L 531.818058 150.618681 
L 535.430249 153.572001 
L 539.042441 160.320772 
L 542.654633 165.403445 
L 546.266824 167.253738 
L 549.879016 163.876597 
L 553.491208 160.687854 
L 557.103399 160.235429 
L 560.715591 160.857683 
L 564.327783 166.28295 
L 567.939974 173.556752 
L 571.552166 174.587216 
L 575.164357 174.149972 
L 578.776549 171.273589 
L 582.388741 167.530631 
L 586.000932 167.369058 
L 589.613124 169.023749 
L 593.225316 168.374305 
L 596.837507 167.379544 
L 600.449699 166.030223 
L 604.061891 164.889413 
L 611.286274 168.205721 
L 614.898465 167.952608 
L 618.510657 165.939476 
L 625.73504 160.503874 
L 629.347232 159.793789 
L 632.959424 162.22433 
L 636.571615 164.96039 
L 640.183807 163.994962 
L 643.795999 161.152995 
L 647.40819 157.268214 
L 651.020382 154.349331 
L 654.632574 155.233425 
L 658.244765 158.425084 
L 661.856957 160.92645 
L 665.469148 161.404629 
L 669.08134 158.590281 
L 672.693532 153.264552 
L 676.305723 147.247415 
L 679.917915 142.592187 
L 683.530107 142.627697 
L 687.142298 146.44444 
L 690.75449 155.07063 
L 694.366682 155.64127 
L 697.978873 150.067832 
L 701.591065 145.309335 
L 705.203256 143.403461 
L 708.815448 151.034932 
L 712.42764 156.814437 
L 716.039831 156.405005 
L 719.652023 153.083015 
L 723.264215 147.814304 
L 726.876406 143.471242 
L 730.488598 142.762552 
L 734.10079 143.405691 
L 741.325173 140.725276 
L 744.937365 139.766538 
L 748.549556 137.195718 
L 752.161748 135.303289 
L 755.773939 136.890113 
L 759.386131 136.996084 
L 762.998323 135.17654 
L 770.222706 124.593807 
L 773.834898 122.244857 
L 777.447089 123.131825 
L 781.059281 124.646192 
L 784.671473 125.202659 
L 788.283664 124.565974 
L 791.895856 122.755179 
L 795.508047 121.070704 
L 799.120239 120.320821 
L 802.732431 121.648935 
L 806.344622 123.506433 
L 809.956814 123.28705 
L 813.569006 119.76682 
L 813.569006 119.76682 
" clip-path="url(#p3d1bdcf7e2)" style="fill: none; stroke-dasharray: 5.55,2.4; stroke-dashoffset: 0; stroke: #ff7f0e; stroke-width: 1.5"/>
   </g>
   <g id="patch_3">
    <path d="M 58.801563 181.838125 
L 58.801563 22.318125 
" style="fill: none; stroke: #000000; stroke-width: 0.8; stroke-linejoin: miter; stroke-linecap: square"/>
   </g>
   <g id="patch_4">
    <path d="M 849.510313 181.838125 
L 849.510313 22.318125 
" style="fill: none; stroke: #000000; stroke-width: 0.8; stroke-linejoin: miter; stroke-linecap: square"/>
   </g>
   <g id="patch_5">
    <path d="M 58.801562 181.838125 
L 849.510313 181.838125 
" style="fill: none; stroke: #000000; stroke-width: 0.8; stroke-linejoin: miter; stroke-linecap: square"/>
   </g>
   <g id="patch_6">
    <path d="M 58.801562 22.318125 
L 849.510313 22.318125 
" style="fill: none; stroke: #000000; stroke-width: 0.8; stroke-linejoin: miter; stroke-linecap: square"/>
   </g>
   <g id="text_6">
    <!-- GRU: r_slow prediction vs target (validation chunk) -->
    <g transform="translate(301.2225 16.318125) scale(0.12 -0.12)">
     <defs>
      <path id="DejaVuSans-47" d="M 3809 666 
L 3809 1919 
L 2778 1919 
L 2778 2438 
L 4434 2438 
L 4434 434 
Q 4069 175 3628 42 
Q 3188 -91 2688 -91 
Q 1594 -91 976 548 
Q 359 1188 359 2328 
Q 359 3472 976 4111 
Q 1594 4750 2688 4750 
Q 3144 4750 3555 4637 
Q 3966 4525 4313 4306 
L 4313 3634 
Q 3963 3931 3569 4081 
Q 3175 4231 2741 4231 
Q 1884 4231 1454 3753 
Q 1025 3275 1025 2328 
Q 1025 1384 1454 906 
Q 1884 428 2741 428 
Q 3075 428 3337 486 
Q 3600 544 3809 666 
z
" transform="scale(0.015625)"/>
      <path id="DejaVuSans-52" d="M 2841 2188 
Q 3044 2119 3236 1894 
Q 3428 1669 3622 1275 
L 4263 0 
L 3584 0 
L 2988 1197 
Q 2756 1666 2539 1819 
Q 2322 1972 1947 1972 
L 1259 1972 
L 1259 0 
L 628 0 
L 628 4666 
L 2053 4666 
Q 2853 4666 3247 4331 
Q 3641 3997 3641 3322 
Q 3641 2881 3436 2590 
Q 3231 2300 2841 2188 
z
M 1259 4147 
L 1259 2491 
L 2053 2491 
Q 2509 2491 2742 2702 
Q 2975 2913 2975 3322 
Q 2975 3731 2742 3939 
Q 2509 4147 2053 4147 
L 1259 4147 
z
" transform="scale(0.015625)"/>
      <path id="DejaVuSans-55" d="M 556 4666 
L 1191 4666 
L 1191 1831 
Q 1191 1081 1462 751 
Q 1734 422 2344 422 
Q 2950 422 3222 751 
Q 3494 1081 3494 1831 
L 3494 4666 
L 4128 4666 
L 4128 1753 
Q 4128 841 3676 375 
Q 3225 -91 2344 -91 
Q 1459 -91 1007 375 
Q 556 841 556 1753 
L 556 4666 
z
" transform="scale(0.015625)"/>
      <path id="DejaVuSans-3a" d="M 750 794 
L 1409 794 
L 1409 0 
L 750 0 
L 750 794 
z
M 750 3309 
L 1409 3309 
L 1409 2516 
L 750 2516 
L 750 3309 
z
" transform="scale(0.015625)"/>
      <path id="DejaVuSans-70" d="M 1159 525 
L 1159 -1331 
L 581 -1331 
L 581 3500 
L 1159 3500 
L 1159 2969 
Q 1341 3281 1617 3432 
Q 1894 3584 2278 3584 
Q 2916 3584 3314 3078 
Q 3713 2572 3713 1747 
Q 3713 922 3314 415 
Q 2916 -91 2278 -91 
Q 1894 -91 1617 61 
Q 1341 213 1159 525 
z
M 3116 1747 
Q 3116 2381 2855 2742 
Q 2594 3103 2138 3103 
Q 1681 3103 1420 2742 
Q 1159 2381 1159 1747 
Q 1159 1113 1420 752 
Q 1681 391 2138 391 
Q 2594 391 2855 752 
Q 3116 1113 3116 1747 
z
" transform="scale(0.015625)"/>
      <path id="DejaVuSans-65" d="M 3597 1894 
L 3597 1613 
L 953 1613 
Q 991 1019 1311 708 
Q 1631 397 2203 397 
Q 2534 397 2845 478 
Q 3156 559 3463 722 
L 3463 178 
Q 3153 47 2828 -22 
Q 2503 -91 2169 -91 
Q 1331 -91 842 396 
Q 353 884 353 1716 
Q 353 2575 817 3079 
Q 1281 3584 2069 3584 
Q 2775 3584 3186 3129 
Q 3597 2675 3597 1894 
z
M 3022 2063 
Q 3016 2534 2758 2815 
Q 2500 3097 2075 3097 
Q 1594 3097 1305 2825 
Q 1016 2553 972 2059 
L 3022 2063 
z
" transform="scale(0.015625)"/>
      <path id="DejaVuSans-64" d="M 2906 2969 
L 2906 4863 
L 3481 4863 
L 3481 0 
L 2906 0 
L 2906 525 
Q 2725 213 2448 61 
Q 2172 -91 1784 -91 
Q 1150 -91 751 415 
Q 353 922 353 1747 
Q 353 2572 751 3078 
Q 1150 3584 1784 3584 
Q 2172 3584 2448 3432 
Q 2725 3281 2906 2969 
z
M 947 1747 
Q 947 1113 1208 752 
Q 1469 391 1925 391 
Q 2381 391 2643 752 
Q 2906 1113 2906 1747 
Q 2906 2381 2643 2742 
Q 2381 3103 1925 3103 
Q 1469 3103 1208 2742 
Q 947 2381 947 1747 
z
" transform="scale(0.015625)"/>
      <path id="DejaVuSans-69" d="M 603 3500 
L 1178 3500 
L 1178 0 
L 603 0 
L 603 3500 
z
M 603 4863 
L 1178 4863 
L 1178 4134 
L 603 4134 
L 603 4863 
z
" transform="scale(0.015625)"/>
      <path id="DejaVuSans-63" d="M 3122 3366 
L 3122 2828 
Q 2878 2963 2633 3030 
Q 2388 3097 2138 3097 
Q 1578 3097 1268 2742 
Q 959 2388 959 1747 
Q 959 1106 1268 751 
Q 1578 397 2138 397 
Q 2388 397 2633 464 
Q 2878 531 3122 666 
L 3122 134 
Q 2881 22 2623 -34 
Q 2366 -91 2075 -91 
Q 1284 -91 818 406 
Q 353 903 353 1747 
Q 353 2603 823 3093 
Q 1294 3584 2113 3584 
Q 2378 3584 2631 3529 
Q 2884 3475 3122 3366 
z
" transform="scale(0.015625)"/>
      <path id="DejaVuSans-74" d="M 1172 4494 
L 1172 3500 
L 2356 3500 
L 2356 3053 
L 1172 3053 
L 1172 1153 
Q 1172 725 1289 603 
Q 1406 481 1766 481 
L 2356 481 
L 2356 0 
L 1766 0 
Q 1100 0 847 248 
Q 594 497 594 1153 
L 594 3053 
L 172 3053 
L 172 3500 
L 594 3500 
L 594 4494 
L 1172 4494 
z
" transform="scale(0.015625)"/>
      <path id="DejaVuSans-6e" d="M 3513 2113 
L 3513 0 
L 2938 0 
L 2938 2094 
Q 2938 2591 2744 2837 
Q 2550 3084 2163 3084 
Q 1697 3084 1428 2787 
Q 1159 2491 1159 1978 
L 1159 0 
L 581 0 
L 581 3500 
L 1159 3500 
L 1159 2956 
Q 1366 3272 1645 3428 
Q 1925 3584 2291 3584 
Q 2894 3584 3203 3211 
Q 3513 2838 3513 2113 
z
" transform="scale(0.015625)"/>
      <path id="DejaVuSans-76" d="M 191 3500 
L 800 3500 
L 1894 563 
L 2988 3500 
L 3597 3500 
L 2284 0 
L 1503 0 
L 191 3500 
z
" transform="scale(0.015625)"/>
      <path id="DejaVuSans-61" d="M 2194 1759 
Q 1497 1759 1228 1600 
Q 959 1441 959 1056 
Q 959 750 1161 570 
Q 1363 391 1709 391 
Q 2188 391 2477 730 
Q 2766 1069 2766 1631 
L 2766 1759 
L 2194 1759 
z
M 3341 1997 
L 3341 0 
L 2766 0 
L 2766 531 
Q 2569 213 2275 61 
Q 1981 -91 1556 -91 
Q 1019 -91 701 211 
Q 384 513 384 1019 
Q 384 1609 779 1909 
Q 1175 2209 1959 2209 
L 2766 2209 
L 2766 2266 
Q 2766 2663 2505 2880 
Q 2244 3097 1772 3097 
Q 1472 3097 1187 3025 
Q 903 2953 641 2809 
L 641 3341 
Q 956 3463 1253 3523 
Q 1550 3584 1831 3584 
Q 2591 3584 2966 3190 
Q 3341 2797 3341 1997 
z
" transform="scale(0.015625)"/>
      <path id="DejaVuSans-67" d="M 2906 1791 
Q 2906 2416 2648 2759 
Q 2391 3103 1925 3103 
Q 1463 3103 1205 2759 
Q 947 2416 947 1791 
Q 947 1169 1205 825 
Q 1463 481 1925 481 
Q 2391 481 2648 825 
Q 2906 1169 2906 1791 
z
M 3481 434 
Q 3481 -459 3084 -895 
Q 2688 -1331 1869 -1331 
Q 1566 -1331 1297 -1286 
Q 1028 -1241 775 -1147 
L 775 -588 
Q 1028 -725 1275 -790 
Q 1522 -856 1778 -856 
Q 2344 -856 2625 -561 
Q 2906 -266 2906 331 
L 2906 616 
Q 2728 306 2450 153 
Q 2172 0 1784 0 
Q 1141 0 747 490 
Q 353 981 353 1791 
Q 353 2603 747 3093 
Q 1141 3584 1784 3584 
Q 2172 3584 2450 3431 
Q 2728 3278 2906 2969 
L 2906 3500 
L 3481 3500 
L 3481 434 
z
" transform="scale(0.015625)"/>
      <path id="DejaVuSans-28" d="M 1984 4856 
Q 1566 4138 1362 3434 
Q 1159 2731 1159 2009 
Q 1159 1288 1364 580 
Q 1569 -128 1984 -844 
L 1484 -844 
Q 1016 -109 783 600 
Q 550 1309 550 2009 
Q 550 2706 781 3412 
Q 1013 4119 1484 4856 
L 1984 4856 
z
" transform="scale(0.015625)"/>
      <path id="DejaVuSans-68" d="M 3513 2113 
L 3513 0 
L 2938 0 
L 2938 2094 
Q 2938 2591 2744 2837 
Q 2550 3084 2163 3084 
Q 1697 3084 1428 2787 
Q 1159 2491 1159 1978 
L 1159 0 
L 581 0 
L 581 4863 
L 1159 4863 
L 1159 2956 
Q 1366 3272 1645 3428 
Q 1925 3584 2291 3584 
Q 2894 3584 3203 3211 
Q 3513 2838 3513 2113 
z
" transform="scale(0.015625)"/>
      <path id="DejaVuSans-75" d="M 544 1381 
L 544 3500 
L 1119 3500 
L 1119 1403 
Q 1119 906 1312 657 
Q 1506 409 1894 409 
Q 2359 409 2629 706 
Q 2900 1003 2900 1516 
L 2900 3500 
L 3475 3500 
L 3475 0 
L 2900 0 
L 2900 538 
Q 2691 219 2414 64 
Q 2138 -91 1772 -91 
Q 1169 -91 856 284 
Q 544 659 544 1381 
z
M 1991 3584 
L 1991 3584 
z
" transform="scale(0.015625)"/>
      <path id="DejaVuSans-6b" d="M 581 4863 
L 1159 4863 
L 1159 1991 
L 2875 3500 
L 3609 3500 
L 1753 1863 
L 3688 0 
L 2938 0 
L 1159 1709 
L 1159 0 
L 581 0 
L 581 4863 
z
" transform="scale(0.015625)"/>
      <path id="DejaVuSans-29" d="M 513 4856 
L 1013 4856 
Q 1481 4119 1714 3412 
Q 1947 2706 1947 2009 
Q 1947 1309 1714 600 
Q 1481 -109 1013 -844 
L 513 -844 
Q 928 -128 1133 580 
Q 1338 1288 1338 2009 
Q 1338 2731 1133 3434 
Q 928 4138 513 4856 
z
" transform="scale(0.015625)"/>
     </defs>
     <use xlink:href="#DejaVuSans-47"/>
     <use xlink:href="#DejaVuSans-52" transform="translate(77.490234 0)"/>
     <use xlink:href="#DejaVuSans-55" transform="translate(146.972656 0)"/>
     <use xlink:href="#DejaVuSans-3a" transform="translate(220.166016 0)"/>
     <use xlink:href="#DejaVuSans-20" transform="translate(253.857422 0)"/>
     <use xlink:href="#DejaVuSans-72" transform="translate(285.644531 0)"/>
     <use xlink:href="#DejaVuSans-5f" transform="translate(326.757812 0)"/>
     <use xlink:href="#DejaVuSans-73" transform="translate(376.757812 0)"/>
     <use xlink:href="#DejaVuSans-6c" transform="translate(428.857422 0)"/>
     <use xlink:href="#DejaVuSans-6f" transform="translate(456.640625 0)"/>
     <use xlink:href="#DejaVuSans-77" transform="translate(517.822266 0)"/>
     <use xlink:href="#DejaVuSans-20" transform="translate(599.609375 0)"/>
     <use xlink:href="#DejaVuSans-70" transform="translate(631.396484 0)"/>
     <use xlink:href="#DejaVuSans-72" transform="translate(694.873047 0)"/>
     <use xlink:href="#DejaVuSans-65" transform="translate(733.736328 0)"/>
     <use xlink:href="#DejaVuSans-64" transform="translate(795.259766 0)"/>
     <use xlink:href="#DejaVuSans-69" transform="translate(858.736328 0)"/>
     <use xlink:href="#DejaVuSans-63" transform="translate(886.519531 0)"/>
     <use xlink:href="#DejaVuSans-74" transform="translate(941.5 0)"/>
     <use xlink:href="#DejaVuSans-69" transform="translate(980.708984 0)"/>
     <use xlink:href="#DejaVuSans-6f" transform="translate(1008.492188 0)"/>
     <use xlink:href="#DejaVuSans-6e" transform="translate(1069.673828 0)"/>
     <use xlink:href="#DejaVuSans-20" transform="translate(1133.052734 0)"/>
     <use xlink:href="#DejaVuSans-76" transform="translate(1164.839844 0)"/>
     <use xlink:href="#DejaVuSans-73" transform="translate(1224.019531 0)"/>
     <use xlink:href="#DejaVuSans-20" transform="translate(1276.119141 0)"/>
     <use xlink:href="#DejaVuSans-74" transform="translate(1307.90625 0)"/>
     <use xlink:href="#DejaVuSans-61" transform="translate(1347.115234 0)"/>
     <use xlink:href="#DejaVuSans-72" transform="translate(1408.394531 0)"/>
     <use xlink:href="#DejaVuSans-67" transform="translate(1447.757812 0)"/>
     <use xlink:href="#DejaVuSans-65" transform="translate(1511.234375 0)"/>
     <use xlink:href="#DejaVuSans-74" transform="translate(1572.757812 0)"/>
     <use xlink:href="#DejaVuSans-20" transform="translate(1611.966797 0)"/>
     <use xlink:href="#DejaVuSans-28" transform="translate(1643.753906 0)"/>
     <use xlink:href="#DejaVuSans-76" transform="translate(1682.767578 0)"/>
     <use xlink:href="#DejaVuSans-61" transform="translate(1741.947266 0)"/>
     <use xlink:href="#DejaVuSans-6c" transform="translate(1803.226562 0)"/>
     <use xlink:href="#DejaVuSans-69" transform="translate(1831.009766 0)"/>
     <use xlink:href="#DejaVuSans-64" transform="translate(1858.792969 0)"/>
     <use xlink:href="#DejaVuSans-61" transform="translate(1922.269531 0)"/>
     <use xlink:href="#DejaVuSans-74" transform="translate(1983.548828 0)"/>
     <use xlink:href="#DejaVuSans-69" transform="translate(2022.757812 0)"/>
     <use xlink:href="#DejaVuSans-6f" transform="translate(2050.541016 0)"/>
     <use xlink:href="#DejaVuSans-6e" transform="translate(2111.722656 0)"/>
     <use xlink:href="#DejaVuSans-20" transform="translate(2175.101562 0)"/>
     <use xlink:href="#DejaVuSans-63" transform="translate(2206.888672 0)"/>
     <use xlink:href="#DejaVuSans-68" transform="translate(2261.869141 0)"/>
     <use xlink:href="#DejaVuSans-75" transform="translate(2325.248047 0)"/>
     <use xlink:href="#DejaVuSans-6e" transform="translate(2388.626953 0)"/>
     <use xlink:href="#DejaVuSans-6b" transform="translate(2452.005859 0)"/>
     <use xlink:href="#DejaVuSans-29" transform="translate(2509.916016 0)"/>
    </g>
   </g>
   <g id="legend_1">
    <g id="patch_7">
     <path d="M 717.58375 60.230625 
L 842.510313 60.230625 
Q 844.510313 60.230625 844.510313 58.230625 
L 844.510313 29.318125 
Q 844.510313 27.318125 842.510313 27.318125 
L 717.58375 27.318125 
Q 715.58375 27.318125 715.58375 29.318125 
L 715.58375 58.230625 
Q 715.58375 60.230625 717.58375 60.230625 
z
" style="fill: #ffffff; opacity: 0.8; stroke: #cccccc; stroke-linejoin: miter"/>
    </g>
    <g id="line2d_29">
     <path d="M 719.58375 35.416562 
L 729.58375 35.416562 
L 739.58375 35.416562 
" style="fill: none; stroke: #1f77b4; stroke-width: 2; stroke-linecap: square"/>
    </g>
    <g id="text_7">
     <!-- r_slow_x target -->
     <g transform="translate(747.58375 38.916562) scale(0.1 -0.1)">
      <use xlink:href="#DejaVuSans-72"/>
      <use xlink:href="#DejaVuSans-5f" transform="translate(41.113281 0)"/>
      <use xlink:href="#DejaVuSans-73" transform="translate(91.113281 0)"/>
      <use xlink:href="#DejaVuSans-6c" transform="translate(143.212891 0)"/>
      <use xlink:href="#DejaVuSans-6f" transform="translate(170.996094 0)"/>
      <use xlink:href="#DejaVuSans-77" transform="translate(232.177734 0)"/>
      <use xlink:href="#DejaVuSans-5f" transform="translate(313.964844 0)"/>
      <use xlink:href="#DejaVuSans-78" transform="translate(363.964844 0)"/>
      <use xlink:href="#DejaVuSans-20" transform="translate(423.144531 0)"/>
      <use xlink:href="#DejaVuSans-74" transform="translate(454.931641 0)"/>
      <use xlink:href="#DejaVuSans-61" transform="translate(494.140625 0)"/>
      <use xlink:href="#DejaVuSans-72" transform="translate(555.419922 0)"/>
      <use xlink:href="#DejaVuSans-67" transform="translate(594.783203 0)"/>
      <use xlink:href="#DejaVuSans-65" transform="translate(658.259766 0)"/>
      <use xlink:href="#DejaVuSans-74" transform="translate(719.783203 0)"/>
     </g>
    </g>
    <g id="line2d_30">
     <path d="M 719.58375 50.372812 
L 729.58375 50.372812 
L 739.58375 50.372812 
" style="fill: none; stroke-dasharray: 5.55,2.4; stroke-dashoffset: 0; stroke: #ff7f0e; stroke-width: 1.5"/>
    </g>
    <g id="text_8">
     <!-- r_slow_x predicted -->
     <g transform="translate(747.58375 53.872812) scale(0.1 -0.1)">
      <use xlink:href="#DejaVuSans-72"/>
      <use xlink:href="#DejaVuSans-5f" transform="translate(41.113281 0)"/>
      <use xlink:href="#DejaVuSans-73" transform="translate(91.113281 0)"/>
      <use xlink:href="#DejaVuSans-6c" transform="translate(143.212891 0)"/>
      <use xlink:href="#DejaVuSans-6f" transform="translate(170.996094 0)"/>
      <use xlink:href="#DejaVuSans-77" transform="translate(232.177734 0)"/>
      <use xlink:href="#DejaVuSans-5f" transform="translate(313.964844 0)"/>
      <use xlink:href="#DejaVuSans-78" transform="translate(363.964844 0)"/>
      <use xlink:href="#DejaVuSans-20" transform="translate(423.144531 0)"/>
      <use xlink:href="#DejaVuSans-70" transform="translate(454.931641 0)"/>
      <use xlink:href="#DejaVuSans-72" transform="translate(518.408203 0)"/>
      <use xlink:href="#DejaVuSans-65" transform="translate(557.271484 0)"/>
      <use xlink:href="#DejaVuSans-64" transform="translate(618.794922 0)"/>
      <use xlink:href="#DejaVuSans-69" transform="translate(682.271484 0)"/>
      <use xlink:href="#DejaVuSans-63" transform="translate(710.054688 0)"/>
      <use xlink:href="#DejaVuSans-74" transform="translate(765.035156 0)"/>
      <use xlink:href="#DejaVuSans-65" transform="translate(804.244141 0)"/>
      <use xlink:href="#DejaVuSans-64" transform="translate(865.767578 0)"/>
     </g>
    </g>
   </g>
  </g>
  <g id="axes_2">
   <g id="patch_8">
    <path d="M 58.801563 355.658125 
L 849.510313 355.658125 
L 849.510313 196.138125 
L 58.801563 196.138125 
z
" style="fill: #ffffff"/>
   </g>
   <g id="matplotlib.axis_3">
    <g id="xtick_10">
     <g id="line2d_31">
      <path d="M 94.742869 355.658125 
L 94.742869 196.138125 
" clip-path="url(#p0dea10d766)" style="fill: none; stroke: #b0b0b0; stroke-width: 0.8; stroke-linecap: square"/>
     </g>
     <g id="line2d_32">
      <g>
       <use xlink:href="#mc7de9bf658" x="94.742869" y="355.658125" style="stroke: #000000; stroke-width: 0.8"/>
      </g>
     </g>
    </g>
    <g id="xtick_11">
     <g id="line2d_33">
      <path d="M 185.04766 355.658125 
L 185.04766 196.138125 
" clip-path="url(#p0dea10d766)" style="fill: none; stroke: #b0b0b0; stroke-width: 0.8; stroke-linecap: square"/>
     </g>
     <g id="line2d_34">
      <g>
       <use xlink:href="#mc7de9bf658" x="185.04766" y="355.658125" style="stroke: #000000; stroke-width: 0.8"/>
      </g>
     </g>
    </g>
    <g id="xtick_12">
     <g id="line2d_35">
      <path d="M 275.352451 355.658125 
L 275.352451 196.138125 
" clip-path="url(#p0dea10d766)" style="fill: none; stroke: #b0b0b0; stroke-width: 0.8; stroke-linecap: square"/>
     </g>
     <g id="line2d_36">
      <g>
       <use xlink:href="#mc7de9bf658" x="275.352451" y="355.658125" style="stroke: #000000; stroke-width: 0.8"/>
      </g>
     </g>
    </g>
    <g id="xtick_13">
     <g id="line2d_37">
      <path d="M 365.657242 355.658125 
L 365.657242 196.138125 
" clip-path="url(#p0dea10d766)" style="fill: none; stroke: #b0b0b0; stroke-width: 0.8; stroke-linecap: square"/>
     </g>
     <g id="line2d_38">
      <g>
       <use xlink:href="#mc7de9bf658" x="365.657242" y="355.658125" style="stroke: #000000; stroke-width: 0.8"/>
      </g>
     </g>
    </g>
    <g id="xtick_14">
     <g id="line2d_39">
      <path d="M 455.962033 355.658125 
L 455.962033 196.138125 
" clip-path="url(#p0dea10d766)" style="fill: none; stroke: #b0b0b0; stroke-width: 0.8; stroke-linecap: square"/>
     </g>
     <g id="line2d_40">
      <g>
       <use xlink:href="#mc7de9bf658" x="455.962033" y="355.658125" style="stroke: #000000; stroke-width: 0.8"/>
      </g>
     </g>
    </g>
    <g id="xtick_15">
     <g id="line2d_41">
      <path d="M 546.266824 355.658125 
L 546.266824 196.138125 
" clip-path="url(#p0dea10d766)" style="fill: none; stroke: #b0b0b0; stroke-width: 0.8; stroke-linecap: square"/>
     </g>
     <g id="line2d_42">
      <g>
       <use xlink:href="#mc7de9bf658" x="546.266824" y="355.658125" style="stroke: #000000; stroke-width: 0.8"/>
      </g>
     </g>
    </g>
    <g id="xtick_16">
     <g id="line2d_43">
      <path d="M 636.571615 355.658125 
L 636.571615 196.138125 
" clip-path="url(#p0dea10d766)" style="fill: none; stroke: #b0b0b0; stroke-width: 0.8; stroke-linecap: square"/>
     </g>
     <g id="line2d_44">
      <g>
       <use xlink:href="#mc7de9bf658" x="636.571615" y="355.658125" style="stroke: #000000; stroke-width: 0.8"/>
      </g>
     </g>
    </g>
    <g id="xtick_17">
     <g id="line2d_45">
      <path d="M 726.876406 355.658125 
L 726.876406 196.138125 
" clip-path="url(#p0dea10d766)" style="fill: none; stroke: #b0b0b0; stroke-width: 0.8; stroke-linecap: square"/>
     </g>
     <g id="line2d_46">
      <g>
       <use xlink:href="#mc7de9bf658" x="726.876406" y="355.658125" style="stroke: #000000; stroke-width: 0.8"/>
      </g>
     </g>
    </g>
    <g id="xtick_18">
     <g id="line2d_47">
      <path d="M 817.181197 355.658125 
L 817.181197 196.138125 
" clip-path="url(#p0dea10d766)" style="fill: none; stroke: #b0b0b0; stroke-width: 0.8; stroke-linecap: square"/>
     </g>
     <g id="line2d_48">
      <g>
       <use xlink:href="#mc7de9bf658" x="817.181197" y="355.658125" style="stroke: #000000; stroke-width: 0.8"/>
      </g>
     </g>
    </g>
   </g>
   <g id="matplotlib.axis_4">
    <g id="ytick_5">
     <g id="line2d_49">
      <path d="M 58.801563 330.26221 
L 849.510313 330.26221 
" clip-path="url(#p0dea10d766)" style="fill: none; stroke: #b0b0b0; stroke-width: 0.8; stroke-linecap: square"/>
     </g>
     <g id="line2d_50">
      <g>
       <use xlink:href="#m248663dbae" x="58.801563" y="330.26221" style="stroke: #000000; stroke-width: 0.8"/>
      </g>
     </g>
     <g id="text_9">
      <!-- −0.45 -->
      <g transform="translate(21.15625 334.061429) scale(0.1 -0.1)">
       <defs>
        <path id="DejaVuSans-34" d="M 2419 4116 
L 825 1625 
L 2419 1625 
L 2419 4116 
z
M 2253 4666 
L 3047 4666 
L 3047 1625 
L 3713 1625 
L 3713 1100 
L 3047 1100 
L 3047 0 
L 2419 0 
L 2419 1100 
L 313 1100 
L 313 1709 
L 2253 4666 
z
" transform="scale(0.015625)"/>
       </defs>
       <use xlink:href="#DejaVuSans-2212"/>
       <use xlink:href="#DejaVuSans-30" transform="translate(83.789062 0)"/>
       <use xlink:href="#DejaVuSans-2e" transform="translate(147.412109 0)"/>
       <use xlink:href="#DejaVuSans-34" transform="translate(179.199219 0)"/>
       <use xlink:href="#DejaVuSans-35" transform="translate(242.822266 0)"/>
      </g>
     </g>
    </g>
    <g id="ytick_6">
     <g id="line2d_51">
      <path d="M 58.801563 292.867135 
L 849.510313 292.867135 
" clip-path="url(#p0dea10d766)" style="fill: none; stroke: #b0b0b0; stroke-width: 0.8; stroke-linecap: square"/>
     </g>
     <g id="line2d_52">
      <g>
       <use xlink:href="#m248663dbae" x="58.801563" y="292.867135" style="stroke: #000000; stroke-width: 0.8"/>
      </g>
     </g>
     <g id="text_10">
      <!-- −0.40 -->
      <g transform="translate(21.15625 296.666354) scale(0.1 -0.1)">
       <use xlink:href="#DejaVuSans-2212"/>
       <use xlink:href="#DejaVuSans-30" transform="translate(83.789062 0)"/>
       <use xlink:href="#DejaVuSans-2e" transform="translate(147.412109 0)"/>
       <use xlink:href="#DejaVuSans-34" transform="translate(179.199219 0)"/>
       <use xlink:href="#DejaVuSans-30" transform="translate(242.822266 0)"/>
      </g>
     </g>
    </g>
    <g id="ytick_7">
     <g id="line2d_53">
      <path d="M 58.801563 255.47206 
L 849.510313 255.47206 
" clip-path="url(#p0dea10d766)" style="fill: none; stroke: #b0b0b0; stroke-width: 0.8; stroke-linecap: square"/>
     </g>
     <g id="line2d_54">
      <g>
       <use xlink:href="#m248663dbae" x="58.801563" y="255.47206" style="stroke: #000000; stroke-width: 0.8"/>
      </g>
     </g>
     <g id="text_11">
      <!-- −0.35 -->
      <g transform="translate(21.15625 259.271279) scale(0.1 -0.1)">
       <use xlink:href="#DejaVuSans-2212"/>
       <use xlink:href="#DejaVuSans-30" transform="translate(83.789062 0)"/>
       <use xlink:href="#DejaVuSans-2e" transform="translate(147.412109 0)"/>
       <use xlink:href="#DejaVuSans-33" transform="translate(179.199219 0)"/>
       <use xlink:href="#DejaVuSans-35" transform="translate(242.822266 0)"/>
      </g>
     </g>
    </g>
    <g id="ytick_8">
     <g id="line2d_55">
      <path d="M 58.801563 218.076985 
L 849.510313 218.076985 
" clip-path="url(#p0dea10d766)" style="fill: none; stroke: #b0b0b0; stroke-width: 0.8; stroke-linecap: square"/>
     </g>
     <g id="line2d_56">
      <g>
       <use xlink:href="#m248663dbae" x="58.801563" y="218.076985" style="stroke: #000000; stroke-width: 0.8"/>
      </g>
     </g>
     <g id="text_12">
      <!-- −0.30 -->
      <g transform="translate(21.15625 221.876204) scale(0.1 -0.1)">
       <use xlink:href="#DejaVuSans-2212"/>
       <use xlink:href="#DejaVuSans-30" transform="translate(83.789062 0)"/>
       <use xlink:href="#DejaVuSans-2e" transform="translate(147.412109 0)"/>
       <use xlink:href="#DejaVuSans-33" transform="translate(179.199219 0)"/>
       <use xlink:href="#DejaVuSans-30" transform="translate(242.822266 0)"/>
      </g>
     </g>
    </g>
    <g id="text_13">
     <!-- r_slow y -->
     <g transform="translate(14.798437 296.144219) rotate(-90) scale(0.1 -0.1)">
      <defs>
       <path id="DejaVuSans-79" d="M 2059 -325 
Q 1816 -950 1584 -1140 
Q 1353 -1331 966 -1331 
L 506 -1331 
L 506 -850 
L 844 -850 
Q 1081 -850 1212 -737 
Q 1344 -625 1503 -206 
L 1606 56 
L 191 3500 
L 800 3500 
L 1894 763 
L 2988 3500 
L 3597 3500 
L 2059 -325 
z
" transform="scale(0.015625)"/>
      </defs>
      <use xlink:href="#DejaVuSans-72"/>
      <use xlink:href="#DejaVuSans-5f" transform="translate(41.113281 0)"/>
      <use xlink:href="#DejaVuSans-73" transform="translate(91.113281 0)"/>
      <use xlink:href="#DejaVuSans-6c" transform="translate(143.212891 0)"/>
      <use xlink:href="#DejaVuSans-6f" transform="translate(170.996094 0)"/>
      <use xlink:href="#DejaVuSans-77" transform="translate(232.177734 0)"/>
      <use xlink:href="#DejaVuSans-20" transform="translate(313.964844 0)"/>
      <use xlink:href="#DejaVuSans-79" transform="translate(345.751953 0)"/>
     </g>
    </g>
   </g>
   <g id="line2d_57">
    <path d="M 94.742869 271.356232 
L 109.191636 270.329569 
L 120.028211 269.566788 
L 123.640402 269.361861 
L 130.864786 268.619631 
L 138.089169 267.637836 
L 148.925744 265.70086 
L 174.211085 261.049995 
L 185.04766 259.336847 
L 195.884235 257.962918 
L 203.108619 257.200115 
L 210.333002 256.663436 
L 224.781768 256.278925 
L 232.006152 256.208 
L 239.230535 256.302863 
L 246.454918 256.538081 
L 315.086559 260.180003 
L 362.045051 263.54516 
L 365.657242 263.823351 
L 372.881626 264.057477 
L 380.106009 264.360588 
L 398.166967 265.376106 
L 416.227925 267.29505 
L 423.452309 268.299246 
L 434.288883 269.941915 
L 441.513267 270.848662 
L 448.73765 271.597869 
L 452.349842 271.834224 
L 459.574225 271.982848 
L 466.798608 271.869151 
L 474.022992 271.583314 
L 499.308333 269.604903 
L 524.593674 266.569047 
L 531.818058 265.69502 
L 571.552166 261.183106 
L 586.000932 259.962973 
L 593.225316 259.580847 
L 600.449699 259.553944 
L 607.674082 259.844015 
L 611.286274 260.135647 
L 614.898465 260.584686 
L 622.122849 261.782218 
L 629.347232 263.177366 
L 636.571615 265.031292 
L 647.40819 268.165533 
L 658.244765 271.492486 
L 665.469148 273.969307 
L 669.08134 275.087132 
L 676.305723 277.042141 
L 683.530107 279.456373 
L 694.366682 283.204926 
L 705.203256 287.373007 
L 712.42764 290.406077 
L 719.652023 293.76292 
L 726.876406 297.529572 
L 737.712981 303.507202 
L 752.161748 311.7929 
L 766.610514 319.30104 
L 791.895856 332.146062 
L 799.120239 335.518173 
L 813.569006 342.155808 
L 813.569006 342.155808 
" clip-path="url(#p0dea10d766)" style="fill: none; stroke: #1f77b4; stroke-width: 2; stroke-linecap: square"/>
   </g>
   <g id="line2d_58">
    <path d="M 94.742869 203.389034 
L 98.355061 273.302726 
L 101.967253 310.347936 
L 105.579444 318.990931 
L 109.191636 316.724877 
L 112.803828 309.918579 
L 116.416019 300.604702 
L 120.028211 295.390767 
L 123.640402 293.243381 
L 127.252594 292.35558 
L 130.864786 289.197557 
L 134.476977 284.463731 
L 138.089169 277.985286 
L 141.701361 272.653397 
L 145.313552 269.382501 
L 148.925744 267.798185 
L 156.150127 263.57759 
L 159.762319 259.889129 
L 163.37451 257.590443 
L 166.986702 255.442344 
L 170.598894 253.11174 
L 174.211085 252.21148 
L 177.823277 252.773636 
L 181.435469 253.18184 
L 185.04766 252.344546 
L 188.659852 252.127093 
L 192.272044 254.983209 
L 195.884235 260.713517 
L 199.496427 263.383585 
L 203.108619 263.465431 
L 206.72081 263.125565 
L 210.333002 262.912927 
L 213.945193 264.905403 
L 217.557385 266.424925 
L 221.169577 263.554699 
L 224.781768 261.233212 
L 228.39396 261.112182 
L 232.006152 263.025621 
L 235.618343 265.572296 
L 239.230535 266.328747 
L 242.842727 266.201475 
L 246.454918 263.75947 
L 250.06711 262.222273 
L 253.679301 262.562184 
L 257.291493 269.030421 
L 260.903685 274.155243 
L 264.515876 275.839839 
L 268.128068 271.932051 
L 271.74026 267.780509 
L 275.352451 263.915094 
L 278.964643 263.873502 
L 282.576835 266.230496 
L 289.801218 271.380572 
L 293.41341 265.286682 
L 297.025601 253.718987 
L 300.637793 249.647954 
L 304.249984 252.759526 
L 307.862176 256.30799 
L 311.474368 257.030672 
L 315.086559 256.007197 
L 318.698751 253.798315 
L 322.310943 253.220735 
L 325.923134 253.621227 
L 329.535326 252.707013 
L 333.147518 251.282332 
L 336.759709 250.395623 
L 340.371901 250.276978 
L 343.984092 251.196897 
L 347.596284 253.540005 
L 351.208476 257.243445 
L 354.820667 260.306739 
L 358.432859 263.652282 
L 362.045051 266.049574 
L 365.657242 266.951663 
L 369.269434 267.410196 
L 372.881626 268.638844 
L 376.493817 269.414709 
L 380.106009 266.423075 
L 383.718201 264.579535 
L 387.330392 266.156941 
L 390.942584 269.125061 
L 394.554775 273.309279 
L 398.166967 276.329332 
L 401.779159 275.233416 
L 405.39135 270.559817 
L 409.003542 269.902285 
L 412.615734 276.376986 
L 416.227925 282.039736 
L 419.840117 283.010654 
L 423.452309 278.208891 
L 427.0645 274.311624 
L 430.676692 274.396212 
L 434.288883 275.964413 
L 437.901075 278.634236 
L 441.513267 282.358383 
L 445.125458 278.463924 
L 448.73765 266.413624 
L 452.349842 265.807514 
L 455.962033 268.964668 
L 459.574225 270.870996 
L 466.798608 268.547325 
L 470.4108 268.2176 
L 474.022992 269.482713 
L 477.635183 271.409882 
L 481.247375 270.099857 
L 484.859566 267.841515 
L 488.471758 268.303481 
L 492.08395 270.380589 
L 495.696141 272.214812 
L 499.308333 275.991205 
L 502.920525 277.654157 
L 506.532716 278.964094 
L 510.144908 278.331081 
L 513.7571 275.894224 
L 517.369291 275.390199 
L 520.981483 276.076974 
L 524.593674 274.077944 
L 528.205866 271.169671 
L 531.818058 265.389034 
L 535.430249 263.014565 
L 539.042441 266.085103 
L 542.654633 268.312887 
L 546.266824 270.090228 
L 549.879016 267.61675 
L 553.491208 264.036191 
L 557.103399 266.390488 
L 560.715591 270.030894 
L 564.327783 274.904874 
L 567.939974 277.357399 
L 571.552166 273.303974 
L 575.164357 268.377169 
L 578.776549 264.019184 
L 582.388741 264.722119 
L 586.000932 266.624391 
L 589.613124 270.300326 
L 593.225316 277.883759 
L 600.449699 253.590557 
L 604.061891 257.05343 
L 607.674082 262.454036 
L 611.286274 264.585129 
L 614.898465 264.199058 
L 618.510657 261.920344 
L 622.122849 259.332679 
L 625.73504 259.301051 
L 629.347232 259.518014 
L 632.959424 257.16706 
L 636.571615 254.350864 
L 640.183807 256.148488 
L 643.795999 258.681188 
L 647.40819 261.572543 
L 651.020382 265.161639 
L 658.244765 270.917358 
L 661.856957 273.268891 
L 665.469148 274.598598 
L 669.08134 278.046826 
L 672.693532 281.885071 
L 676.305723 281.168095 
L 679.917915 280.975204 
L 683.530107 283.624877 
L 687.142298 284.582979 
L 690.75449 289.420894 
L 694.366682 293.54034 
L 697.978873 292.098808 
L 701.591065 291.606083 
L 705.203256 295.487034 
L 708.815448 302.770365 
L 712.42764 307.745159 
L 716.039831 308.604386 
L 719.652023 304.334711 
L 723.264215 301.94114 
L 726.876406 302.807789 
L 730.488598 305.130792 
L 734.10079 309.652268 
L 737.712981 317.281015 
L 741.325173 316.608638 
L 744.937365 304.566697 
L 748.549556 300.644711 
L 752.161748 304.437308 
L 755.773939 311.116111 
L 759.386131 313.938905 
L 762.998323 312.885049 
L 766.610514 311.27013 
L 770.222706 313.426833 
L 773.834898 316.176362 
L 777.447089 317.610382 
L 788.283664 320.748144 
L 791.895856 322.40869 
L 795.508047 326.359451 
L 799.120239 333.598627 
L 802.732431 339.179486 
L 806.344622 343.1958 
L 809.956814 345.418591 
L 813.569006 348.407216 
L 813.569006 348.407216 
" clip-path="url(#p0dea10d766)" style="fill: none; stroke-dasharray: 5.55,2.4; stroke-dashoffset: 0; stroke: #ff7f0e; stroke-width: 1.5"/>
   </g>
   <g id="patch_9">
    <path d="M 58.801563 355.658125 
L 58.801563 196.138125 
" style="fill: none; stroke: #000000; stroke-width: 0.8; stroke-linejoin: miter; stroke-linecap: square"/>
   </g>
   <g id="patch_10">
    <path d="M 849.510313 355.658125 
L 849.510313 196.138125 
" style="fill: none; stroke: #000000; stroke-width: 0.8; stroke-linejoin: miter; stroke-linecap: square"/>
   </g>
   <g id="patch_11">
    <path d="M 58.801562 355.658125 
L 849.510313 355.658125 
" style="fill: none; stroke: #000000; stroke-width: 0.8; stroke-linejoin: miter; stroke-linecap: square"/>
   </g>
   <g id="patch_12">
    <path d="M 58.801562 196.138125 
L 849.510313 196.138125 
" style="fill: none; stroke: #000000; stroke-width: 0.8; stroke-linejoin: miter; stroke-linecap: square"/>
   </g>
   <g id="legend_2">
    <g id="patch_13">
     <path d="M 717.58375 234.050625 
L 842.510313 234.050625 
Q 844.510313 234.050625 844.510313 232.050625 
L 844.510313 203.138125 
Q 844.510313 201.138125 842.510313 201.138125 
L 717.58375 201.138125 
Q 715.58375 201.138125 715.58375 203.138125 
L 715.58375 232.050625 
Q 715.58375 234.050625 717.58375 234.050625 
z
" style="fill: #ffffff; opacity: 0.8; stroke: #cccccc; stroke-linejoin: miter"/>
    </g>
    <g id="line2d_59">
     <path d="M 719.58375 209.236562 
L 729.58375 209.236562 
L 739.58375 209.236562 
" style="fill: none; stroke: #1f77b4; stroke-width: 2; stroke-linecap: square"/>
    </g>
    <g id="text_14">
     <!-- r_slow_y target -->
     <g transform="translate(747.58375 212.736562) scale(0.1 -0.1)">
      <use xlink:href="#DejaVuSans-72"/>
      <use xlink:href="#DejaVuSans-5f" transform="translate(41.113281 0)"/>
      <use xlink:href="#DejaVuSans-73" transform="translate(91.113281 0)"/>
      <use xlink:href="#DejaVuSans-6c" transform="translate(143.212891 0)"/>
      <use xlink:href="#DejaVuSans-6f" transform="translate(170.996094 0)"/>
      <use xlink:href="#DejaVuSans-77" transform="translate(232.177734 0)"/>
      <use xlink:href="#DejaVuSans-5f" transform="translate(313.964844 0)"/>
      <use xlink:href="#DejaVuSans-79" transform="translate(363.964844 0)"/>
      <use xlink:href="#DejaVuSans-20" transform="translate(423.144531 0)"/>
      <use xlink:href="#DejaVuSans-74" transform="translate(454.931641 0)"/>
      <use xlink:href="#DejaVuSans-61" transform="translate(494.140625 0)"/>
      <use xlink:href="#DejaVuSans-72" transform="translate(555.419922 0)"/>
      <use xlink:href="#DejaVuSans-67" transform="translate(594.783203 0)"/>
      <use xlink:href="#DejaVuSans-65" transform="translate(658.259766 0)"/>
      <use xlink:href="#DejaVuSans-74" transform="translate(719.783203 0)"/>
     </g>
    </g>
    <g id="line2d_60">
     <path d="M 719.58375 224.192813 
L 729.58375 224.192813 
L 739.58375 224.192813 
" style="fill: none; stroke-dasharray: 5.55,2.4; stroke-dashoffset: 0; stroke: #ff7f0e; stroke-width: 1.5"/>
    </g>
    <g id="text_15">
     <!-- r_slow_y predicted -->
     <g transform="translate(747.58375 227.692813) scale(0.1 -0.1)">
      <use xlink:href="#DejaVuSans-72"/>
      <use xlink:href="#DejaVuSans-5f" transform="translate(41.113281 0)"/>
      <use xlink:href="#DejaVuSans-73" transform="translate(91.113281 0)"/>
      <use xlink:href="#DejaVuSans-6c" transform="translate(143.212891 0)"/>
      <use xlink:href="#DejaVuSans-6f" transform="translate(170.996094 0)"/>
      <use xlink:href="#DejaVuSans-77" transform="translate(232.177734 0)"/>
      <use xlink:href="#DejaVuSans-5f" transform="translate(313.964844 0)"/>
      <use xlink:href="#DejaVuSans-79" transform="translate(363.964844 0)"/>
      <use xlink:href="#DejaVuSans-20" transform="translate(423.144531 0)"/>
      <use xlink:href="#DejaVuSans-70" transform="translate(454.931641 0)"/>
      <use xlink:href="#DejaVuSans-72" transform="translate(518.408203 0)"/>
      <use xlink:href="#DejaVuSans-65" transform="translate(557.271484 0)"/>
      <use xlink:href="#DejaVuSans-64" transform="translate(618.794922 0)"/>
      <use xlink:href="#DejaVuSans-69" transform="translate(682.271484 0)"/>
      <use xlink:href="#DejaVuSans-63" transform="translate(710.054688 0)"/>
      <use xlink:href="#DejaVuSans-74" transform="translate(765.035156 0)"/>
      <use xlink:href="#DejaVuSans-65" transform="translate(804.244141 0)"/>
      <use xlink:href="#DejaVuSans-64" transform="translate(865.767578 0)"/>
     </g>
    </g>
   </g>
  </g>
  <g id="axes_3">
   <g id="patch_14">
    <path d="M 58.801563 529.478125 
L 849.510313 529.478125 
L 849.510313 369.958125 
L 58.801563 369.958125 
z
" style="fill: #ffffff"/>
   </g>
   <g id="matplotlib.axis_5">
    <g id="xtick_19">
     <g id="line2d_61">
      <path d="M 94.742869 529.478125 
L 94.742869 369.958125 
" clip-path="url(#pd084525ab3)" style="fill: none; stroke: #b0b0b0; stroke-width: 0.8; stroke-linecap: square"/>
     </g>
     <g id="line2d_62">
      <g>
       <use xlink:href="#mc7de9bf658" x="94.742869" y="529.478125" style="stroke: #000000; stroke-width: 0.8"/>
      </g>
     </g>
     <g id="text_16">
      <!-- 0 -->
      <g transform="translate(91.561619 544.076562) scale(0.1 -0.1)">
       <use xlink:href="#DejaVuSans-30"/>
      </g>
     </g>
    </g>
    <g id="xtick_20">
     <g id="line2d_63">
      <path d="M 185.04766 529.478125 
L 185.04766 369.958125 
" clip-path="url(#pd084525ab3)" style="fill: none; stroke: #b0b0b0; stroke-width: 0.8; stroke-linecap: square"/>
     </g>
     <g id="line2d_64">
      <g>
       <use xlink:href="#mc7de9bf658" x="185.04766" y="529.478125" style="stroke: #000000; stroke-width: 0.8"/>
      </g>
     </g>
     <g id="text_17">
      <!-- 25 -->
      <g transform="translate(178.68516 544.076562) scale(0.1 -0.1)">
       <use xlink:href="#DejaVuSans-32"/>
       <use xlink:href="#DejaVuSans-35" transform="translate(63.623047 0)"/>
      </g>
     </g>
    </g>
    <g id="xtick_21">
     <g id="line2d_65">
      <path d="M 275.352451 529.478125 
L 275.352451 369.958125 
" clip-path="url(#pd084525ab3)" style="fill: none; stroke: #b0b0b0; stroke-width: 0.8; stroke-linecap: square"/>
     </g>
     <g id="line2d_66">
      <g>
       <use xlink:href="#mc7de9bf658" x="275.352451" y="529.478125" style="stroke: #000000; stroke-width: 0.8"/>
      </g>
     </g>
     <g id="text_18">
      <!-- 50 -->
      <g transform="translate(268.989951 544.076562) scale(0.1 -0.1)">
       <use xlink:href="#DejaVuSans-35"/>
       <use xlink:href="#DejaVuSans-30" transform="translate(63.623047 0)"/>
      </g>
     </g>
    </g>
    <g id="xtick_22">
     <g id="line2d_67">
      <path d="M 365.657242 529.478125 
L 365.657242 369.958125 
" clip-path="url(#pd084525ab3)" style="fill: none; stroke: #b0b0b0; stroke-width: 0.8; stroke-linecap: square"/>
     </g>
     <g id="line2d_68">
      <g>
       <use xlink:href="#mc7de9bf658" x="365.657242" y="529.478125" style="stroke: #000000; stroke-width: 0.8"/>
      </g>
     </g>
     <g id="text_19">
      <!-- 75 -->
      <g transform="translate(359.294742 544.076562) scale(0.1 -0.1)">
       <defs>
        <path id="DejaVuSans-37" d="M 525 4666 
L 3525 4666 
L 3525 4397 
L 1831 0 
L 1172 0 
L 2766 4134 
L 525 4134 
L 525 4666 
z
" transform="scale(0.015625)"/>
       </defs>
       <use xlink:href="#DejaVuSans-37"/>
       <use xlink:href="#DejaVuSans-35" transform="translate(63.623047 0)"/>
      </g>
     </g>
    </g>
    <g id="xtick_23">
     <g id="line2d_69">
      <path d="M 455.962033 529.478125 
L 455.962033 369.958125 
" clip-path="url(#pd084525ab3)" style="fill: none; stroke: #b0b0b0; stroke-width: 0.8; stroke-linecap: square"/>
     </g>
     <g id="line2d_70">
      <g>
       <use xlink:href="#mc7de9bf658" x="455.962033" y="529.478125" style="stroke: #000000; stroke-width: 0.8"/>
      </g>
     </g>
     <g id="text_20">
      <!-- 100 -->
      <g transform="translate(446.418283 544.076562) scale(0.1 -0.1)">
       <defs>
        <path id="DejaVuSans-31" d="M 794 531 
L 1825 531 
L 1825 4091 
L 703 3866 
L 703 4441 
L 1819 4666 
L 2450 4666 
L 2450 531 
L 3481 531 
L 3481 0 
L 794 0 
L 794 531 
z
" transform="scale(0.015625)"/>
       </defs>
       <use xlink:href="#DejaVuSans-31"/>
       <use xlink:href="#DejaVuSans-30" transform="translate(63.623047 0)"/>
       <use xlink:href="#DejaVuSans-30" transform="translate(127.246094 0)"/>
      </g>
     </g>
    </g>
    <g id="xtick_24">
     <g id="line2d_71">
      <path d="M 546.266824 529.478125 
L 546.266824 369.958125 
" clip-path="url(#pd084525ab3)" style="fill: none; stroke: #b0b0b0; stroke-width: 0.8; stroke-linecap: square"/>
     </g>
     <g id="line2d_72">
      <g>
       <use xlink:href="#mc7de9bf658" x="546.266824" y="529.478125" style="stroke: #000000; stroke-width: 0.8"/>
      </g>
     </g>
     <g id="text_21">
      <!-- 125 -->
      <g transform="translate(536.723074 544.076562) scale(0.1 -0.1)">
       <use xlink:href="#DejaVuSans-31"/>
       <use xlink:href="#DejaVuSans-32" transform="translate(63.623047 0)"/>
       <use xlink:href="#DejaVuSans-35" transform="translate(127.246094 0)"/>
      </g>
     </g>
    </g>
    <g id="xtick_25">
     <g id="line2d_73">
      <path d="M 636.571615 529.478125 
L 636.571615 369.958125 
" clip-path="url(#pd084525ab3)" style="fill: none; stroke: #b0b0b0; stroke-width: 0.8; stroke-linecap: square"/>
     </g>
     <g id="line2d_74">
      <g>
       <use xlink:href="#mc7de9bf658" x="636.571615" y="529.478125" style="stroke: #000000; stroke-width: 0.8"/>
      </g>
     </g>
     <g id="text_22">
      <!-- 150 -->
      <g transform="translate(627.027865 544.076562) scale(0.1 -0.1)">
       <use xlink:href="#DejaVuSans-31"/>
       <use xlink:href="#DejaVuSans-35" transform="translate(63.623047 0)"/>
       <use xlink:href="#DejaVuSans-30" transform="translate(127.246094 0)"/>
      </g>
     </g>
    </g>
    <g id="xtick_26">
     <g id="line2d_75">
      <path d="M 726.876406 529.478125 
L 726.876406 369.958125 
" clip-path="url(#pd084525ab3)" style="fill: none; stroke: #b0b0b0; stroke-width: 0.8; stroke-linecap: square"/>
     </g>
     <g id="line2d_76">
      <g>
       <use xlink:href="#mc7de9bf658" x="726.876406" y="529.478125" style="stroke: #000000; stroke-width: 0.8"/>
      </g>
     </g>
     <g id="text_23">
      <!-- 175 -->
      <g transform="translate(717.332656 544.076562) scale(0.1 -0.1)">
       <use xlink:href="#DejaVuSans-31"/>
       <use xlink:href="#DejaVuSans-37" transform="translate(63.623047 0)"/>
       <use xlink:href="#DejaVuSans-35" transform="translate(127.246094 0)"/>
      </g>
     </g>
    </g>
    <g id="xtick_27">
     <g id="line2d_77">
      <path d="M 817.181197 529.478125 
L 817.181197 369.958125 
" clip-path="url(#pd084525ab3)" style="fill: none; stroke: #b0b0b0; stroke-width: 0.8; stroke-linecap: square"/>
     </g>
     <g id="line2d_78">
      <g>
       <use xlink:href="#mc7de9bf658" x="817.181197" y="529.478125" style="stroke: #000000; stroke-width: 0.8"/>
      </g>
     </g>
     <g id="text_24">
      <!-- 200 -->
      <g transform="translate(807.637447 544.076562) scale(0.1 -0.1)">
       <use xlink:href="#DejaVuSans-32"/>
       <use xlink:href="#DejaVuSans-30" transform="translate(63.623047 0)"/>
       <use xlink:href="#DejaVuSans-30" transform="translate(127.246094 0)"/>
      </g>
     </g>
    </g>
    <g id="text_25">
     <!-- Time step -->
     <g transform="translate(429.517656 557.754687) scale(0.1 -0.1)">
      <defs>
       <path id="DejaVuSans-54" d="M -19 4666 
L 3928 4666 
L 3928 4134 
L 2272 4134 
L 2272 0 
L 1638 0 
L 1638 4134 
L -19 4134 
L -19 4666 
z
" transform="scale(0.015625)"/>
       <path id="DejaVuSans-6d" d="M 3328 2828 
Q 3544 3216 3844 3400 
Q 4144 3584 4550 3584 
Q 5097 3584 5394 3201 
Q 5691 2819 5691 2113 
L 5691 0 
L 5113 0 
L 5113 2094 
Q 5113 2597 4934 2840 
Q 4756 3084 4391 3084 
Q 3944 3084 3684 2787 
Q 3425 2491 3425 1978 
L 3425 0 
L 2847 0 
L 2847 2094 
Q 2847 2600 2669 2842 
Q 2491 3084 2119 3084 
Q 1678 3084 1418 2786 
Q 1159 2488 1159 1978 
L 1159 0 
L 581 0 
L 581 3500 
L 1159 3500 
L 1159 2956 
Q 1356 3278 1631 3431 
Q 1906 3584 2284 3584 
Q 2666 3584 2933 3390 
Q 3200 3197 3328 2828 
z
" transform="scale(0.015625)"/>
      </defs>
      <use xlink:href="#DejaVuSans-54"/>
      <use xlink:href="#DejaVuSans-69" transform="translate(57.958984 0)"/>
      <use xlink:href="#DejaVuSans-6d" transform="translate(85.742188 0)"/>
      <use xlink:href="#DejaVuSans-65" transform="translate(183.154297 0)"/>
      <use xlink:href="#DejaVuSans-20" transform="translate(244.677734 0)"/>
      <use xlink:href="#DejaVuSans-73" transform="translate(276.464844 0)"/>
      <use xlink:href="#DejaVuSans-74" transform="translate(328.564453 0)"/>
      <use xlink:href="#DejaVuSans-65" transform="translate(367.773438 0)"/>
      <use xlink:href="#DejaVuSans-70" transform="translate(429.296875 0)"/>
     </g>
    </g>
   </g>
   <g id="matplotlib.axis_6">
    <g id="ytick_9">
     <g id="line2d_79">
      <path d="M 58.801563 510.065479 
L 849.510313 510.065479 
" clip-path="url(#pd084525ab3)" style="fill: none; stroke: #b0b0b0; stroke-width: 0.8; stroke-linecap: square"/>
     </g>
     <g id="line2d_80">
      <g>
       <use xlink:href="#m248663dbae" x="58.801563" y="510.065479" style="stroke: #000000; stroke-width: 0.8"/>
      </g>
     </g>
     <g id="text_26">
      <!-- −2.4 -->
      <g transform="translate(27.51875 513.864698) scale(0.1 -0.1)">
       <use xlink:href="#DejaVuSans-2212"/>
       <use xlink:href="#DejaVuSans-32" transform="translate(83.789062 0)"/>
       <use xlink:href="#DejaVuSans-2e" transform="translate(147.412109 0)"/>
       <use xlink:href="#DejaVuSans-34" transform="translate(179.199219 0)"/>
      </g>
     </g>
    </g>
    <g id="ytick_10">
     <g id="line2d_81">
      <path d="M 58.801563 485.158265 
L 849.510313 485.158265 
" clip-path="url(#pd084525ab3)" style="fill: none; stroke: #b0b0b0; stroke-width: 0.8; stroke-linecap: square"/>
     </g>
     <g id="line2d_82">
      <g>
       <use xlink:href="#m248663dbae" x="58.801563" y="485.158265" style="stroke: #000000; stroke-width: 0.8"/>
      </g>
     </g>
     <g id="text_27">
      <!-- −2.2 -->
      <g transform="translate(27.51875 488.957484) scale(0.1 -0.1)">
       <use xlink:href="#DejaVuSans-2212"/>
       <use xlink:href="#DejaVuSans-32" transform="translate(83.789062 0)"/>
       <use xlink:href="#DejaVuSans-2e" transform="translate(147.412109 0)"/>
       <use xlink:href="#DejaVuSans-32" transform="translate(179.199219 0)"/>
      </g>
     </g>
    </g>
    <g id="ytick_11">
     <g id="line2d_83">
      <path d="M 58.801563 460.251052 
L 849.510313 460.251052 
" clip-path="url(#pd084525ab3)" style="fill: none; stroke: #b0b0b0; stroke-width: 0.8; stroke-linecap: square"/>
     </g>
     <g id="line2d_84">
      <g>
       <use xlink:href="#m248663dbae" x="58.801563" y="460.251052" style="stroke: #000000; stroke-width: 0.8"/>
      </g>
     </g>
     <g id="text_28">
      <!-- −2.0 -->
      <g transform="translate(27.51875 464.050271) scale(0.1 -0.1)">
       <use xlink:href="#DejaVuSans-2212"/>
       <use xlink:href="#DejaVuSans-32" transform="translate(83.789062 0)"/>
       <use xlink:href="#DejaVuSans-2e" transform="translate(147.412109 0)"/>
       <use xlink:href="#DejaVuSans-30" transform="translate(179.199219 0)"/>
      </g>
     </g>
    </g>
    <g id="ytick_12">
     <g id="line2d_85">
      <path d="M 58.801563 435.343839 
L 849.510313 435.343839 
" clip-path="url(#pd084525ab3)" style="fill: none; stroke: #b0b0b0; stroke-width: 0.8; stroke-linecap: square"/>
     </g>
     <g id="line2d_86">
      <g>
       <use xlink:href="#m248663dbae" x="58.801563" y="435.343839" style="stroke: #000000; stroke-width: 0.8"/>
      </g>
     </g>
     <g id="text_29">
      <!-- −1.8 -->
      <g transform="translate(27.51875 439.143057) scale(0.1 -0.1)">
       <defs>
        <path id="DejaVuSans-38" d="M 2034 2216 
Q 1584 2216 1326 1975 
Q 1069 1734 1069 1313 
Q 1069 891 1326 650 
Q 1584 409 2034 409 
Q 2484 409 2743 651 
Q 3003 894 3003 1313 
Q 3003 1734 2745 1975 
Q 2488 2216 2034 2216 
z
M 1403 2484 
Q 997 2584 770 2862 
Q 544 3141 544 3541 
Q 544 4100 942 4425 
Q 1341 4750 2034 4750 
Q 2731 4750 3128 4425 
Q 3525 4100 3525 3541 
Q 3525 3141 3298 2862 
Q 3072 2584 2669 2484 
Q 3125 2378 3379 2068 
Q 3634 1759 3634 1313 
Q 3634 634 3220 271 
Q 2806 -91 2034 -91 
Q 1263 -91 848 271 
Q 434 634 434 1313 
Q 434 1759 690 2068 
Q 947 2378 1403 2484 
z
M 1172 3481 
Q 1172 3119 1398 2916 
Q 1625 2713 2034 2713 
Q 2441 2713 2670 2916 
Q 2900 3119 2900 3481 
Q 2900 3844 2670 4047 
Q 2441 4250 2034 4250 
Q 1625 4250 1398 4047 
Q 1172 3844 1172 3481 
z
" transform="scale(0.015625)"/>
       </defs>
       <use xlink:href="#DejaVuSans-2212"/>
       <use xlink:href="#DejaVuSans-31" transform="translate(83.789062 0)"/>
       <use xlink:href="#DejaVuSans-2e" transform="translate(147.412109 0)"/>
       <use xlink:href="#DejaVuSans-38" transform="translate(179.199219 0)"/>
      </g>
     </g>
    </g>
    <g id="ytick_13">
     <g id="line2d_87">
      <path d="M 58.801563 410.436625 
L 849.510313 410.436625 
" clip-path="url(#pd084525ab3)" style="fill: none; stroke: #b0b0b0; stroke-width: 0.8; stroke-linecap: square"/>
     </g>
     <g id="line2d_88">
      <g>
       <use xlink:href="#m248663dbae" x="58.801563" y="410.436625" style="stroke: #000000; stroke-width: 0.8"/>
      </g>
     </g>
     <g id="text_30">
      <!-- −1.6 -->
      <g transform="translate(27.51875 414.235844) scale(0.1 -0.1)">
       <defs>
        <path id="DejaVuSans-36" d="M 2113 2584 
Q 1688 2584 1439 2293 
Q 1191 2003 1191 1497 
Q 1191 994 1439 701 
Q 1688 409 2113 409 
Q 2538 409 2786 701 
Q 3034 994 3034 1497 
Q 3034 2003 2786 2293 
Q 2538 2584 2113 2584 
z
M 3366 4563 
L 3366 3988 
Q 3128 4100 2886 4159 
Q 2644 4219 2406 4219 
Q 1781 4219 1451 3797 
Q 1122 3375 1075 2522 
Q 1259 2794 1537 2939 
Q 1816 3084 2150 3084 
Q 2853 3084 3261 2657 
Q 3669 2231 3669 1497 
Q 3669 778 3244 343 
Q 2819 -91 2113 -91 
Q 1303 -91 875 529 
Q 447 1150 447 2328 
Q 447 3434 972 4092 
Q 1497 4750 2381 4750 
Q 2619 4750 2861 4703 
Q 3103 4656 3366 4563 
z
" transform="scale(0.015625)"/>
       </defs>
       <use xlink:href="#DejaVuSans-2212"/>
       <use xlink:href="#DejaVuSans-31" transform="translate(83.789062 0)"/>
       <use xlink:href="#DejaVuSans-2e" transform="translate(147.412109 0)"/>
       <use xlink:href="#DejaVuSans-36" transform="translate(179.199219 0)"/>
      </g>
     </g>
    </g>
    <g id="ytick_14">
     <g id="line2d_89">
      <path d="M 58.801563 385.529412 
L 849.510313 385.529412 
" clip-path="url(#pd084525ab3)" style="fill: none; stroke: #b0b0b0; stroke-width: 0.8; stroke-linecap: square"/>
     </g>
     <g id="line2d_90">
      <g>
       <use xlink:href="#m248663dbae" x="58.801563" y="385.529412" style="stroke: #000000; stroke-width: 0.8"/>
      </g>
     </g>
     <g id="text_31">
      <!-- −1.4 -->
      <g transform="translate(27.51875 389.328631) scale(0.1 -0.1)">
       <use xlink:href="#DejaVuSans-2212"/>
       <use xlink:href="#DejaVuSans-31" transform="translate(83.789062 0)"/>
       <use xlink:href="#DejaVuSans-2e" transform="translate(147.412109 0)"/>
       <use xlink:href="#DejaVuSans-34" transform="translate(179.199219 0)"/>
      </g>
     </g>
    </g>
    <g id="text_32">
     <!-- r_slow z -->
     <g transform="translate(21.160937 469.629062) rotate(-90) scale(0.1 -0.1)">
      <defs>
       <path id="DejaVuSans-7a" d="M 353 3500 
L 3084 3500 
L 3084 2975 
L 922 459 
L 3084 459 
L 3084 0 
L 275 0 
L 275 525 
L 2438 3041 
L 353 3041 
L 353 3500 
z
" transform="scale(0.015625)"/>
      </defs>
      <use xlink:href="#DejaVuSans-72"/>
      <use xlink:href="#DejaVuSans-5f" transform="translate(41.113281 0)"/>
      <use xlink:href="#DejaVuSans-73" transform="translate(91.113281 0)"/>
      <use xlink:href="#DejaVuSans-6c" transform="translate(143.212891 0)"/>
      <use xlink:href="#DejaVuSans-6f" transform="translate(170.996094 0)"/>
      <use xlink:href="#DejaVuSans-77" transform="translate(232.177734 0)"/>
      <use xlink:href="#DejaVuSans-20" transform="translate(313.964844 0)"/>
      <use xlink:href="#DejaVuSans-7a" transform="translate(345.751953 0)"/>
     </g>
    </g>
   </g>
   <g id="line2d_91">
    <path d="M 94.742869 484.778692 
L 152.537936 486.000566 
L 185.04766 486.575902 
L 217.557385 486.905777 
L 260.903685 487.068072 
L 434.288883 487.501155 
L 459.574225 487.880022 
L 477.635183 488.357702 
L 506.532716 489.390914 
L 524.593674 490.238642 
L 549.879016 491.724089 
L 571.552166 493.247036 
L 600.449699 495.538345 
L 651.020382 499.865497 
L 697.978873 503.960786 
L 723.264215 505.945914 
L 759.386131 508.408931 
L 813.569006 512.11217 
L 813.569006 512.11217 
" clip-path="url(#pd084525ab3)" style="fill: none; stroke: #1f77b4; stroke-width: 2; stroke-linecap: square"/>
   </g>
   <g id="line2d_92">
    <path d="M 94.742869 377.209034 
L 98.355061 460.178916 
L 101.967253 490.171895 
L 105.579444 495.156243 
L 109.191636 493.623883 
L 112.803828 491.358435 
L 116.416019 489.377167 
L 120.028211 488.10265 
L 127.252594 488.045672 
L 130.864786 487.574048 
L 134.476977 486.542083 
L 138.089169 484.736293 
L 141.701361 483.4961 
L 145.313552 482.70725 
L 152.537936 482.221316 
L 156.150127 482.142306 
L 159.762319 481.830513 
L 163.37451 482.260954 
L 166.986702 482.834895 
L 170.598894 482.968715 
L 174.211085 483.339149 
L 177.823277 484.040408 
L 181.435469 484.596593 
L 185.04766 484.776555 
L 188.659852 485.268546 
L 192.272044 486.25247 
L 195.884235 487.595456 
L 206.72081 490.471069 
L 213.945193 492.345803 
L 217.557385 492.535266 
L 224.781768 490.917068 
L 228.39396 490.920215 
L 232.006152 491.831781 
L 235.618343 492.353523 
L 239.230535 492.055567 
L 246.454918 490.899461 
L 250.06711 490.708721 
L 253.679301 491.039695 
L 257.291493 492.028369 
L 260.903685 492.193426 
L 264.515876 491.95322 
L 268.128068 491.144388 
L 271.74026 490.048348 
L 275.352451 489.553684 
L 278.964643 489.907253 
L 282.576835 490.924461 
L 286.189026 491.563219 
L 289.801218 491.707788 
L 293.41341 489.851521 
L 297.025601 485.698393 
L 300.637793 484.398045 
L 304.249984 485.648749 
L 307.862176 486.776588 
L 311.474368 487.166678 
L 315.086559 487.321847 
L 318.698751 486.97487 
L 325.923134 487.459141 
L 329.535326 486.975909 
L 333.147518 486.312863 
L 340.371901 485.903296 
L 343.984092 486.215682 
L 347.596284 486.986212 
L 354.820667 489.859123 
L 358.432859 491.707164 
L 362.045051 493.282636 
L 365.657242 494.075108 
L 369.269434 494.456765 
L 372.881626 494.569297 
L 376.493817 494.240224 
L 380.106009 492.948634 
L 383.718201 491.966106 
L 387.330392 491.96379 
L 390.942584 492.374278 
L 394.554775 493.272363 
L 398.166967 494.010737 
L 401.779159 494.172735 
L 405.39135 493.143501 
L 409.003542 492.829125 
L 412.615734 493.642827 
L 416.227925 493.484273 
L 419.840117 493.140176 
L 423.452309 492.411125 
L 427.0645 492.150284 
L 430.676692 493.000387 
L 437.901075 493.873412 
L 441.513267 494.292837 
L 445.125458 493.288723 
L 448.73765 489.16015 
L 452.349842 488.873001 
L 459.574225 489.874058 
L 463.186417 489.813308 
L 466.798608 489.490589 
L 470.4108 489.383788 
L 474.022992 489.780499 
L 477.635183 490.3708 
L 481.247375 489.707101 
L 484.859566 488.683568 
L 488.471758 488.811183 
L 492.08395 489.631061 
L 495.696141 490.147993 
L 499.308333 491.327407 
L 502.920525 492.11985 
L 510.144908 493.100062 
L 513.7571 492.886282 
L 517.369291 493.186554 
L 520.981483 493.889386 
L 524.593674 493.530681 
L 528.205866 492.440639 
L 531.818058 490.272817 
L 535.430249 489.131141 
L 539.042441 490.456965 
L 542.654633 491.263659 
L 546.266824 492.308451 
L 549.879016 492.550647 
L 553.491208 492.295417 
L 557.103399 493.294454 
L 560.715591 495.01972 
L 564.327783 496.383847 
L 567.939974 496.179865 
L 571.552166 496.193374 
L 575.164357 495.991144 
L 578.776549 496.08497 
L 582.388741 497.501443 
L 586.000932 498.494274 
L 589.613124 499.7043 
L 593.225316 501.836848 
L 596.837507 497.844441 
L 600.449699 493.115353 
L 604.061891 494.229149 
L 607.674082 495.85477 
L 611.286274 496.607306 
L 614.898465 496.800689 
L 618.510657 496.288239 
L 622.122849 495.463018 
L 625.73504 495.496777 
L 629.347232 495.700908 
L 636.571615 493.744847 
L 640.183807 494.314483 
L 647.40819 496.534116 
L 651.020382 498.099374 
L 658.244765 500.738582 
L 661.856957 502.194158 
L 665.469148 503.512381 
L 669.08134 505.330464 
L 672.693532 506.822978 
L 679.917915 505.855859 
L 683.530107 506.525556 
L 687.142298 506.443072 
L 690.75449 508.31656 
L 694.366682 509.845624 
L 697.978873 510.500771 
L 701.591065 510.89579 
L 705.203256 512.010149 
L 708.815448 512.297654 
L 712.42764 511.473086 
L 716.039831 511.864215 
L 719.652023 511.836186 
L 723.264215 512.188211 
L 726.876406 513.02136 
L 730.488598 513.641917 
L 734.10079 514.577354 
L 737.712981 516.30464 
L 741.325173 515.97426 
L 744.937365 510.970019 
L 748.549556 508.835541 
L 755.773939 510.761108 
L 759.386131 511.428607 
L 766.610514 511.272637 
L 770.222706 512.863222 
L 773.834898 514.194509 
L 777.447089 514.522365 
L 781.059281 514.433527 
L 788.283664 513.887497 
L 795.508047 514.410932 
L 799.120239 515.739547 
L 806.344622 519.633853 
L 809.956814 521.159146 
L 813.569006 522.227216 
L 813.569006 522.227216 
" clip-path="url(#pd084525ab3)" style="fill: none; stroke-dasharray: 5.55,2.4; stroke-dashoffset: 0; stroke: #ff7f0e; stroke-width: 1.5"/>
   </g>
   <g id="patch_15">
    <path d="M 58.801563 529.478125 
L 58.801563 369.958125 
" style="fill: none; stroke: #000000; stroke-width: 0.8; stroke-linejoin: miter; stroke-linecap: square"/>
   </g>
   <g id="patch_16">
    <path d="M 849.510313 529.478125 
L 849.510313 369.958125 
" style="fill: none; stroke: #000000; stroke-width: 0.8; stroke-linejoin: miter; stroke-linecap: square"/>
   </g>
   <g id="patch_17">
    <path d="M 58.801562 529.478125 
L 849.510313 529.478125 
" style="fill: none; stroke: #000000; stroke-width: 0.8; stroke-linejoin: miter; stroke-linecap: square"/>
   </g>
   <g id="patch_18">
    <path d="M 58.801562 369.958125 
L 849.510313 369.958125 
" style="fill: none; stroke: #000000; stroke-width: 0.8; stroke-linejoin: miter; stroke-linecap: square"/>
   </g>
   <g id="legend_3">
    <g id="patch_19">
     <path d="M 718.254063 407.870625 
L 842.510313 407.870625 
Q 844.510313 407.870625 844.510313 405.870625 
L 844.510313 376.958125 
Q 844.510313 374.958125 842.510313 374.958125 
L 718.254063 374.958125 
Q 716.254063 374.958125 716.254063 376.958125 
L 716.254063 405.870625 
Q 716.254063 407.870625 718.254063 407.870625 
z
" style="fill: #ffffff; opacity: 0.8; stroke: #cccccc; stroke-linejoin: miter"/>
    </g>
    <g id="line2d_93">
     <path d="M 720.254063 383.056562 
L 730.254063 383.056562 
L 740.254063 383.056562 
" style="fill: none; stroke: #1f77b4; stroke-width: 2; stroke-linecap: square"/>
    </g>
    <g id="text_33">
     <!-- r_slow_z target -->
     <g transform="translate(748.254063 386.556562) scale(0.1 -0.1)">
      <use xlink:href="#DejaVuSans-72"/>
      <use xlink:href="#DejaVuSans-5f" transform="translate(41.113281 0)"/>
      <use xlink:href="#DejaVuSans-73" transform="translate(91.113281 0)"/>
      <use xlink:href="#DejaVuSans-6c" transform="translate(143.212891 0)"/>
      <use xlink:href="#DejaVuSans-6f" transform="translate(170.996094 0)"/>
      <use xlink:href="#DejaVuSans-77" transform="translate(232.177734 0)"/>
      <use xlink:href="#DejaVuSans-5f" transform="translate(313.964844 0)"/>
      <use xlink:href="#DejaVuSans-7a" transform="translate(363.964844 0)"/>
      <use xlink:href="#DejaVuSans-20" transform="translate(416.455078 0)"/>
      <use xlink:href="#DejaVuSans-74" transform="translate(448.242188 0)"/>
      <use xlink:href="#DejaVuSans-61" transform="translate(487.451172 0)"/>
      <use xlink:href="#DejaVuSans-72" transform="translate(548.730469 0)"/>
      <use xlink:href="#DejaVuSans-67" transform="translate(588.09375 0)"/>
      <use xlink:href="#DejaVuSans-65" transform="translate(651.570312 0)"/>
      <use xlink:href="#DejaVuSans-74" transform="translate(713.09375 0)"/>
     </g>
    </g>
    <g id="line2d_94">
     <path d="M 720.254063 398.012812 
L 730.254063 398.012812 
L 740.254063 398.012812 
" style="fill: none; stroke-dasharray: 5.55,2.4; stroke-dashoffset: 0; stroke: #ff7f0e; stroke-width: 1.5"/>
    </g>
    <g id="text_34">
     <!-- r_slow_z predicted -->
     <g transform="translate(748.254063 401.512812) scale(0.1 -0.1)">
      <use xlink:href="#DejaVuSans-72"/>
      <use xlink:href="#DejaVuSans-5f" transform="translate(41.113281 0)"/>
      <use xlink:href="#DejaVuSans-73" transform="translate(91.113281 0)"/>
      <use xlink:href="#DejaVuSans-6c" transform="translate(143.212891 0)"/>
      <use xlink:href="#DejaVuSans-6f" transform="translate(170.996094 0)"/>
      <use xlink:href="#DejaVuSans-77" transform="translate(232.177734 0)"/>
      <use xlink:href="#DejaVuSans-5f" transform="translate(313.964844 0)"/>
      <use xlink:href="#DejaVuSans-7a" transform="translate(363.964844 0)"/>
      <use xlink:href="#DejaVuSans-20" transform="translate(416.455078 0)"/>
      <use xlink:href="#DejaVuSans-70" transform="translate(448.242188 0)"/>
      <use xlink:href="#DejaVuSans-72" transform="translate(511.71875 0)"/>
      <use xlink:href="#DejaVuSans-65" transform="translate(550.582031 0)"/>
      <use xlink:href="#DejaVuSans-64" transform="translate(612.105469 0)"/>
      <use xlink:href="#DejaVuSans-69" transform="translate(675.582031 0)"/>
      <use xlink:href="#DejaVuSans-63" transform="translate(703.365234 0)"/>
      <use xlink:href="#DejaVuSans-74" transform="translate(758.345703 0)"/>
      <use xlink:href="#DejaVuSans-65" transform="translate(797.554688 0)"/>
      <use xlink:href="#DejaVuSans-64" transform="translate(859.078125 0)"/>
     </g>
    </g>
   </g>
  </g>
 </g>
 <defs>
  <clipPath id="p3d1bdcf7e2">
   <rect x="58.801563" y="22.318125" width="790.70875" height="159.52"/>
  </clipPath>
  <clipPath id="p0dea10d766">
   <rect x="58.801563" y="196.138125" width="790.70875" height="159.52"/>
  </clipPath>
  <clipPath id="pd084525ab3">
   <rect x="58.801563" y="369.958125" width="790.70875" height="159.52"/>
  </clipPath>
 </defs>
</svg>
