<?xml version="1.0" encoding="utf-8" standalone="no"?>
<!DOCTYPE svg PUBLIC "-//W3C//DTD SVG 1.1//EN"
  "http://www.w3.org/Graphics/SVG/1.1/DTD/svg11.dtd">
<svg xmlns:xlink="http://www.w3.org/1999/xlink" width="856.872812pt" height="279.43625pt" viewBox="0 0 856.872812 279.43625" xmlns="http://www.w3.org/2000/svg" version="1.1">
 <metadata>
  <rdf:RDF xmlns:dc="http://purl.org/dc/elements/1.1/" xmlns:cc="http://creativecommons.org/ns#" xmlns:rdf="http://www.w3.org/1999/02/22-rdf-syntax-ns#">
   <cc:Work>
    <dc:type rdf:resource="http://purl.org/dc/dcmitype/StillImage"/>
    <dc:date>2026-03-04T17:15:11.792480</dc:date>
    <dc:format>image/svg+xml</dc:format>
    <dc:creator>
     <cc:Agent>
      <dc:title>Matplotlib v3.10.8, https://matplotlib.org/</dc:title>
     </cc:Agent>
    </dc:creator>
   </cc:Work>
  </rdf:RDF>
 </metadata>
 <defs>
  <style type="text/css">*{stroke-linejoin: round; stroke-linecap: butt}</style>
 </defs>
 <g id="figure_1">
  <g id="patch_1">
   <path d="M -0 279.43625 
L 856.872812 279.43625 
L 856.872812 0 
L -0 0 
z
" style="fill: #ffffff"/>
  </g>
  <g id="axes_1">
   <g id="patch_2">
    <path d="M 38.482813 255.558125 
L 849.672812 255.558125 
L 849.672812 22.318125 
L 38.482813 22.318125 
z
" style="fill: #ffffff"/>
   </g>
   <g id="matplotlib.axis_1">
    <g id="xtick_1">
     <g id="line2d_1">
      <defs>
       <path id="m787db1fa11" d="M 0 0 
L 0 3.5 
" style="stroke: #000000; stroke-width: 0.8"/>
      </defs>
      <g>
       <use xlink:href="#m787db1fa11" x="75.355085" y="255.558125" style="stroke: #000000; stroke-width: 0.8"/>
      </g>
     </g>
     <g id="text_1">
      <!-- 0 -->
      <g transform="translate(72.173835 270.156563) scale(0.1 -0.1)">
       <defs>
        <path id="DejaVuSans-30" d="M 2034 4250 
Q 1547 4250 1301 3770 
Q 1056 3291 1056 2328 
Q 1056 1369 1301 889 
Q 1547 409 2034 409 
Q 2525 409 2770 889 
Q 3016 1369 3016 2328 
Q 3016 3291 2770 3770 
Q 2525 4250 2034 4250 
z
M 2034 4750 
Q 2819 4750 3233 4129 
Q 3647 3509 3647 2328 
Q 3647 1150 3233 529 
Q 2819 -91 2034 -91 
Q 1250 -91 836 529 
Q 422 1150 422 2328 
Q 422 3509 836 4129 
Q 1250 4750 2034 4750 
z
" transform="scale(0.015625)"/>
       </defs>
       <use xlink:href="#DejaVuSans-30"/>
      </g>
     </g>
    </g>
    <g id="xtick_2">
     <g id="line2d_2">
      <g>
       <use xlink:href="#m787db1fa11" x="167.766796" y="255.558125" style="stroke: #000000; stroke-width: 0.8"/>
      </g>
     </g>
     <g id="text_2">
      <!-- 5 -->
      <g transform="translate(164.585546 270.156563) scale(0.1 -0.1)">
       <defs>
        <path id="DejaVuSans-35" d="M 691 4666 
L 3169 4666 
L 3169 4134 
L 1269 4134 
L 1269 2991 
Q 1406 3038 1543 3061 
Q 1681 3084 1819 3084 
Q 2600 3084 3056 2656 
Q 3513 2228 3513 1497 
Q 3513 744 3044 326 
Q 2575 -91 1722 -91 
Q 1428 -91 1123 -41 
Q 819 9 494 109 
L 494 744 
Q 775 591 1075 516 
Q 1375 441 1709 441 
Q 2250 441 2565 725 
Q 2881 1009 2881 1497 
Q 2881 1984 2565 2268 
Q 2250 2553 1709 2553 
Q 1456 2553 1204 2497 
Q 953 2441 691 2322 
L 691 4666 
z
" transform="scale(0.015625)"/>
       </defs>
       <use xlink:href="#DejaVuSans-35"/>
      </g>
     </g>
    </g>
    <g id="xtick_3">
     <g id="line2d_3">
      <g>
       <use xlink:href="#m787db1fa11" x="260.178507" y="255.558125" style="stroke: #000000; stroke-width: 0.8"/>
      </g>
     </g>
     <g id="text_3">
      <!-- 10 -->
      <g transform="translate(253.816007 270.156563) scale(0.1 -0.1)">
       <defs>
        <path id="DejaVuSans-31" d="M 794 531 
L 1825 531 
L 1825 4091 
L 703 3866 
L 703 4441 
L 1819 4666 
L 2450 4666 
L 2450 531 
L 3481 531 
L 3481 0 
L 794 0 
L 794 531 
z
" transform="scale(0.015625)"/>
       </defs>
       <use xlink:href="#DejaVuSans-31"/>
       <use xlink:href="#DejaVuSans-30" transform="translate(63.623047 0)"/>
      </g>
     </g>
    </g>
    <g id="xtick_4">
     <g id="line2d_4">
      <g>
       <use xlink:href="#m787db1fa11" x="352.590219" y="255.558125" style="stroke: #000000; stroke-width: 0.8"/>
      </g>
     </g>
     <g id="text_4">
      <!-- 15 -->
      <g transform="translate(346.227719 270.156563) scale(0.1 -0.1)">
       <use xlink:href="#DejaVuSans-31"/>
       <use xlink:href="#DejaVuSans-35" transform="translate(63.623047 0)"/>
      </g>
     </g>
    </g>
    <g id="xtick_5">
     <g id="line2d_5">
      <g>
       <use xlink:href="#m787db1fa11" x="445.00193" y="255.558125" style="stroke: #000000; stroke-width: 0.8"/>
      </g>
     </g>
     <g id="text_5">
      <!-- 20 -->
      <g transform="translate(438.63943 270.156563) scale(0.1 -0.1)">
       <defs>
        <path id="DejaVuSans-32" d="M 1228 531 
L 3431 531 
L 3431 0 
L 469 0 
L 469 531 
Q 828 903 1448 1529 
Q 2069 2156 2228 2338 
Q 2531 2678 2651 2914 
Q 2772 3150 2772 3378 
Q 2772 3750 2511 3984 
Q 2250 4219 1831 4219 
Q 1534 4219 1204 4116 
Q 875 4013 500 3803 
L 500 4441 
Q 881 4594 1212 4672 
Q 1544 4750 1819 4750 
Q 2544 4750 2975 4387 
Q 3406 4025 3406 3419 
Q 3406 3131 3298 2873 
Q 3191 2616 2906 2266 
Q 2828 2175 2409 1742 
Q 1991 1309 1228 531 
z
" transform="scale(0.015625)"/>
       </defs>
       <use xlink:href="#DejaVuSans-32"/>
       <use xlink:href="#DejaVuSans-30" transform="translate(63.623047 0)"/>
      </g>
     </g>
    </g>
    <g id="xtick_6">
     <g id="line2d_6">
      <g>
       <use xlink:href="#m787db1fa11" x="537.413641" y="255.558125" style="stroke: #000000; stroke-width: 0.8"/>
      </g>
     </g>
     <g id="text_6">
      <!-- 25 -->
      <g transform="translate(531.051141 270.156563) scale(0.1 -0.1)">
       <use xlink:href="#DejaVuSans-32"/>
       <use xlink:href="#DejaVuSans-35" transform="translate(63.623047 0)"/>
      </g>
     </g>
    </g>
    <g id="xtick_7">
     <g id="line2d_7">
      <g>
       <use xlink:href="#m787db1fa11" x="629.825352" y="255.558125" style="stroke: #000000; stroke-width: 0.8"/>
      </g>
     </g>
     <g id="text_7">
      <!-- 30 -->
      <g transform="translate(623.462852 270.156563) scale(0.1 -0.1)">
       <defs>
        <path id="DejaVuSans-33" d="M 2597 2516 
Q 3050 2419 3304 2112 
Q 3559 1806 3559 1356 
Q 3559 666 3084 287 
Q 2609 -91 1734 -91 
Q 1441 -91 1130 -33 
Q 819 25 488 141 
L 488 750 
Q 750 597 1062 519 
Q 1375 441 1716 441 
Q 2309 441 2620 675 
Q 2931 909 2931 1356 
Q 2931 1769 2642 2001 
Q 2353 2234 1838 2234 
L 1294 2234 
L 1294 2753 
L 1863 2753 
Q 2328 2753 2575 2939 
Q 2822 3125 2822 3475 
Q 2822 3834 2567 4026 
Q 2313 4219 1838 4219 
Q 1578 4219 1281 4162 
Q 984 4106 628 3988 
L 628 4550 
Q 988 4650 1302 4700 
Q 1616 4750 1894 4750 
Q 2613 4750 3031 4423 
Q 3450 4097 3450 3541 
Q 3450 3153 3228 2886 
Q 3006 2619 2597 2516 
z
" transform="scale(0.015625)"/>
       </defs>
       <use xlink:href="#DejaVuSans-33"/>
       <use xlink:href="#DejaVuSans-30" transform="translate(63.623047 0)"/>
      </g>
     </g>
    </g>
    <g id="xtick_8">
     <g id="line2d_8">
      <g>
       <use xlink:href="#m787db1fa11" x="722.237063" y="255.558125" style="stroke: #000000; stroke-width: 0.8"/>
      </g>
     </g>
     <g id="text_8">
      <!-- 35 -->
      <g transform="translate(715.874563 270.156563) scale(0.1 -0.1)">
       <use xlink:href="#DejaVuSans-33"/>
       <use xlink:href="#DejaVuSans-35" transform="translate(63.623047 0)"/>
      </g>
     </g>
    </g>
    <g id="xtick_9">
     <g id="line2d_9">
      <g>
       <use xlink:href="#m787db1fa11" x="814.648774" y="255.558125" style="stroke: #000000; stroke-width: 0.8"/>
      </g>
     </g>
     <g id="text_9">
      <!-- 40 -->
      <g transform="translate(808.286274 270.156563) scale(0.1 -0.1)">
       <defs>
        <path id="DejaVuSans-34" d="M 2419 4116 
L 825 1625 
L 2419 1625 
L 2419 4116 
z
M 2253 4666 
L 3047 4666 
L 3047 1625 
L 3713 1625 
L 3713 1100 
L 3047 1100 
L 3047 0 
L 2419 0 
L 2419 1100 
L 313 1100 
L 313 1709 
L 2253 4666 
z
" transform="scale(0.015625)"/>
       </defs>
       <use xlink:href="#DejaVuSans-34"/>
       <use xlink:href="#DejaVuSans-30" transform="translate(63.623047 0)"/>
      </g>
     </g>
    </g>
   </g>
   <g id="matplotlib.axis_2">
    <g id="ytick_1">
     <g id="line2d_10">
      <defs>
       <path id="m9f5ee55edb" d="M 0 0 
L -3.5 0 
" style="stroke: #000000; stroke-width: 0.8"/>
      </defs>
      <g>
       <use xlink:href="#m9f5ee55edb" x="38.482813" y="245.089691" style="stroke: #000000; stroke-width: 0.8"/>
      </g>
     </g>
     <g id="text_10">
      <!-- −1.5 -->
      <g transform="translate(7.2 248.88891) scale(0.1 -0.1)">
       <defs>
        <path id="DejaVuSans-2212" d="M 678 2272 
L 4684 2272 
L 4684 1741 
L 678 1741 
L 678 2272 
z
" transform="scale(0.015625)"/>
        <path id="DejaVuSans-2e" d="M 684 794 
L 1344 794 
L 1344 0 
L 684 0 
L 684 794 
z
" transform="scale(0.015625)"/>
       </defs>
       <use xlink:href="#DejaVuSans-2212"/>
       <use xlink:href="#DejaVuSans-31" transform="translate(83.789062 0)"/>
       <use xlink:href="#DejaVuSans-2e" transform="translate(147.412109 0)"/>
       <use xlink:href="#DejaVuSans-35" transform="translate(179.199219 0)"/>
      </g>
     </g>
    </g>
    <g id="ytick_2">
     <g id="line2d_11">
      <g>
       <use xlink:href="#m9f5ee55edb" x="38.482813" y="209.880189" style="stroke: #000000; stroke-width: 0.8"/>
      </g>
     </g>
     <g id="text_11">
      <!-- −1.0 -->
      <g transform="translate(7.2 213.679408) scale(0.1 -0.1)">
       <use xlink:href="#DejaVuSans-2212"/>
       <use xlink:href="#DejaVuSans-31" transform="translate(83.789062 0)"/>
       <use xlink:href="#DejaVuSans-2e" transform="translate(147.412109 0)"/>
       <use xlink:href="#DejaVuSans-30" transform="translate(179.199219 0)"/>
      </g>
     </g>
    </g>
    <g id="ytick_3">
     <g id="line2d_12">
      <g>
       <use xlink:href="#m9f5ee55edb" x="38.482813" y="174.670688" style="stroke: #000000; stroke-width: 0.8"/>
      </g>
     </g>
     <g id="text_12">
      <!-- −0.5 -->
      <g transform="translate(7.2 178.469907) scale(0.1 -0.1)">
       <use xlink:href="#DejaVuSans-2212"/>
       <use xlink:href="#DejaVuSans-30" transform="translate(83.789062 0)"/>
       <use xlink:href="#DejaVuSans-2e" transform="translate(147.412109 0)"/>
       <use xlink:href="#DejaVuSans-35" transform="translate(179.199219 0)"/>
      </g>
     </g>
    </g>
    <g id="ytick_4">
     <g id="line2d_13">
      <g>
       <use xlink:href="#m9f5ee55edb" x="38.482813" y="139.461186" style="stroke: #000000; stroke-width: 0.8"/>
      </g>
     </g>
     <g id="text_13">
      <!-- 0.0 -->
      <g transform="translate(15.579688 143.260405) scale(0.1 -0.1)">
       <use xlink:href="#DejaVuSans-30"/>
       <use xlink:href="#DejaVuSans-2e" transform="translate(63.623047 0)"/>
       <use xlink:href="#DejaVuSans-30" transform="translate(95.410156 0)"/>
      </g>
     </g>
    </g>
    <g id="ytick_5">
     <g id="line2d_14">
      <g>
       <use xlink:href="#m9f5ee55edb" x="38.482813" y="104.251685" style="stroke: #000000; stroke-width: 0.8"/>
      </g>
     </g>
     <g id="text_14">
      <!-- 0.5 -->
      <g transform="translate(15.579688 108.050904) scale(0.1 -0.1)">
       <use xlink:href="#DejaVuSans-30"/>
       <use xlink:href="#DejaVuSans-2e" transform="translate(63.623047 0)"/>
       <use xlink:href="#DejaVuSans-35" transform="translate(95.410156 0)"/>
      </g>
     </g>
    </g>
    <g id="ytick_6">
     <g id="line2d_15">
      <g>
       <use xlink:href="#m9f5ee55edb" x="38.482813" y="69.042183" style="stroke: #000000; stroke-width: 0.8"/>
      </g>
     </g>
     <g id="text_15">
      <!-- 1.0 -->
      <g transform="translate(15.579688 72.841402) scale(0.1 -0.1)">
       <use xlink:href="#DejaVuSans-31"/>
       <use xlink:href="#DejaVuSans-2e" transform="translate(63.623047 0)"/>
       <use xlink:href="#DejaVuSans-30" transform="translate(95.410156 0)"/>
      </g>
     </g>
    </g>
    <g id="ytick_7">
     <g id="line2d_16">
      <g>
       <use xlink:href="#m9f5ee55edb" x="38.482813" y="33.832682" style="stroke: #000000; stroke-width: 0.8"/>
      </g>
     </g>
     <g id="text_16">
      <!-- 1.5 -->
      <g transform="translate(15.579688 37.6319) scale(0.1 -0.1)">
       <use xlink:href="#DejaVuSans-31"/>
       <use xlink:href="#DejaVuSans-2e" transform="translate(63.623047 0)"/>
       <use xlink:href="#DejaVuSans-35" transform="translate(95.410156 0)"/>
      </g>
     </g>
    </g>
   </g>
   <g id="line2d_17">
    <path d="M 75.355085 60.758698 
L 77.203319 58.418261 
L 79.051554 56.900898 
L 80.899788 55.655279 
L 82.748022 55.789424 
L 84.596256 57.587731 
L 86.444491 58.768365 
L 88.292725 62.421247 
L 90.140959 63.862905 
L 91.989193 68.710711 
L 93.837427 72.326348 
L 95.685662 78.263309 
L 97.533896 81.445709 
L 99.38213 89.670972 
L 101.230364 91.865797 
L 103.078599 97.263756 
L 104.926833 102.237502 
L 106.775067 105.324057 
L 108.623301 106.493912 
L 110.471535 108.963872 
L 112.31977 109.587052 
L 114.168004 109.084778 
L 116.016238 104.419531 
L 117.864472 104.107487 
L 119.712707 100.945973 
L 121.560941 99.736767 
L 123.409175 94.795474 
L 127.105643 82.519798 
L 128.953878 77.210245 
L 130.802112 67.991974 
L 132.650346 64.826466 
L 134.49858 55.431039 
L 136.346815 51.908992 
L 138.195049 45.755523 
L 141.891517 37.44196 
L 143.739751 34.674662 
L 145.587986 34.8586 
L 147.43622 35.742856 
L 149.284454 34.70344 
L 151.132688 38.908181 
L 152.980923 39.728171 
L 154.829157 45.423972 
L 156.677391 50.695777 
L 158.525625 59.438436 
L 160.373859 66.095893 
L 162.222094 71.604861 
L 164.070328 77.725505 
L 165.918562 83.448095 
L 167.766796 90.909712 
L 169.615031 96.645953 
L 171.463265 102.762104 
L 175.159733 110.343866 
L 177.007967 112.509092 
L 178.856202 111.87296 
L 180.704436 113.183399 
L 182.55267 112.331779 
L 184.400904 110.088657 
L 186.249139 103.659048 
L 188.097373 103.532296 
L 191.793841 88.844443 
L 193.642075 86.115845 
L 195.49031 79.427982 
L 199.186778 67.416222 
L 201.035012 64.945382 
L 204.731481 62.860782 
L 206.579715 62.128229 
L 208.427949 62.358399 
L 210.276183 66.490981 
L 212.124418 68.246787 
L 213.972652 74.112028 
L 215.820886 82.370487 
L 217.66912 89.260738 
L 219.517355 97.632599 
L 221.365589 107.949349 
L 223.213823 115.964145 
L 225.062057 126.398395 
L 226.910291 131.809528 
L 228.758526 139.200282 
L 230.60676 143.892605 
L 232.454994 149.052749 
L 234.303228 154.730009 
L 236.151463 154.957777 
L 237.999697 158.014204 
L 239.847931 156.934165 
L 241.696165 154.857044 
L 243.544399 147.564154 
L 245.392634 146.049093 
L 247.240868 142.331499 
L 249.089102 133.754656 
L 250.937336 129.181801 
L 252.785571 122.235187 
L 256.482039 112.916799 
L 258.330273 109.854421 
L 260.178507 107.794157 
L 262.026742 114.229017 
L 263.874976 113.251849 
L 265.72321 119.914126 
L 267.571444 124.994696 
L 269.419679 129.109699 
L 271.267913 137.254506 
L 273.116147 148.912318 
L 274.964381 156.448616 
L 276.812615 164.753955 
L 278.66085 178.286747 
L 280.509084 185.224693 
L 282.357318 190.854838 
L 284.205552 196.939115 
L 286.053787 202.127999 
L 287.902021 206.227282 
L 289.750255 206.780451 
L 291.598489 205.507489 
L 293.446723 199.660971 
L 295.294958 196.589027 
L 297.143192 192.681698 
L 298.991426 188.498237 
L 300.83966 178.848328 
L 302.687895 171.563467 
L 304.536129 165.436009 
L 306.384363 160.15403 
L 308.232597 159.298161 
L 310.080831 158.988494 
L 311.929066 155.374573 
L 313.7773 156.291203 
L 315.625534 160.089431 
L 317.473768 162.126429 
L 319.322003 171.390399 
L 321.170237 175.501581 
L 324.866705 198.09272 
L 326.714939 204.39296 
L 328.563174 211.13438 
L 330.411408 222.683339 
L 332.259642 228.592865 
L 334.107876 232.920838 
L 335.956111 236.951358 
L 337.804345 236.958931 
L 339.652579 235.331859 
L 341.500813 235.675005 
L 343.349047 225.08395 
L 345.197282 222.253706 
L 347.045516 214.298742 
L 348.89375 207.20003 
L 352.590219 189.331474 
L 354.438453 187.128672 
L 356.286687 178.987602 
L 358.134921 178.891078 
L 359.983155 174.76066 
L 361.83139 175.427138 
L 363.679624 179.577028 
L 367.376092 190.855676 
L 369.224327 199.449955 
L 371.072561 207.021545 
L 372.920795 215.456154 
L 374.769029 225.737785 
L 376.617263 229.593224 
L 378.465498 237.665856 
L 380.313732 242.964644 
L 382.161966 243.581863 
L 384.0102 244.956307 
L 385.858435 241.429103 
L 387.706669 231.373229 
L 389.554903 226.133985 
L 395.099606 199.802997 
L 396.94784 189.554903 
L 398.796074 180.978078 
L 400.644308 171.580222 
L 402.492543 170.268695 
L 404.340777 166.002756 
L 406.189011 165.923509 
L 408.037245 170.435531 
L 409.885479 173.425603 
L 411.733714 182.040133 
L 413.581948 188.471535 
L 415.430182 196.373773 
L 417.278416 208.081119 
L 419.126651 213.671164 
L 420.974885 218.066268 
L 422.823119 224.613967 
L 424.671353 223.351034 
L 426.519587 226.443837 
L 428.367822 223.286771 
L 430.216056 214.568747 
L 432.06429 209.077922 
L 433.912524 198.904681 
L 435.760759 186.472054 
L 437.608993 177.171472 
L 439.457227 165.161015 
L 441.305461 156.731094 
L 443.153695 146.998537 
L 445.00193 143.660308 
L 446.850164 140.877521 
L 448.698398 139.829916 
L 450.546632 141.303244 
L 452.394866 146.588756 
L 454.243101 155.422695 
L 456.091335 162.314573 
L 457.939569 172.386137 
L 459.787803 178.891595 
L 463.484272 190.720428 
L 465.332506 191.638216 
L 467.18074 193.952278 
L 469.028974 187.048883 
L 470.877209 182.686432 
L 472.725443 172.672637 
L 474.573677 163.404591 
L 476.421911 150.292847 
L 478.270146 142.066016 
L 481.966614 114.246876 
L 483.814848 109.265159 
L 485.663082 104.644896 
L 487.511317 101.784362 
L 489.359551 102.0925 
L 491.207785 105.560242 
L 493.056019 112.483313 
L 494.904254 122.632785 
L 496.752488 129.708706 
L 498.600722 135.950646 
L 500.448956 145.99617 
L 502.29719 153.52377 
L 504.145425 156.898033 
L 505.993659 155.914663 
L 507.841893 151.790067 
L 509.690127 146.146882 
L 511.538362 138.331238 
L 513.386596 126.006918 
L 515.23483 111.215527 
L 517.083064 101.577716 
L 520.779533 78.730647 
L 522.627767 72.654705 
L 524.476001 69.78942 
L 526.324235 66.254345 
L 528.17247 70.029473 
L 530.020704 76.778224 
L 531.868938 84.153466 
L 533.717172 93.543171 
L 535.565406 103.529628 
L 537.413641 109.941359 
L 539.261875 117.482882 
L 541.110109 123.413517 
L 542.958343 124.172539 
L 544.806578 123.438153 
L 546.654812 120.812844 
L 548.503046 110.790933 
L 550.35128 99.665184 
L 552.199514 90.050049 
L 554.047749 75.076124 
L 555.895983 63.186557 
L 559.592451 46.939817 
L 561.440686 44.947618 
L 563.28892 44.187614 
L 565.137154 49.569632 
L 566.985388 55.876131 
L 568.833622 62.725109 
L 570.681857 74.424727 
L 572.530091 87.752337 
L 574.378325 94.239944 
L 576.226559 101.954329 
L 578.074794 108.424001 
L 579.923028 108.320015 
L 581.771262 103.859749 
L 585.46773 89.816595 
L 587.315965 79.217124 
L 591.012433 53.556257 
L 592.860667 45.745564 
L 596.557136 32.919943 
L 598.40537 34.378465 
L 600.253604 40.174045 
L 602.101838 48.023499 
L 603.950073 57.774515 
L 605.798307 69.018912 
L 607.646541 83.615806 
L 609.494775 89.710975 
L 611.34301 101.131675 
L 613.191244 104.899604 
L 615.039478 105.795005 
L 616.887712 103.87177 
L 618.735946 96.760948 
L 620.584181 85.722704 
L 622.432415 73.146667 
L 626.128883 52.785789 
L 627.977118 46.681803 
L 629.825352 39.283237 
L 631.673586 39.593368 
L 633.52182 43.174975 
L 635.370054 52.737282 
L 637.218289 60.596049 
L 639.066523 75.186963 
L 640.914757 85.567376 
L 642.762991 103.119038 
L 644.611226 108.779086 
L 646.45946 115.698625 
L 648.307694 117.585793 
L 650.155928 116.116817 
L 652.004162 113.373315 
L 653.852397 102.586472 
L 655.700631 90.43737 
L 657.548865 79.366758 
L 659.397099 70.345215 
L 661.245334 63.36254 
L 663.093568 58.854329 
L 664.941802 58.460923 
L 666.790036 64.629563 
L 668.63827 75.166445 
L 670.486505 84.594332 
L 672.334739 97.504619 
L 674.182973 113.597317 
L 676.031207 126.146588 
L 677.879442 133.074926 
L 679.727676 141.346568 
L 681.57591 142.129079 
L 683.424144 138.192852 
L 685.272378 131.974695 
L 688.968847 110.042128 
L 690.817081 96.682369 
L 692.665315 88.584129 
L 694.51355 84.992116 
L 696.361784 87.347974 
L 698.210018 88.895437 
L 700.058252 97.92032 
L 701.906486 109.717914 
L 703.754721 122.313438 
L 705.602955 140.410497 
L 707.451189 155.024628 
L 709.299423 162.310594 
L 711.147658 170.548633 
L 712.995892 168.28704 
L 714.844126 167.484178 
L 716.69236 156.61172 
L 718.540594 150.797582 
L 720.388829 136.709995 
L 722.237063 128.70531 
L 724.085297 117.615652 
L 725.933531 114.569396 
L 727.781766 115.226396 
L 729.63 118.987478 
L 731.478234 129.464679 
L 733.326468 143.069501 
L 737.022937 174.534459 
L 740.719405 195.384373 
L 742.567639 199.51757 
L 744.415874 198.953506 
L 746.264108 193.208171 
L 748.112342 184.302723 
L 749.960576 169.236817 
L 755.505279 141.230414 
L 757.353513 142.767359 
L 759.201747 143.621543 
L 761.049982 152.277285 
L 762.898216 163.54228 
L 764.74645 180.029606 
L 766.594684 192.191029 
L 770.291153 218.551734 
L 772.139387 223.035509 
L 773.987621 221.836936 
L 775.835855 215.398267 
L 777.68409 206.20113 
L 779.532324 192.215672 
L 783.228792 167.550929 
L 785.077026 163.318555 
L 786.925261 161.016647 
L 788.773495 164.535576 
L 790.621729 173.690827 
L 792.469963 186.958014 
L 796.166432 215.396908 
L 798.014666 228.473073 
L 799.8629 235.568227 
L 801.711134 239.370555 
L 803.559369 237.32397 
L 805.407603 226.481774 
L 807.255837 219.233174 
L 809.104071 202.383364 
L 810.952306 190.059343 
L 812.80054 178.721167 
L 812.80054 178.721167 
" clip-path="url(#p3a1cd2745d)" style="fill: none; stroke: #1f77b4; stroke-opacity: 0.6; stroke-width: 1.5; stroke-linecap: square"/>
   </g>
   <g id="line2d_18">
    <path d="M 75.355085 94.096019 
L 80.899788 90.167848 
L 86.444491 86.519771 
L 91.989193 83.172518 
L 97.533896 80.145108 
L 103.078599 77.454744 
L 108.623301 75.116713 
L 112.31977 73.760412 
L 116.016238 72.570076 
L 119.712707 71.548713 
L 123.409175 70.698903 
L 127.105643 70.022793 
L 130.802112 69.52209 
L 134.49858 69.198059 
L 138.195049 69.051519 
L 141.891517 69.082839 
L 145.587986 69.291942 
L 149.284454 69.678298 
L 152.980923 70.240932 
L 156.677391 70.978422 
L 160.373859 71.888906 
L 164.070328 72.970083 
L 167.766796 74.219222 
L 171.463265 75.633168 
L 177.007967 78.055176 
L 182.55267 80.826104 
L 188.097373 83.930209 
L 193.642075 87.349852 
L 199.186778 91.065602 
L 204.731481 95.056345 
L 210.276183 99.299406 
L 215.820886 103.770673 
L 223.213823 110.043271 
L 230.60676 116.61293 
L 239.847931 125.141449 
L 252.785571 137.429915 
L 271.267913 154.998938 
L 280.509084 163.484735 
L 287.902021 170.006829 
L 295.294958 176.220474 
L 300.83966 180.640408 
L 306.384363 184.826354 
L 311.929066 188.754525 
L 317.473768 192.402602 
L 323.018471 195.749855 
L 328.563174 198.777265 
L 334.107876 201.467629 
L 339.652579 203.80566 
L 343.349047 205.161961 
L 347.045516 206.352297 
L 350.741984 207.373659 
L 354.438453 208.223469 
L 358.134921 208.89958 
L 361.83139 209.400283 
L 365.527858 209.724314 
L 369.224327 209.870854 
L 372.920795 209.839533 
L 376.617263 209.630431 
L 380.313732 209.244075 
L 384.0102 208.681441 
L 387.706669 207.943951 
L 391.403137 207.033467 
L 395.099606 205.95229 
L 398.796074 204.70315 
L 402.492543 203.289204 
L 408.037245 200.867197 
L 413.581948 198.096268 
L 419.126651 194.992164 
L 424.671353 191.572521 
L 430.216056 187.856771 
L 435.760759 183.866028 
L 441.305461 179.622967 
L 446.850164 175.151699 
L 454.243101 168.879102 
L 461.636038 162.309443 
L 470.877209 153.780924 
L 483.814848 141.492457 
L 502.29719 123.923434 
L 511.538362 115.437637 
L 518.931298 108.915543 
L 526.324235 102.701898 
L 531.868938 98.281964 
L 537.413641 94.096019 
L 542.958343 90.167848 
L 548.503046 86.519771 
L 554.047749 83.172518 
L 559.592451 80.145108 
L 565.137154 77.454744 
L 570.681857 75.116713 
L 574.378325 73.760412 
L 578.074794 72.570076 
L 581.771262 71.548713 
L 585.46773 70.698903 
L 589.164199 70.022793 
L 592.860667 69.52209 
L 596.557136 69.198059 
L 600.253604 69.051519 
L 603.950073 69.082839 
L 607.646541 69.291942 
L 611.34301 69.678298 
L 615.039478 70.240932 
L 618.735946 70.978422 
L 622.432415 71.888906 
L 626.128883 72.970083 
L 629.825352 74.219222 
L 633.52182 75.633168 
L 639.066523 78.055176 
L 644.611226 80.826104 
L 650.155928 83.930209 
L 655.700631 87.349852 
L 661.245334 91.065602 
L 666.790036 95.056345 
L 672.334739 99.299406 
L 677.879442 103.770673 
L 685.272378 110.043271 
L 692.665315 116.61293 
L 701.906486 125.141449 
L 714.844126 137.429915 
L 733.326468 154.998938 
L 742.567639 163.484735 
L 749.960576 170.006829 
L 757.353513 176.220474 
L 762.898216 180.640408 
L 768.442918 184.826354 
L 773.987621 188.754525 
L 779.532324 192.402602 
L 785.077026 195.749855 
L 790.621729 198.777265 
L 796.166432 201.467629 
L 801.711134 203.80566 
L 805.407603 205.161961 
L 809.104071 206.352297 
L 812.80054 207.373659 
L 812.80054 207.373659 
" clip-path="url(#p3a1cd2745d)" style="fill: none; stroke: #ff7f0e; stroke-width: 2; stroke-linecap: square"/>
   </g>
   <g id="line2d_19">
    <path d="M 75.355085 88.187263 
L 77.203319 67.785151 
L 79.051554 68.268554 
L 80.899788 72.950423 
L 82.748022 75.021719 
L 84.596256 74.239276 
L 86.444491 71.100682 
L 88.292725 68.988407 
L 90.140959 66.52173 
L 91.989193 66.87939 
L 93.837427 67.779594 
L 95.685662 70.328928 
L 97.533896 71.545994 
L 99.38213 75.733073 
L 101.230364 76.578582 
L 103.078599 78.909628 
L 104.926833 82.04125 
L 106.775067 84.270591 
L 108.623301 85.316079 
L 110.471535 87.840092 
L 112.31977 90.105047 
L 114.168004 91.794141 
L 116.016238 90.95626 
L 117.864472 93.410715 
L 119.712707 95.133521 
L 121.560941 97.544874 
L 123.409175 97.151457 
L 125.257409 95.227239 
L 127.105643 93.941295 
L 128.953878 93.884934 
L 130.802112 91.461195 
L 132.650346 92.289137 
L 134.49858 89.286641 
L 136.346815 88.497649 
L 138.195049 86.146226 
L 140.043283 84.051416 
L 141.891517 81.398391 
L 143.739751 79.146339 
L 145.587986 78.251159 
L 147.43622 77.183282 
L 149.284454 74.154612 
L 151.132688 73.450951 
L 152.980923 71.026906 
L 154.829157 70.739596 
L 156.677391 70.320081 
L 158.525625 71.167301 
L 160.373859 70.356085 
L 162.222094 68.312995 
L 164.070328 67.173033 
L 165.918562 66.869224 
L 167.766796 68.218992 
L 171.463265 69.910269 
L 173.311499 69.805618 
L 175.159733 70.352391 
L 177.007967 71.02503 
L 178.856202 71.032056 
L 182.55267 75.056385 
L 184.400904 76.421011 
L 186.249139 75.734945 
L 188.097373 79.131346 
L 189.945607 79.643928 
L 191.793841 79.284148 
L 193.642075 82.323338 
L 195.49031 83.660312 
L 197.338544 84.429971 
L 199.186778 84.808848 
L 201.035012 87.206413 
L 202.883247 90.148875 
L 204.731481 91.651467 
L 208.427949 92.182429 
L 210.276183 94.836306 
L 212.124418 95.707469 
L 213.972652 98.243204 
L 215.820886 102.228452 
L 219.517355 106.387867 
L 221.365589 109.587515 
L 223.213823 111.247994 
L 225.062057 114.36286 
L 226.910291 114.848412 
L 230.60676 119.333235 
L 232.454994 122.76557 
L 234.303228 127.335101 
L 236.151463 128.455685 
L 237.999697 131.21527 
L 239.847931 132.473324 
L 241.696165 133.410193 
L 243.544399 131.649723 
L 245.392634 135.133734 
L 247.240868 138.905885 
L 249.089102 138.214627 
L 250.937336 139.349879 
L 252.785571 139.724761 
L 254.633805 141.286522 
L 258.330273 143.330701 
L 260.178507 144.032945 
L 262.026742 148.890811 
L 263.874976 147.994447 
L 265.72321 149.235813 
L 267.571444 149.882049 
L 269.419679 149.388187 
L 271.267913 151.466391 
L 273.116147 156.419724 
L 274.964381 158.313295 
L 276.812615 159.09372 
L 278.66085 163.438275 
L 280.509084 164.294957 
L 282.357318 163.834007 
L 284.205552 165.017279 
L 286.053787 167.596404 
L 287.902021 170.856793 
L 289.750255 172.463708 
L 291.598489 173.154017 
L 293.446723 171.966943 
L 295.294958 173.758867 
L 297.143192 176.72336 
L 298.991426 179.308843 
L 300.83966 177.507529 
L 302.687895 176.671855 
L 304.536129 177.808056 
L 306.384363 179.49289 
L 308.232597 182.827871 
L 310.080831 184.951675 
L 311.929066 183.089925 
L 313.7773 182.661301 
L 315.625534 184.497204 
L 317.473768 185.194317 
L 319.322003 188.946804 
L 321.170237 189.568046 
L 323.018471 192.688335 
L 324.866705 196.042914 
L 328.563174 195.580707 
L 330.411408 199.235493 
L 332.259642 201.280892 
L 334.107876 202.318389 
L 335.956111 203.975554 
L 339.652579 205.400034 
L 341.500813 208.185009 
L 343.349047 205.834912 
L 345.197282 207.575553 
L 348.89375 208.827733 
L 350.741984 208.301992 
L 352.590219 207.117493 
L 354.438453 209.777385 
L 356.286687 208.467953 
L 358.134921 209.579902 
L 359.983155 207.937398 
L 361.83139 207.477605 
L 363.679624 208.678196 
L 365.527858 209.689682 
L 367.376092 209.529925 
L 369.224327 210.045076 
L 371.072561 209.976501 
L 372.920795 210.228297 
L 374.769029 211.70834 
L 376.617263 210.468609 
L 380.313732 212.477336 
L 382.161966 211.645431 
L 384.0102 211.791984 
L 385.858435 210.801707 
L 387.706669 207.241192 
L 391.403137 207.537639 
L 393.251371 207.406649 
L 395.099606 206.339981 
L 396.94784 203.77609 
L 398.796074 201.544092 
L 400.644308 198.512408 
L 402.492543 199.351507 
L 406.189011 195.906124 
L 408.037245 195.724763 
L 409.885479 193.854887 
L 411.733714 193.764481 
L 413.581948 192.468972 
L 415.430182 191.492936 
L 417.278416 192.860773 
L 419.126651 191.646272 
L 420.974885 189.610124 
L 422.823119 190.178514 
L 424.671353 188.427505 
L 426.519587 189.655694 
L 428.367822 189.140824 
L 430.216056 185.382688 
L 432.06429 184.460755 
L 433.912524 182.711665 
L 435.760759 179.775402 
L 437.608993 179.152522 
L 439.457227 177.159376 
L 441.305461 176.138374 
L 443.153695 173.541503 
L 445.00193 173.048024 
L 446.850164 171.762041 
L 450.546632 167.071691 
L 452.394866 166.326504 
L 454.243101 167.102321 
L 456.091335 165.942517 
L 457.939569 165.586029 
L 459.787803 163.744754 
L 461.636038 162.109163 
L 463.484272 161.84017 
L 465.332506 160.484056 
L 467.18074 160.890861 
L 469.028974 157.753379 
L 470.877209 156.61257 
L 472.725443 154.079448 
L 474.573677 152.678183 
L 476.421911 149.806372 
L 478.270146 149.729236 
L 480.11838 146.307489 
L 481.966614 141.055537 
L 483.814848 141.008852 
L 485.663082 140.847257 
L 487.511317 138.591007 
L 489.359551 135.788694 
L 491.207785 133.571609 
L 493.056019 132.505891 
L 494.904254 132.536257 
L 496.752488 130.210015 
L 498.600722 126.905218 
L 500.448956 126.912649 
L 502.29719 127.061878 
L 504.145425 125.36485 
L 507.841893 119.178705 
L 509.690127 117.72377 
L 511.538362 116.776358 
L 513.386596 114.005473 
L 515.23483 110.205546 
L 517.083064 109.693261 
L 518.931298 108.668999 
L 520.779533 105.413537 
L 522.627767 103.568423 
L 524.476001 102.345729 
L 526.324235 99.052708 
L 528.17247 97.751121 
L 530.020704 97.198845 
L 533.717172 94.016326 
L 535.565406 92.837363 
L 537.413641 90.527384 
L 539.261875 89.845751 
L 541.110109 90.201421 
L 542.958343 89.175123 
L 544.806578 88.357225 
L 546.654812 88.13698 
L 548.503046 85.301968 
L 550.35128 82.705271 
L 552.199514 82.493442 
L 554.047749 80.335434 
L 555.895983 79.157713 
L 557.744217 79.685188 
L 559.592451 78.751247 
L 561.440686 78.713391 
L 563.28892 77.492926 
L 565.137154 77.490605 
L 566.985388 76.628559 
L 568.833622 74.805088 
L 570.681857 75.313113 
L 572.530091 77.223723 
L 574.378325 75.455854 
L 576.226559 74.689516 
L 578.074794 75.629879 
L 579.923028 74.936661 
L 581.771262 73.345398 
L 583.619496 72.370017 
L 585.46773 73.51457 
L 587.315965 73.721396 
L 589.164199 72.631722 
L 591.012433 70.910389 
L 592.860667 71.679049 
L 594.708902 72.278822 
L 596.557136 70.625908 
L 598.40537 71.148069 
L 600.253604 72.686938 
L 602.101838 73.247374 
L 605.798307 72.562194 
L 607.646541 74.22568 
L 609.494775 71.83013 
L 611.34301 73.196603 
L 613.191244 73.085421 
L 615.039478 72.735307 
L 616.887712 73.014978 
L 618.735946 72.478139 
L 620.584181 71.244171 
L 622.432415 70.508598 
L 624.280649 71.922786 
L 626.128883 73.067784 
L 627.977118 74.555202 
L 629.825352 73.183457 
L 631.673586 73.729513 
L 633.52182 74.81852 
L 635.370054 77.25287 
L 637.218289 76.81332 
L 639.066523 78.61891 
L 640.914757 77.969588 
L 642.762991 81.615169 
L 644.611226 79.900937 
L 646.45946 79.628965 
L 648.307694 80.015096 
L 650.155928 81.169298 
L 652.004162 83.782621 
L 653.852397 83.203066 
L 655.700631 82.466189 
L 657.548865 83.746516 
L 659.397099 86.448213 
L 661.245334 88.876556 
L 663.093568 90.24185 
L 664.941802 91.411087 
L 666.790036 94.300723 
L 668.63827 97.768506 
L 670.486505 97.902887 
L 672.334739 98.419541 
L 674.182973 101.733469 
L 676.031207 103.550748 
L 677.879442 102.52131 
L 679.727676 104.925379 
L 681.57591 106.240311 
L 683.424144 106.814699 
L 685.272378 108.51475 
L 687.120613 109.322634 
L 688.968847 111.572523 
L 690.817081 112.495316 
L 692.665315 115.815155 
L 696.361784 124.85848 
L 698.210018 124.999607 
L 700.058252 126.309753 
L 701.906486 128.259909 
L 703.754721 129.351046 
L 705.602955 133.470415 
L 707.451189 135.465662 
L 709.299423 133.335704 
L 711.147658 133.96768 
L 712.995892 132.889366 
L 714.844126 135.841914 
L 716.69236 136.324272 
L 718.540594 141.298691 
L 720.388829 142.375184 
L 722.237063 145.767757 
L 724.085297 146.22873 
L 725.933531 149.097043 
L 727.781766 152.216835 
L 729.63 153.864863 
L 733.326468 158.773541 
L 735.174702 160.445189 
L 737.022937 161.807047 
L 738.871171 160.534634 
L 740.719405 160.980177 
L 742.567639 161.19549 
L 744.415874 161.811461 
L 746.264108 162.662931 
L 748.112342 164.154391 
L 749.960576 163.78837 
L 753.657045 172.779506 
L 755.505279 173.929587 
L 757.353513 178.067902 
L 759.201747 178.992458 
L 761.049982 180.708491 
L 762.898216 181.924709 
L 764.74645 184.313379 
L 766.594684 183.560015 
L 768.442918 183.257142 
L 770.291153 185.094195 
L 772.139387 184.855419 
L 773.987621 183.494402 
L 775.835855 182.538241 
L 779.532324 184.798873 
L 783.228792 190.269662 
L 785.077026 195.241842 
L 786.925261 197.80578 
L 790.621729 200.466947 
L 792.469963 201.882243 
L 794.318198 202.29462 
L 796.166432 201.882352 
L 798.014666 201.868241 
L 799.8629 200.854111 
L 801.711134 200.544211 
L 803.559369 200.377776 
L 805.407603 198.148221 
L 807.255837 200.181955 
L 809.104071 199.511705 
L 810.952306 201.435336 
L 812.80054 204.036751 
L 812.80054 204.036751 
" clip-path="url(#p3a1cd2745d)" style="fill: none; stroke-dasharray: 7.4,3.2; stroke-dashoffset: 0; stroke: #2ca02c; stroke-width: 2"/>
   </g>
   <g id="line2d_20">
    <path d="M 75.355085 105.534783 
L 77.203319 104.477842 
L 79.051554 104.286728 
L 80.899788 104.976589 
L 82.748022 106.540446 
L 84.596256 108.948762 
L 86.444491 112.149585 
L 88.292725 116.069291 
L 90.140959 120.613941 
L 91.989193 125.671227 
L 95.685662 136.798252 
L 101.230364 153.789205 
L 103.078599 158.912295 
L 104.926833 163.515556 
L 106.775067 167.464388 
L 108.623301 170.64017 
L 110.471535 172.94409 
L 112.31977 174.300521 
L 114.168004 174.659837 
L 116.016238 174.000545 
L 117.864472 172.330653 
L 119.712707 169.6882 
L 121.560941 166.140883 
L 123.409175 161.784785 
L 125.257409 156.742176 
L 127.105643 151.158435 
L 130.802112 139.040548 
L 134.49858 126.89114 
L 136.346815 121.281402 
L 138.195049 116.226313 
L 140.043283 111.892745 
L 141.891517 108.427298 
L 143.739751 105.951018 
L 145.587986 104.554794 
L 147.43622 104.295618 
L 149.284454 105.193855 
L 151.132688 107.231673 
L 152.980923 110.35271 
L 154.829157 114.463059 
L 156.677391 119.433568 
L 158.525625 125.103437 
L 162.222094 137.76976 
L 165.918562 150.751273 
L 167.766796 156.790891 
L 169.615031 162.23551 
L 171.463265 166.884535 
L 173.311499 170.56274 
L 175.159733 173.127258 
L 177.007967 174.473577 
L 178.856202 174.540295 
L 180.704436 173.312398 
L 182.55267 170.822889 
L 184.400904 167.152648 
L 186.249139 162.42846 
L 188.097373 156.819221 
L 189.945607 150.530406 
L 197.338544 123.535289 
L 199.186778 117.64558 
L 201.035012 112.601452 
L 202.883247 108.612043 
L 204.731481 105.847366 
L 206.579715 104.430537 
L 208.427949 104.431716 
L 210.276183 105.864057 
L 212.124418 108.68192 
L 213.972652 112.78149 
L 215.820886 118.003856 
L 217.66912 124.14052 
L 221.365589 138.123396 
L 225.062057 152.412676 
L 226.910291 158.903074 
L 228.758526 164.568569 
L 230.60676 169.154107 
L 232.454994 172.448369 
L 234.303228 174.294095 
L 236.151463 174.596243 
L 237.999697 173.32757 
L 239.847931 170.531277 
L 241.696165 166.320513 
L 243.544399 160.87464 
L 245.392634 154.432357 
L 249.089102 139.748464 
L 252.785571 124.931369 
L 254.633805 118.346983 
L 256.482039 112.745021 
L 258.330273 108.401212 
L 260.178507 105.534783 
L 262.026742 104.296697 
L 263.874976 104.760927 
L 265.72321 106.919284 
L 267.571444 110.680189 
L 269.419679 115.87154 
L 271.267913 122.247701 
L 273.116147 129.500345 
L 278.66085 152.812843 
L 280.509084 159.78846 
L 282.357318 165.740341 
L 284.205552 170.352887 
L 286.053787 173.375727 
L 287.902021 174.638095 
L 289.750255 174.059347 
L 291.598489 171.654969 
L 293.446723 167.537597 
L 295.294958 161.912846 
L 297.143192 155.070033 
L 300.83966 139.217522 
L 304.536129 123.338301 
L 306.384363 116.485051 
L 308.232597 110.885169 
L 310.080831 106.860232 
L 311.929066 104.647887 
L 313.7773 104.386876 
L 315.625534 106.107335 
L 317.473768 109.727064 
L 319.322003 115.054167 
L 321.170237 121.796074 
L 323.018471 129.574636 
L 328.563174 154.522972 
L 330.411408 161.75104 
L 332.259642 167.677534 
L 334.107876 171.939619 
L 335.956111 174.269506 
L 337.804345 174.512308 
L 339.652579 172.637457 
L 341.500813 168.742786 
L 343.349047 163.050832 
L 345.197282 155.897367 
L 347.045516 147.712638 
L 350.741984 130.287461 
L 352.590219 122.131482 
L 354.438453 115.045741 
L 356.286687 109.486317 
L 358.134921 105.81787 
L 359.983155 104.288701 
L 361.83139 105.012752 
L 363.679624 107.959914 
L 365.527858 112.955482 
L 367.376092 119.689073 
L 369.224327 127.732643 
L 374.769029 154.272555 
L 376.617263 161.964416 
L 378.465498 168.165884 
L 380.313732 172.448369 
L 382.161966 174.508149 
L 384.0102 174.189178 
L 385.858435 171.49626 
L 387.706669 166.597422 
L 389.554903 159.815032 
L 391.403137 151.605979 
L 396.94784 124.329449 
L 398.796074 116.485051 
L 400.644308 110.253153 
L 402.492543 106.089457 
L 404.340777 104.306704 
L 406.189011 105.049786 
L 408.037245 108.282495 
L 409.885479 113.787209 
L 411.733714 121.177849 
L 413.581948 129.925501 
L 417.278416 148.890952 
L 419.126651 157.707236 
L 420.974885 165.180966 
L 422.823119 170.742334 
L 424.671353 173.959247 
L 426.519587 174.57229 
L 428.367822 172.51724 
L 430.216056 167.933077 
L 432.06429 161.154532 
L 433.912524 152.689341 
L 439.457227 124.000671 
L 441.305461 115.830043 
L 443.153695 109.50374 
L 445.00193 105.534783 
L 446.850164 104.254331 
L 448.698398 105.782369 
L 450.546632 110.014793 
L 452.394866 116.628347 
L 454.243101 125.103437 
L 459.787803 154.472963 
L 461.636038 162.903115 
L 463.484272 169.412819 
L 465.332506 173.448988 
L 467.18074 174.658997 
L 469.028974 172.923306 
L 470.877209 168.369051 
L 472.725443 161.363014 
L 474.573677 152.48406 
L 480.11838 122.508297 
L 481.966614 114.26865 
L 483.814848 108.195285 
L 485.663082 104.830512 
L 487.511317 104.485487 
L 489.359551 107.209444 
L 491.207785 112.78149 
L 493.056019 120.726193 
L 494.904254 130.352163 
L 498.600722 151.169463 
L 500.448956 160.495639 
L 502.29719 167.939954 
L 504.145425 172.81524 
L 505.993659 174.661436 
L 507.841893 173.291017 
L 509.690127 168.810179 
L 511.538362 161.613267 
L 513.386596 152.350351 
L 518.931298 121.17731 
L 520.779533 112.911428 
L 522.627767 107.138599 
L 524.476001 104.42174 
L 526.324235 105.03812 
L 528.17247 108.948762 
L 530.020704 115.797729 
L 531.868938 124.942021 
L 537.413641 156.790891 
L 539.261875 165.421397 
L 541.110109 171.514855 
L 542.958343 174.454434 
L 544.806578 173.930069 
L 546.654812 169.973611 
L 548.503046 162.960362 
L 550.35128 153.576131 
L 555.895983 121.17731 
L 557.744217 112.62292 
L 559.592451 106.79792 
L 561.440686 104.316367 
L 563.28892 105.453411 
L 565.137154 110.112194 
L 566.985388 117.82888 
L 568.833622 127.816118 
L 572.530091 150.3313 
L 574.378325 160.495639 
L 576.226559 168.451261 
L 578.074794 173.339819 
L 579.923028 174.622225 
L 581.771262 172.140712 
L 583.619496 166.140883 
L 585.46773 157.250542 
L 587.315965 146.416679 
L 591.012433 123.683443 
L 592.860667 114.26865 
L 594.708902 107.607254 
L 596.557136 104.449966 
L 598.40537 105.166101 
L 600.253604 109.69748 
L 602.101838 117.559359 
L 603.950073 127.889218 
L 607.646541 151.200753 
L 609.494775 161.55352 
L 611.34301 169.412819 
L 613.191244 173.86803 
L 615.039478 174.390231 
L 616.887712 170.897961 
L 618.735946 163.772363 
L 620.584181 153.818935 
L 626.128883 119.287742 
L 627.977118 110.724496 
L 629.825352 105.534783 
L 631.673586 104.350911 
L 633.52182 107.334946 
L 635.370054 114.153455 
L 637.218289 124.011177 
L 642.762991 159.133026 
L 644.611226 167.959455 
L 646.45946 173.330766 
L 648.307694 174.57229 
L 650.155928 171.510015 
L 652.004162 164.498232 
L 653.852397 154.382281 
L 659.397099 118.819035 
L 661.245334 110.173096 
L 663.093568 105.19371 
L 664.941802 104.527977 
L 666.790036 108.282495 
L 668.63827 116.003226 
L 670.486505 126.726568 
L 674.182973 151.533864 
L 676.031207 162.437321 
L 677.879442 170.389964 
L 679.727676 174.345467 
L 681.57591 173.768753 
L 683.424144 168.712037 
L 685.272378 159.815032 
L 687.120613 148.227841 
L 690.817081 123.2106 
L 692.665315 113.093877 
L 694.51355 106.474004 
L 696.361784 104.253697 
L 698.210018 106.752919 
L 700.058252 113.658893 
L 701.906486 124.060894 
L 707.451189 161.059064 
L 709.299423 169.694194 
L 711.147658 174.191103 
L 712.995892 173.90962 
L 714.844126 168.865058 
L 716.69236 159.733717 
L 718.540594 147.766395 
L 722.237063 122.131482 
L 724.085297 112.058663 
L 725.933531 105.834223 
L 727.781766 104.35766 
L 729.63 107.861712 
L 731.478234 115.87154 
L 733.326468 127.264496 
L 737.022937 153.465156 
L 738.871171 164.506451 
L 740.719405 171.939619 
L 742.567639 174.667771 
L 744.415874 172.27081 
L 746.264108 165.074526 
L 748.112342 154.111233 
L 751.80881 127.596562 
L 753.657045 115.953304 
L 755.505279 107.783774 
L 757.353513 104.321839 
L 759.201747 106.107335 
L 761.049982 112.897317 
L 762.898216 123.693896 
L 766.594684 150.488995 
L 768.442918 162.437321 
L 770.291153 170.903225 
L 772.139387 174.576425 
L 773.987621 172.871314 
L 775.835855 166.025056 
L 777.68409 155.070033 
L 781.380558 127.930419 
L 783.228792 115.953304 
L 785.077026 107.630857 
L 786.925261 104.284278 
L 788.773495 106.462636 
L 790.621729 113.847847 
L 792.469963 125.295591 
L 796.166432 152.812843 
L 798.014666 164.506451 
L 799.8629 172.206406 
L 801.711134 174.657529 
L 803.559369 171.440952 
L 805.407603 163.050832 
L 807.255837 150.82399 
L 810.952306 123.063589 
L 812.80054 112.058663 
L 812.80054 112.058663 
" clip-path="url(#p3a1cd2745d)" style="fill: none; stroke: #d62728; stroke-opacity: 0.35; stroke-width: 1.5; stroke-linecap: square"/>
   </g>
   <g id="patch_3">
    <path d="M 38.482813 255.558125 
L 38.482813 22.318125 
" style="fill: none; stroke: #000000; stroke-width: 0.8; stroke-linejoin: miter; stroke-linecap: square"/>
   </g>
   <g id="patch_4">
    <path d="M 849.672812 255.558125 
L 849.672812 22.318125 
" style="fill: none; stroke: #000000; stroke-width: 0.8; stroke-linejoin: miter; stroke-linecap: square"/>
   </g>
   <g id="patch_5">
    <path d="M 38.482812 255.558125 
L 849.672812 255.558125 
" style="fill: none; stroke: #000000; stroke-width: 0.8; stroke-linejoin: miter; stroke-linecap: square"/>
   </g>
   <g id="patch_6">
    <path d="M 38.482812 22.318125 
L 849.672812 22.318125 
" style="fill: none; stroke: #000000; stroke-width: 0.8; stroke-linejoin: miter; stroke-linecap: square"/>
   </g>
   <g id="text_17">
    <!-- GRU learns mapping: mixed signal -&gt; slow component -->
    <g transform="translate(280.125 16.318125) scale(0.12 -0.12)">
     <defs>
      <path id="DejaVuSans-47" d="M 3809 666 
L 3809 1919 
L 2778 1919 
L 2778 2438 
L 4434 2438 
L 4434 434 
Q 4069 175 3628 42 
Q 3188 -91 2688 -91 
Q 1594 -91 976 548 
Q 359 1188 359 2328 
Q 359 3472 976 4111 
Q 1594 4750 2688 4750 
Q 3144 4750 3555 4637 
Q 3966 4525 4313 4306 
L 4313 3634 
Q 3963 3931 3569 4081 
Q 3175 4231 2741 4231 
Q 1884 4231 1454 3753 
Q 1025 3275 1025 2328 
Q 1025 1384 1454 906 
Q 1884 428 2741 428 
Q 3075 428 3337 486 
Q 3600 544 3809 666 
z
" transform="scale(0.015625)"/>
      <path id="DejaVuSans-52" d="M 2841 2188 
Q 3044 2119 3236 1894 
Q 3428 1669 3622 1275 
L 4263 0 
L 3584 0 
L 2988 1197 
Q 2756 1666 2539 1819 
Q 2322 1972 1947 1972 
L 1259 1972 
L 1259 0 
L 628 0 
L 628 4666 
L 2053 4666 
Q 2853 4666 3247 4331 
Q 3641 3997 3641 3322 
Q 3641 2881 3436 2590 
Q 3231 2300 2841 2188 
z
M 1259 4147 
L 1259 2491 
L 2053 2491 
Q 2509 2491 2742 2702 
Q 2975 2913 2975 3322 
Q 2975 3731 2742 3939 
Q 2509 4147 2053 4147 
L 1259 4147 
z
" transform="scale(0.015625)"/>
      <path id="DejaVuSans-55" d="M 556 4666 
L 1191 4666 
L 1191 1831 
Q 1191 1081 1462 751 
Q 1734 422 2344 422 
Q 2950 422 3222 751 
Q 3494 1081 3494 1831 
L 3494 4666 
L 4128 4666 
L 4128 1753 
Q 4128 841 3676 375 
Q 3225 -91 2344 -91 
Q 1459 -91 1007 375 
Q 556 841 556 1753 
L 556 4666 
z
" transform="scale(0.015625)"/>
      <path id="DejaVuSans-20" transform="scale(0.015625)"/>
      <path id="DejaVuSans-6c" d="M 603 4863 
L 1178 4863 
L 1178 0 
L 603 0 
L 603 4863 
z
" transform="scale(0.015625)"/>
      <path id="DejaVuSans-65" d="M 3597 1894 
L 3597 1613 
L 953 1613 
Q 991 1019 1311 708 
Q 1631 397 2203 397 
Q 2534 397 2845 478 
Q 3156 559 3463 722 
L 3463 178 
Q 3153 47 2828 -22 
Q 2503 -91 2169 -91 
Q 1331 -91 842 396 
Q 353 884 353 1716 
Q 353 2575 817 3079 
Q 1281 3584 2069 3584 
Q 2775 3584 3186 3129 
Q 3597 2675 3597 1894 
z
M 3022 2063 
Q 3016 2534 2758 2815 
Q 2500 3097 2075 3097 
Q 1594 3097 1305 2825 
Q 1016 2553 972 2059 
L 3022 2063 
z
" transform="scale(0.015625)"/>
      <path id="DejaVuSans-61" d="M 2194 1759 
Q 1497 1759 1228 1600 
Q 959 1441 959 1056 
Q 959 750 1161 570 
Q 1363 391 1709 391 
Q 2188 391 2477 730 
Q 2766 1069 2766 1631 
L 2766 1759 
L 2194 1759 
z
M 3341 1997 
L 3341 0 
L 2766 0 
L 2766 531 
Q 2569 213 2275 61 
Q 1981 -91 1556 -91 
Q 1019 -91 701 211 
Q 384 513 384 1019 
Q 384 1609 779 1909 
Q 1175 2209 1959 2209 
L 2766 2209 
L 2766 2266 
Q 2766 2663 2505 2880 
Q 2244 3097 1772 3097 
Q 1472 3097 1187 3025 
Q 903 2953 641 2809 
L 641 3341 
Q 956 3463 1253 3523 
Q 1550 3584 1831 3584 
Q 2591 3584 2966 3190 
Q 3341 2797 3341 1997 
z
" transform="scale(0.015625)"/>
      <path id="DejaVuSans-72" d="M 2631 2963 
Q 2534 3019 2420 3045 
Q 2306 3072 2169 3072 
Q 1681 3072 1420 2755 
Q 1159 2438 1159 1844 
L 1159 0 
L 581 0 
L 581 3500 
L 1159 3500 
L 1159 2956 
Q 1341 3275 1631 3429 
Q 1922 3584 2338 3584 
Q 2397 3584 2469 3576 
Q 2541 3569 2628 3553 
L 2631 2963 
z
" transform="scale(0.015625)"/>
      <path id="DejaVuSans-6e" d="M 3513 2113 
L 3513 0 
L 2938 0 
L 2938 2094 
Q 2938 2591 2744 2837 
Q 2550 3084 2163 3084 
Q 1697 3084 1428 2787 
Q 1159 2491 1159 1978 
L 1159 0 
L 581 0 
L 581 3500 
L 1159 3500 
L 1159 2956 
Q 1366 3272 1645 3428 
Q 1925 3584 2291 3584 
Q 2894 3584 3203 3211 
Q 3513 2838 3513 2113 
z
" transform="scale(0.015625)"/>
      <path id="DejaVuSans-73" d="M 2834 3397 
L 2834 2853 
Q 2591 2978 2328 3040 
Q 2066 3103 1784 3103 
Q 1356 3103 1142 2972 
Q 928 2841 928 2578 
Q 928 2378 1081 2264 
Q 1234 2150 1697 2047 
L 1894 2003 
Q 2506 1872 2764 1633 
Q 3022 1394 3022 966 
Q 3022 478 2636 193 
Q 2250 -91 1575 -91 
Q 1294 -91 989 -36 
Q 684 19 347 128 
L 347 722 
Q 666 556 975 473 
Q 1284 391 1588 391 
Q 1994 391 2212 530 
Q 2431 669 2431 922 
Q 2431 1156 2273 1281 
Q 2116 1406 1581 1522 
L 1381 1569 
Q 847 1681 609 1914 
Q 372 2147 372 2553 
Q 372 3047 722 3315 
Q 1072 3584 1716 3584 
Q 2034 3584 2315 3537 
Q 2597 3491 2834 3397 
z
" transform="scale(0.015625)"/>
      <path id="DejaVuSans-6d" d="M 3328 2828 
Q 3544 3216 3844 3400 
Q 4144 3584 4550 3584 
Q 5097 3584 5394 3201 
Q 5691 2819 5691 2113 
L 5691 0 
L 5113 0 
L 5113 2094 
Q 5113 2597 4934 2840 
Q 4756 3084 4391 3084 
Q 3944 3084 3684 2787 
Q 3425 2491 3425 1978 
L 3425 0 
L 2847 0 
L 2847 2094 
Q 2847 2600 2669 2842 
Q 2491 3084 2119 3084 
Q 1678 3084 1418 2786 
Q 1159 2488 1159 1978 
L 1159 0 
L 581 0 
L 581 3500 
L 1159 3500 
L 1159 2956 
Q 1356 3278 1631 3431 
Q 1906 3584 2284 3584 
Q 2666 3584 2933 3390 
Q 3200 3197 3328 2828 
z
" transform="scale(0.015625)"/>
      <path id="DejaVuSans-70" d="M 1159 525 
L 1159 -1331 
L 581 -1331 
L 581 3500 
L 1159 3500 
L 1159 2969 
Q 1341 3281 1617 3432 
Q 1894 3584 2278 3584 
Q 2916 3584 3314 3078 
Q 3713 2572 3713 1747 
Q 3713 922 3314 415 
Q 2916 -91 2278 -91 
Q 1894 -91 1617 61 
Q 1341 213 1159 525 
z
M 3116 1747 
Q 3116 2381 2855 2742 
Q 2594 3103 2138 3103 
Q 1681 3103 1420 2742 
Q 1159 2381 1159 1747 
Q 1159 1113 1420 752 
Q 1681 391 2138 391 
Q 2594 391 2855 752 
Q 3116 1113 3116 1747 
z
" transform="scale(0.015625)"/>
      <path id="DejaVuSans-69" d="M 603 3500 
L 1178 3500 
L 1178 0 
L 603 0 
L 603 3500 
z
M 603 4863 
L 1178 4863 
L 1178 4134 
L 603 4134 
L 603 4863 
z
" transform="scale(0.015625)"/>
      <path id="DejaVuSans-67" d="M 2906 1791 
Q 2906 2416 2648 2759 
Q 2391 3103 1925 3103 
Q 1463 3103 1205 2759 
Q 947 2416 947 1791 
Q 947 1169 1205 825 
Q 1463 481 1925 481 
Q 2391 481 2648 825 
Q 2906 1169 2906 1791 
z
M 3481 434 
Q 3481 -459 3084 -895 
Q 2688 -1331 1869 -1331 
Q 1566 -1331 1297 -1286 
Q 1028 -1241 775 -1147 
L 775 -588 
Q 1028 -725 1275 -790 
Q 1522 -856 1778 -856 
Q 2344 -856 2625 -561 
Q 2906 -266 2906 331 
L 2906 616 
Q 2728 306 2450 153 
Q 2172 0 1784 0 
Q 1141 0 747 490 
Q 353 981 353 1791 
Q 353 2603 747 3093 
Q 1141 3584 1784 3584 
Q 2172 3584 2450 3431 
Q 2728 3278 2906 2969 
L 2906 3500 
L 3481 3500 
L 3481 434 
z
" transform="scale(0.015625)"/>
      <path id="DejaVuSans-3a" d="M 750 794 
L 1409 794 
L 1409 0 
L 750 0 
L 750 794 
z
M 750 3309 
L 1409 3309 
L 1409 2516 
L 750 2516 
L 750 3309 
z
" transform="scale(0.015625)"/>
      <path id="DejaVuSans-78" d="M 3513 3500 
L 2247 1797 
L 3578 0 
L 2900 0 
L 1881 1375 
L 863 0 
L 184 0 
L 1544 1831 
L 300 3500 
L 978 3500 
L 1906 2253 
L 2834 3500 
L 3513 3500 
z
" transform="scale(0.015625)"/>
      <path id="DejaVuSans-64" d="M 2906 2969 
L 2906 4863 
L 3481 4863 
L 3481 0 
L 2906 0 
L 2906 525 
Q 2725 213 2448 61 
Q 2172 -91 1784 -91 
Q 1150 -91 751 415 
Q 353 922 353 1747 
Q 353 2572 751 3078 
Q 1150 3584 1784 3584 
Q 2172 3584 2448 3432 
Q 2725 3281 2906 2969 
z
M 947 1747 
Q 947 1113 1208 752 
Q 1469 391 1925 391 
Q 2381 391 2643 752 
Q 2906 1113 2906 1747 
Q 2906 2381 2643 2742 
Q 2381 3103 1925 3103 
Q 1469 3103 1208 2742 
Q 947 2381 947 1747 
z
" transform="scale(0.015625)"/>
      <path id="DejaVuSans-2d" d="M 313 2009 
L 1997 2009 
L 1997 1497 
L 313 1497 
L 313 2009 
z
" transform="scale(0.015625)"/>
      <path id="DejaVuSans-3e" d="M 678 3150 
L 678 3719 
L 4684 2266 
L 4684 1747 
L 678 294 
L 678 863 
L 3897 2003 
L 678 3150 
z
" transform="scale(0.015625)"/>
      <path id="DejaVuSans-6f" d="M 1959 3097 
Q 1497 3097 1228 2736 
Q 959 2375 959 1747 
Q 959 1119 1226 758 
Q 1494 397 1959 397 
Q 2419 397 2687 759 
Q 2956 1122 2956 1747 
Q 2956 2369 2687 2733 
Q 2419 3097 1959 3097 
z
M 1959 3584 
Q 2709 3584 3137 3096 
Q 3566 2609 3566 1747 
Q 3566 888 3137 398 
Q 2709 -91 1959 -91 
Q 1206 -91 779 398 
Q 353 888 353 1747 
Q 353 2609 779 3096 
Q 1206 3584 1959 3584 
z
" transform="scale(0.015625)"/>
      <path id="DejaVuSans-77" d="M 269 3500 
L 844 3500 
L 1563 769 
L 2278 3500 
L 2956 3500 
L 3675 769 
L 4391 3500 
L 4966 3500 
L 4050 0 
L 3372 0 
L 2619 2869 
L 1863 0 
L 1184 0 
L 269 3500 
z
" transform="scale(0.015625)"/>
      <path id="DejaVuSans-63" d="M 3122 3366 
L 3122 2828 
Q 2878 2963 2633 3030 
Q 2388 3097 2138 3097 
Q 1578 3097 1268 2742 
Q 959 2388 959 1747 
Q 959 1106 1268 751 
Q 1578 397 2138 397 
Q 2388 397 2633 464 
Q 2878 531 3122 666 
L 3122 134 
Q 2881 22 2623 -34 
Q 2366 -91 2075 -91 
Q 1284 -91 818 406 
Q 353 903 353 1747 
Q 353 2603 823 3093 
Q 1294 3584 2113 3584 
Q 2378 3584 2631 3529 
Q 2884 3475 3122 3366 
z
" transform="scale(0.015625)"/>
      <path id="DejaVuSans-74" d="M 1172 4494 
L 1172 3500 
L 2356 3500 
L 2356 3053 
L 1172 3053 
L 1172 1153 
Q 1172 725 1289 603 
Q 1406 481 1766 481 
L 2356 481 
L 2356 0 
L 1766 0 
Q 1100 0 847 248 
Q 594 497 594 1153 
L 594 3053 
L 172 3053 
L 172 3500 
L 594 3500 
L 594 4494 
L 1172 4494 
z
" transform="scale(0.015625)"/>
     </defs>
     <use xlink:href="#DejaVuSans-47"/>
     <use xlink:href="#DejaVuSans-52" transform="translate(77.490234 0)"/>
     <use xlink:href="#DejaVuSans-55" transform="translate(146.972656 0)"/>
     <use xlink:href="#DejaVuSans-20" transform="translate(220.166016 0)"/>
     <use xlink:href="#DejaVuSans-6c" transform="translate(251.953125 0)"/>
     <use xlink:href="#DejaVuSans-65" transform="translate(279.736328 0)"/>
     <use xlink:href="#DejaVuSans-61" transform="translate(341.259766 0)"/>
     <use xlink:href="#DejaVuSans-72" transform="translate(402.539062 0)"/>
     <use xlink:href="#DejaVuSans-6e" transform="translate(441.902344 0)"/>
     <use xlink:href="#DejaVuSans-73" transform="translate(505.28125 0)"/>
     <use xlink:href="#DejaVuSans-20" transform="translate(557.380859 0)"/>
     <use xlink:href="#DejaVuSans-6d" transform="translate(589.167969 0)"/>
     <use xlink:href="#DejaVuSans-61" transform="translate(686.580078 0)"/>
     <use xlink:href="#DejaVuSans-70" transform="translate(747.859375 0)"/>
     <use xlink:href="#DejaVuSans-70" transform="translate(811.335938 0)"/>
     <use xlink:href="#DejaVuSans-69" transform="translate(874.8125 0)"/>
     <use xlink:href="#DejaVuSans-6e" transform="translate(902.595703 0)"/>
     <use xlink:href="#DejaVuSans-67" transform="translate(965.974609 0)"/>
     <use xlink:href="#DejaVuSans-3a" transform="translate(1029.451172 0)"/>
     <use xlink:href="#DejaVuSans-20" transform="translate(1063.142578 0)"/>
     <use xlink:href="#DejaVuSans-6d" transform="translate(1094.929688 0)"/>
     <use xlink:href="#DejaVuSans-69" transform="translate(1192.341797 0)"/>
     <use xlink:href="#DejaVuSans-78" transform="translate(1220.125 0)"/>
     <use xlink:href="#DejaVuSans-65" transform="translate(1276.179688 0)"/>
     <use xlink:href="#DejaVuSans-64" transform="translate(1337.703125 0)"/>
     <use xlink:href="#DejaVuSans-20" transform="translate(1401.179688 0)"/>
     <use xlink:href="#DejaVuSans-73" transform="translate(1432.966797 0)"/>
     <use xlink:href="#DejaVuSans-69" transform="translate(1485.066406 0)"/>
     <use xlink:href="#DejaVuSans-67" transform="translate(1512.849609 0)"/>
     <use xlink:href="#DejaVuSans-6e" transform="translate(1576.326172 0)"/>
     <use xlink:href="#DejaVuSans-61" transform="translate(1639.705078 0)"/>
     <use xlink:href="#DejaVuSans-6c" transform="translate(1700.984375 0)"/>
     <use xlink:href="#DejaVuSans-20" transform="translate(1728.767578 0)"/>
     <use xlink:href="#DejaVuSans-2d" transform="translate(1760.554688 0)"/>
     <use xlink:href="#DejaVuSans-3e" transform="translate(1796.638672 0)"/>
     <use xlink:href="#DejaVuSans-20" transform="translate(1880.427734 0)"/>
     <use xlink:href="#DejaVuSans-73" transform="translate(1912.214844 0)"/>
     <use xlink:href="#DejaVuSans-6c" transform="translate(1964.314453 0)"/>
     <use xlink:href="#DejaVuSans-6f" transform="translate(1992.097656 0)"/>
     <use xlink:href="#DejaVuSans-77" transform="translate(2053.279297 0)"/>
     <use xlink:href="#DejaVuSans-20" transform="translate(2135.066406 0)"/>
     <use xlink:href="#DejaVuSans-63" transform="translate(2166.853516 0)"/>
     <use xlink:href="#DejaVuSans-6f" transform="translate(2221.833984 0)"/>
     <use xlink:href="#DejaVuSans-6d" transform="translate(2283.015625 0)"/>
     <use xlink:href="#DejaVuSans-70" transform="translate(2380.427734 0)"/>
     <use xlink:href="#DejaVuSans-6f" transform="translate(2443.904297 0)"/>
     <use xlink:href="#DejaVuSans-6e" transform="translate(2505.085938 0)"/>
     <use xlink:href="#DejaVuSans-65" transform="translate(2568.464844 0)"/>
     <use xlink:href="#DejaVuSans-6e" transform="translate(2629.988281 0)"/>
     <use xlink:href="#DejaVuSans-74" transform="translate(2693.367188 0)"/>
    </g>
   </g>
   <g id="legend_1">
    <g id="patch_7">
     <path d="M 45.482813 250.558125 
L 236.064063 250.558125 
Q 238.064063 250.558125 238.064063 248.558125 
L 238.064063 190.845625 
Q 238.064063 188.845625 236.064063 188.845625 
L 45.482813 188.845625 
Q 43.482813 188.845625 43.482813 190.845625 
L 43.482813 248.558125 
Q 43.482813 250.558125 45.482813 250.558125 
z
" style="fill: #ffffff; opacity: 0.8; stroke: #cccccc; stroke-linejoin: miter"/>
    </g>
    <g id="line2d_21">
     <path d="M 47.482813 196.944063 
L 57.482813 196.944063 
L 67.482812 196.944063 
" style="fill: none; stroke: #1f77b4; stroke-opacity: 0.6; stroke-width: 1.5; stroke-linecap: square"/>
    </g>
    <g id="text_18">
     <!-- Input x(t) = slow + fast + noise -->
     <g transform="translate(75.482812 200.444063) scale(0.1 -0.1)">
      <defs>
       <path id="DejaVuSans-49" d="M 628 4666 
L 1259 4666 
L 1259 0 
L 628 0 
L 628 4666 
z
" transform="scale(0.015625)"/>
       <path id="DejaVuSans-75" d="M 544 1381 
L 544 3500 
L 1119 3500 
L 1119 1403 
Q 1119 906 1312 657 
Q 1506 409 1894 409 
Q 2359 409 2629 706 
Q 2900 1003 2900 1516 
L 2900 3500 
L 3475 3500 
L 3475 0 
L 2900 0 
L 2900 538 
Q 2691 219 2414 64 
Q 2138 -91 1772 -91 
Q 1169 -91 856 284 
Q 544 659 544 1381 
z
M 1991 3584 
L 1991 3584 
z
" transform="scale(0.015625)"/>
       <path id="DejaVuSans-28" d="M 1984 4856 
Q 1566 4138 1362 3434 
Q 1159 2731 1159 2009 
Q 1159 1288 1364 580 
Q 1569 -128 1984 -844 
L 1484 -844 
Q 1016 -109 783 600 
Q 550 1309 550 2009 
Q 550 2706 781 3412 
Q 1013 4119 1484 4856 
L 1984 4856 
z
" transform="scale(0.015625)"/>
       <path id="DejaVuSans-29" d="M 513 4856 
L 1013 4856 
Q 1481 4119 1714 3412 
Q 1947 2706 1947 2009 
Q 1947 1309 1714 600 
Q 1481 -109 1013 -844 
L 513 -844 
Q 928 -128 1133 580 
Q 1338 1288 1338 2009 
Q 1338 2731 1133 3434 
Q 928 4138 513 4856 
z
" transform="scale(0.015625)"/>
       <path id="DejaVuSans-3d" d="M 678 2906 
L 4684 2906 
L 4684 2381 
L 678 2381 
L 678 2906 
z
M 678 1631 
L 4684 1631 
L 4684 1100 
L 678 1100 
L 678 1631 
z
" transform="scale(0.015625)"/>
       <path id="DejaVuSans-2b" d="M 2944 4013 
L 2944 2272 
L 4684 2272 
L 4684 1741 
L 2944 1741 
L 2944 0 
L 2419 0 
L 2419 1741 
L 678 1741 
L 678 2272 
L 2419 2272 
L 2419 4013 
L 2944 4013 
z
" transform="scale(0.015625)"/>
       <path id="DejaVuSans-66" d="M 2375 4863 
L 2375 4384 
L 1825 4384 
Q 1516 4384 1395 4259 
Q 1275 4134 1275 3809 
L 1275 3500 
L 2222 3500 
L 2222 3053 
L 1275 3053 
L 1275 0 
L 697 0 
L 697 3053 
L 147 3053 
L 147 3500 
L 697 3500 
L 697 3744 
Q 697 4328 969 4595 
Q 1241 4863 1831 4863 
L 2375 4863 
z
" transform="scale(0.015625)"/>
      </defs>
      <use xlink:href="#DejaVuSans-49"/>
      <use xlink:href="#DejaVuSans-6e" transform="translate(29.492188 0)"/>
      <use xlink:href="#DejaVuSans-70" transform="translate(92.871094 0)"/>
      <use xlink:href="#DejaVuSans-75" transform="translate(156.347656 0)"/>
      <use xlink:href="#DejaVuSans-74" transform="translate(219.726562 0)"/>
      <use xlink:href="#DejaVuSans-20" transform="translate(258.935547 0)"/>
      <use xlink:href="#DejaVuSans-78" transform="translate(290.722656 0)"/>
      <use xlink:href="#DejaVuSans-28" transform="translate(349.902344 0)"/>
      <use xlink:href="#DejaVuSans-74" transform="translate(388.916016 0)"/>
      <use xlink:href="#DejaVuSans-29" transform="translate(428.125 0)"/>
      <use xlink:href="#DejaVuSans-20" transform="translate(467.138672 0)"/>
      <use xlink:href="#DejaVuSans-3d" transform="translate(498.925781 0)"/>
      <use xlink:href="#DejaVuSans-20" transform="translate(582.714844 0)"/>
      <use xlink:href="#DejaVuSans-73" transform="translate(614.501953 0)"/>
      <use xlink:href="#DejaVuSans-6c" transform="translate(666.601562 0)"/>
      <use xlink:href="#DejaVuSans-6f" transform="translate(694.384766 0)"/>
      <use xlink:href="#DejaVuSans-77" transform="translate(755.566406 0)"/>
      <use xlink:href="#DejaVuSans-20" transform="translate(837.353516 0)"/>
      <use xlink:href="#DejaVuSans-2b" transform="translate(869.140625 0)"/>
      <use xlink:href="#DejaVuSans-20" transform="translate(952.929688 0)"/>
      <use xlink:href="#DejaVuSans-66" transform="translate(984.716797 0)"/>
      <use xlink:href="#DejaVuSans-61" transform="translate(1019.921875 0)"/>
      <use xlink:href="#DejaVuSans-73" transform="translate(1081.201172 0)"/>
      <use xlink:href="#DejaVuSans-74" transform="translate(1133.300781 0)"/>
      <use xlink:href="#DejaVuSans-20" transform="translate(1172.509766 0)"/>
      <use xlink:href="#DejaVuSans-2b" transform="translate(1204.296875 0)"/>
      <use xlink:href="#DejaVuSans-20" transform="translate(1288.085938 0)"/>
      <use xlink:href="#DejaVuSans-6e" transform="translate(1319.873047 0)"/>
      <use xlink:href="#DejaVuSans-6f" transform="translate(1383.251953 0)"/>
      <use xlink:href="#DejaVuSans-69" transform="translate(1444.433594 0)"/>
      <use xlink:href="#DejaVuSans-73" transform="translate(1472.216797 0)"/>
      <use xlink:href="#DejaVuSans-65" transform="translate(1524.316406 0)"/>
     </g>
    </g>
    <g id="line2d_22">
     <path d="M 47.482813 211.622188 
L 57.482813 211.622188 
L 67.482812 211.622188 
" style="fill: none; stroke: #ff7f0e; stroke-width: 2; stroke-linecap: square"/>
    </g>
    <g id="text_19">
     <!-- True slow(t) -->
     <g transform="translate(75.482812 215.122188) scale(0.1 -0.1)">
      <defs>
       <path id="DejaVuSans-54" d="M -19 4666 
L 3928 4666 
L 3928 4134 
L 2272 4134 
L 2272 0 
L 1638 0 
L 1638 4134 
L -19 4134 
L -19 4666 
z
" transform="scale(0.015625)"/>
      </defs>
      <use xlink:href="#DejaVuSans-54"/>
      <use xlink:href="#DejaVuSans-72" transform="translate(46.333984 0)"/>
      <use xlink:href="#DejaVuSans-75" transform="translate(87.447266 0)"/>
      <use xlink:href="#DejaVuSans-65" transform="translate(150.826172 0)"/>
      <use xlink:href="#DejaVuSans-20" transform="translate(212.349609 0)"/>
      <use xlink:href="#DejaVuSans-73" transform="translate(244.136719 0)"/>
      <use xlink:href="#DejaVuSans-6c" transform="translate(296.236328 0)"/>
      <use xlink:href="#DejaVuSans-6f" transform="translate(324.019531 0)"/>
      <use xlink:href="#DejaVuSans-77" transform="translate(385.201172 0)"/>
      <use xlink:href="#DejaVuSans-28" transform="translate(466.988281 0)"/>
      <use xlink:href="#DejaVuSans-74" transform="translate(506.001953 0)"/>
      <use xlink:href="#DejaVuSans-29" transform="translate(545.210938 0)"/>
     </g>
    </g>
    <g id="line2d_23">
     <path d="M 47.482813 226.300313 
L 57.482813 226.300313 
L 67.482812 226.300313 
" style="fill: none; stroke-dasharray: 7.4,3.2; stroke-dashoffset: 0; stroke: #2ca02c; stroke-width: 2"/>
    </g>
    <g id="text_20">
     <!-- GRU predicted slow(t) -->
     <g transform="translate(75.482812 229.800313) scale(0.1 -0.1)">
      <use xlink:href="#DejaVuSans-47"/>
      <use xlink:href="#DejaVuSans-52" transform="translate(77.490234 0)"/>
      <use xlink:href="#DejaVuSans-55" transform="translate(146.972656 0)"/>
      <use xlink:href="#DejaVuSans-20" transform="translate(220.166016 0)"/>
      <use xlink:href="#DejaVuSans-70" transform="translate(251.953125 0)"/>
      <use xlink:href="#DejaVuSans-72" transform="translate(315.429688 0)"/>
      <use xlink:href="#DejaVuSans-65" transform="translate(354.292969 0)"/>
      <use xlink:href="#DejaVuSans-64" transform="translate(415.816406 0)"/>
      <use xlink:href="#DejaVuSans-69" transform="translate(479.292969 0)"/>
      <use xlink:href="#DejaVuSans-63" transform="translate(507.076172 0)"/>
      <use xlink:href="#DejaVuSans-74" transform="translate(562.056641 0)"/>
      <use xlink:href="#DejaVuSans-65" transform="translate(601.265625 0)"/>
      <use xlink:href="#DejaVuSans-64" transform="translate(662.789062 0)"/>
      <use xlink:href="#DejaVuSans-20" transform="translate(726.265625 0)"/>
      <use xlink:href="#DejaVuSans-73" transform="translate(758.052734 0)"/>
      <use xlink:href="#DejaVuSans-6c" transform="translate(810.152344 0)"/>
      <use xlink:href="#DejaVuSans-6f" transform="translate(837.935547 0)"/>
      <use xlink:href="#DejaVuSans-77" transform="translate(899.117188 0)"/>
      <use xlink:href="#DejaVuSans-28" transform="translate(980.904297 0)"/>
      <use xlink:href="#DejaVuSans-74" transform="translate(1019.917969 0)"/>
      <use xlink:href="#DejaVuSans-29" transform="translate(1059.126953 0)"/>
     </g>
    </g>
    <g id="line2d_24">
     <path d="M 47.482813 240.978438 
L 57.482813 240.978438 
L 67.482812 240.978438 
" style="fill: none; stroke: #d62728; stroke-opacity: 0.35; stroke-width: 1.5; stroke-linecap: square"/>
    </g>
    <g id="text_21">
     <!-- Fast(t) (for reference) -->
     <g transform="translate(75.482812 244.478438) scale(0.1 -0.1)">
      <defs>
       <path id="DejaVuSans-46" d="M 628 4666 
L 3309 4666 
L 3309 4134 
L 1259 4134 
L 1259 2759 
L 3109 2759 
L 3109 2228 
L 1259 2228 
L 1259 0 
L 628 0 
L 628 4666 
z
" transform="scale(0.015625)"/>
      </defs>
      <use xlink:href="#DejaVuSans-46"/>
      <use xlink:href="#DejaVuSans-61" transform="translate(48.394531 0)"/>
      <use xlink:href="#DejaVuSans-73" transform="translate(109.673828 0)"/>
      <use xlink:href="#DejaVuSans-74" transform="translate(161.773438 0)"/>
      <use xlink:href="#DejaVuSans-28" transform="translate(200.982422 0)"/>
      <use xlink:href="#DejaVuSans-74" transform="translate(239.996094 0)"/>
      <use xlink:href="#DejaVuSans-29" transform="translate(279.205078 0)"/>
      <use xlink:href="#DejaVuSans-20" transform="translate(318.21875 0)"/>
      <use xlink:href="#DejaVuSans-28" transform="translate(350.005859 0)"/>
      <use xlink:href="#DejaVuSans-66" transform="translate(389.019531 0)"/>
      <use xlink:href="#DejaVuSans-6f" transform="translate(424.224609 0)"/>
      <use xlink:href="#DejaVuSans-72" transform="translate(485.40625 0)"/>
      <use xlink:href="#DejaVuSans-20" transform="translate(526.519531 0)"/>
      <use xlink:href="#DejaVuSans-72" transform="translate(558.306641 0)"/>
      <use xlink:href="#DejaVuSans-65" transform="translate(597.169922 0)"/>
      <use xlink:href="#DejaVuSans-66" transform="translate(658.693359 0)"/>
      <use xlink:href="#DejaVuSans-65" transform="translate(693.898438 0)"/>
      <use xlink:href="#DejaVuSans-72" transform="translate(755.421875 0)"/>
      <use xlink:href="#DejaVuSans-65" transform="translate(794.285156 0)"/>
      <use xlink:href="#DejaVuSans-6e" transform="translate(855.808594 0)"/>
      <use xlink:href="#DejaVuSans-63" transform="translate(919.1875 0)"/>
      <use xlink:href="#DejaVuSans-65" transform="translate(974.167969 0)"/>
      <use xlink:href="#DejaVuSans-29" transform="translate(1035.691406 0)"/>
     </g>
    </g>
   </g>
  </g>
 </g>
 <defs>
  <clipPath id="p3a1cd2745d">
   <rect x="38.482813" y="22.318125" width="811.19" height="233.24"/>
  </clipPath>
 </defs>
</svg>
