<?xml version="1.0" encoding="utf-8" standalone="no"?>
<!DOCTYPE svg PUBLIC "-//W3C//DTD SVG 1.1//EN"
  "http://www.w3.org/Graphics/SVG/1.1/DTD/svg11.dtd">
<svg xmlns:xlink="http://www.w3.org/1999/xlink" width="349.2pt" height="251.278125pt" viewBox="0 0 349.2 251.278125" xmlns="http://www.w3.org/2000/svg" version="1.1">
 <metadata>
  <rdf:RDF xmlns:dc="http://purl.org/dc/elements/1.1/" xmlns:cc="http://creativecommons.org/ns#" xmlns:rdf="http://www.w3.org/1999/02/22-rdf-syntax-ns#">
   <cc:Work>
    <dc:type rdf:resource="http://purl.org/dc/dcmitype/StillImage"/>
    <dc:date>2026-03-10T00:28:46.277809</dc:date>
    <dc:format>image/svg+xml</dc:format>
    <dc:creator>
     <cc:Agent>
      <dc:title>Matplotlib v3.10.8, https://matplotlib.org/</dc:title>
     </cc:Agent>
    </dc:creator>
   </cc:Work>
  </rdf:RDF>
 </metadata>
 <defs>
  <style type="text/css">*{stroke-linejoin: round; stroke-linecap: butt}</style>
 </defs>
 <g id="figure_1">
  <g id="patch_1">
   <path d="M 0 251.278125 
L 349.2 251.278125 
L 349.2 0 
L 0 0 
z
" style="fill: #ffffff"/>
  </g>
  <g id="axes_1">
   <g id="patch_2">
    <path d="M 7.2 244.078125 
L 159.381818 244.078125 
L 159.381818 22.318125 
L 7.2 22.318125 
z
" style="fill: #ffffff"/>
   </g>
   <g id="matplotlib.axis_1"/>
   <g id="matplotlib.axis_2"/>
   <g id="line2d_1">
    <path d="M 14.117355 122.667019 
L 14.671021 102.734561 
L 14.947853 99.196086 
L 15.017061 99.177962 
L 15.155478 100.138786 
L 15.43231 105.382253 
L 16.1936 123.495129 
L 16.332016 124.219906 
L 16.401225 124.084258 
L 16.539641 122.788809 
L 16.816474 116.373376 
L 17.993012 80.974906 
L 18.06222 80.989356 
L 18.200637 82.0327 
L 18.477469 87.581225 
L 19.307967 108.861629 
L 19.446384 109.55282 
L 19.515592 109.391303 
L 19.654008 108.045663 
L 19.930841 101.642568 
L 20.968963 70.493411 
L 21.038171 70.160525 
L 21.107379 70.176528 
L 21.245796 71.233007 
L 21.45342 75.121522 
L 22.007085 92.292297 
L 22.353126 100.226254 
L 22.560751 101.538704 
L 22.699167 100.711227 
L 22.906791 97.029771 
L 23.32204 83.574983 
L 23.875706 66.696099 
L 24.08333 64.495899 
L 24.152538 64.445852 
L 24.290955 65.375597 
L 24.498579 69.128617 
L 24.983036 84.354473 
L 25.398285 95.313533 
L 25.60591 97.193921 
L 25.675118 97.143635 
L 25.813534 96.013587 
L 26.021159 91.939331 
L 26.505616 75.714831 
L 26.990073 62.382708 
L 27.197697 60.827252 
L 27.266905 60.99595 
L 27.405322 62.345252 
L 27.682154 68.54207 
L 28.58186 93.279476 
L 28.720277 93.818492 
L 28.858693 92.97911 
L 29.066317 89.283825 
L 29.481566 75.903978 
L 30.035232 59.438606 
L 30.242856 57.451443 
L 30.312064 57.472571 
L 30.450481 58.538798 
L 30.658105 62.467369 
L 31.142562 77.869722 
L 31.557811 88.696944 
L 31.765436 90.452406 
L 31.834644 90.358336 
L 31.97306 89.14422 
L 32.249893 83.049112 
L 33.288015 54.557333 
L 33.357223 54.461113 
L 33.49564 55.304073 
L 33.703264 58.968187 
L 34.118513 71.965955 
L 34.60297 85.994698 
L 34.810595 88.331153 
L 34.879803 88.441123 
L 35.018219 87.63331 
L 35.225844 84.020971 
L 35.641092 71.02032 
L 36.12555 56.738947 
L 36.333174 54.260721 
L 36.402382 54.108284 
L 36.47159 54.304842 
L 36.610007 55.726063 
L 36.886839 62.17961 
L 37.855753 90.058029 
L 37.99417 90.466963 
L 38.132586 89.518435 
L 38.340211 85.784472 
L 38.824668 70.88843 
L 39.239917 60.548859 
L 39.447541 59.07096 
L 39.516749 59.265006 
L 39.655166 60.692734 
L 39.931998 67.280644 
L 40.970121 98.583817 
L 41.108537 98.908826 
L 41.246953 97.893034 
L 41.523786 92.434217 
L 42.354284 71.406101 
L 42.4927 70.772163 
L 42.561908 70.970011 
L 42.700325 72.409165 
L 42.977157 79.111733 
L 44.084488 113.77687 
L 44.153696 114.042266 
L 44.222904 113.966237 
L 44.36132 112.834449 
L 44.638153 107.315715 
L 45.399443 88.873432 
L 45.537859 88.154251 
L 45.607067 88.300306 
L 45.745483 89.631896 
L 46.022316 96.181413 
L 46.64519 120.573262 
L 47.060438 131.773025 
L 47.268063 133.137481 
L 47.406479 132.35126 
L 47.614104 128.955924 
L 48.583018 107.601376 
L 48.652226 107.59218 
L 48.790642 108.603489 
L 48.998267 112.616842 
L 49.413516 127.256722 
L 50.036389 148.68388 
L 50.244014 151.299877 
L 50.313222 151.480162 
L 50.38243 151.31496 
L 50.520846 149.996788 
L 50.797679 144.098836 
L 51.558969 124.757589 
L 51.697385 123.879519 
L 51.766593 123.941163 
L 51.90501 125.088752 
L 52.112634 129.234521 
L 52.527883 143.559753 
L 53.081548 161.463597 
L 53.289173 163.99969 
L 53.358381 164.154857 
L 53.427589 163.960505 
L 53.566005 162.560691 
L 53.842838 156.336326 
L 54.673336 133.530447 
L 54.811752 132.635331 
L 54.88096 132.694363 
L 55.019377 133.828874 
L 55.227001 137.878077 
L 55.711458 153.901861 
L 56.126707 165.729 
L 56.334332 168.06237 
L 56.40354 168.15738 
L 56.541956 167.300517 
L 56.749581 163.571123 
L 57.16483 150.202738 
L 57.718495 134.027037 
L 57.926119 132.179165 
L 57.995327 132.241211 
L 58.133744 133.372931 
L 58.410576 139.158211 
L 59.310282 163.256038 
L 59.448699 163.761204 
L 59.587115 162.879012 
L 59.79474 159.077434 
L 60.209988 145.219081 
L 60.763654 127.456765 
L 60.971278 124.849279 
L 61.040486 124.65817 
L 61.109695 124.811231 
L 61.248111 126.114133 
L 61.524943 132.098392 
L 62.355441 153.933866 
L 62.493858 154.628375 
L 62.563066 154.463208 
L 62.701482 153.103228 
L 62.978315 146.662471 
L 64.016437 115.635896 
L 64.085645 115.323911 
L 64.154853 115.360279 
L 64.29327 116.453858 
L 64.570102 122.18879 
L 65.469808 146.059687 
L 65.608225 146.546491 
L 65.746641 145.669519 
L 65.954266 141.938277 
L 66.369515 128.528855 
L 66.92318 112.088148 
L 67.130804 110.149002 
L 67.200012 110.194159 
L 67.338429 111.32335 
L 67.546053 115.390407 
L 68.03051 131.367465 
L 68.445759 142.982766 
L 68.653384 145.219132 
L 68.722592 145.29549 
L 68.861008 144.434597 
L 69.068633 140.813082 
L 69.55309 125.939309 
L 69.968339 115.297266 
L 70.175963 113.605364 
L 70.245171 113.72758 
L 70.383588 115.019975 
L 70.66042 121.410743 
L 71.767751 153.930253 
L 71.836959 154.037271 
L 71.975375 153.24974 
L 72.183 149.824045 
L 72.736665 134.249079 
L 73.082706 127.568617 
L 73.221122 126.907326 
L 73.29033 127.089686 
L 73.428747 128.50177 
L 73.705579 135.206497 
L 74.882118 171.813523 
L 74.951326 171.888358 
L 75.089742 171.049648 
L 75.297367 167.634316 
L 76.266281 147.514586 
L 76.335489 147.661908 
L 76.473906 148.99532 
L 76.750738 155.587008 
L 77.304403 177.795567 
L 77.719652 191.279082 
L 77.996485 194.374546 
L 78.065693 194.290144 
L 78.204109 193.150097 
L 78.480942 187.706539 
L 79.242232 170.505929 
L 79.380648 170.129453 
L 79.519064 171.109265 
L 79.726689 175.087722 
L 80.07273 186.985049 
L 80.764811 212.038391 
L 81.041644 215.328209 
L 81.110852 215.285088 
L 81.249268 214.198956 
L 81.526101 208.679686 
L 82.356599 188.88545 
L 82.425807 188.56995 
L 82.495015 188.589497 
L 82.633432 189.651382 
L 82.841056 193.687433 
L 83.256305 207.983578 
L 83.80997 226.380451 
L 84.086803 229.460843 
L 84.156011 229.364452 
L 84.294427 228.150782 
L 84.57126 222.221602 
L 85.470966 198.664768 
L 85.609382 198.315807 
L 85.747799 199.323819 
L 85.955423 203.209844 
L 86.370672 216.648866 
L 86.855129 231.254953 
L 87.062754 233.821348 
L 87.131962 233.998125 
L 87.20117 233.823846 
L 87.339586 232.442132 
L 87.616419 226.054807 
L 88.585333 198.395955 
L 88.723749 198.0158 
L 88.862166 198.989266 
L 89.06979 202.750566 
L 89.554247 217.648852 
L 89.969496 227.925845 
L 90.177121 229.361502 
L 90.315537 228.596971 
L 90.523162 224.943572 
L 90.869202 213.798497 
L 91.561284 191.56805 
L 91.768908 189.629473 
L 91.838117 189.666743 
L 91.976533 190.742465 
L 92.253366 196.327528 
L 93.083863 217.745481 
L 93.22228 218.451975 
L 93.291488 218.292628 
L 93.429904 216.936131 
L 93.706737 210.427934 
L 94.814067 177.046874 
L 94.883276 176.884854 
L 94.952484 177.065809 
L 95.0909 178.411148 
L 95.367733 184.365756 
L 96.129022 204.015914 
L 96.267439 204.958051 
L 96.336647 204.924825 
L 96.475063 203.822559 
L 96.682688 199.703329 
L 97.097937 185.21335 
L 97.651602 166.559748 
L 97.928434 163.312136 
L 97.997643 163.356191 
L 98.136059 164.447704 
L 98.412892 170.045182 
L 99.243389 191.0706 
L 99.381806 191.665506 
L 99.520222 190.891183 
L 99.727847 187.225965 
L 100.073887 175.960966 
L 100.765969 152.827459 
L 100.973593 150.513798 
L 101.042802 150.42904 
L 101.181218 151.275785 
L 101.388842 154.82728 
L 101.942508 170.952443 
L 102.288548 178.125031 
L 102.426965 179.011292 
L 102.496173 178.946871 
L 102.634589 177.780805 
L 102.842214 173.577437 
L 103.257463 159.041441 
L 103.811128 140.659178 
L 104.087961 137.623005 
L 104.157169 137.71743 
L 104.295585 138.899042 
L 104.572418 144.606744 
L 105.402916 165.148677 
L 105.541332 165.5646 
L 105.679748 164.600647 
L 105.887373 160.649353 
L 106.302622 146.200639 
L 106.925495 125.350772 
L 107.133119 122.944193 
L 107.202328 122.825412 
L 107.340744 123.593172 
L 107.548368 126.984067 
L 108.586491 149.231363 
L 108.724907 148.390409 
L 108.932532 144.586235 
L 109.278572 132.880192 
L 109.970654 107.800554 
L 110.247487 104.343754 
L 110.316695 104.331457 
L 110.455111 105.290639 
L 110.731944 110.492589 
L 111.493233 128.343905 
L 111.63165 128.989161 
L 111.700858 128.807088 
L 111.839274 127.402578 
L 112.116107 120.688442 
L 112.73898 95.72119 
L 113.154229 83.96534 
L 113.361854 82.295852 
L 113.431062 82.423661 
L 113.569478 83.639235 
L 113.846311 89.164848 
L 114.538392 105.358083 
L 114.676809 106.231054 
L 114.746017 106.174295 
L 114.884433 105.029077 
L 115.092058 100.801863 
L 115.507307 85.642732 
L 116.13018 63.141837 
L 116.407013 59.789576 
L 116.476221 59.813715 
L 116.614637 60.851047 
L 116.89147 66.205652 
L 117.652759 84.278119 
L 117.791176 84.952781 
L 117.860384 84.789917 
L 117.9988 83.438299 
L 118.275633 76.91775 
L 119.452172 41.541726 
L 119.52138 41.577225 
L 119.659796 42.662995 
L 119.936629 48.28814 
L 120.767127 69.667035 
L 120.905543 70.370343 
L 120.974751 70.217543 
L 121.113167 68.897283 
L 121.39 62.59077 
L 122.428122 32.61038 
L 122.49733 32.398125 
L 122.566539 32.538376 
L 122.704955 33.852581 
L 122.981788 40.082633 
L 123.950702 66.666608 
L 124.01991 66.933937 
L 124.089118 66.861492 
L 124.227534 65.715327 
L 124.504367 59.91382 
L 125.404073 35.745277 
L 125.542489 35.241719 
L 125.680906 36.139105 
L 125.88853 39.998724 
L 126.303779 54.145709 
L 126.857444 72.706648 
L 127.134277 76.05525 
L 127.203485 76.050644 
L 127.341902 75.054221 
L 127.618734 69.70839 
L 128.449232 49.879549 
L 128.587648 49.544672 
L 128.726065 50.596113 
L 128.933689 54.709048 
L 129.348938 69.676221 
L 129.971812 91.890343 
L 130.248644 95.157245 
L 130.317852 95.122608 
L 130.456269 94.081935 
L 130.733101 88.807325 
L 131.494391 71.661488 
L 131.632807 71.253042 
L 131.771224 72.206714 
L 131.978848 76.177924 
L 132.324889 88.219305 
L 133.086179 115.831415 
L 133.293803 118.280959 
L 133.363011 118.406318 
L 133.501428 117.656446 
L 133.709052 114.341683 
L 134.677966 94.127447 
L 134.747174 94.234314 
L 134.885591 95.47547 
L 135.093215 99.80968 
L 135.508464 114.90403 
L 136.131338 136.399974 
L 136.338962 138.925318 
L 136.40817 139.071846 
L 136.546587 138.341015 
L 136.754211 134.957237 
L 137.238668 121.295921 
L 137.653917 112.552723 
L 137.792333 111.808355 
L 137.861542 111.938139 
L 137.999958 113.218553 
L 138.27679 119.529962 
L 139.384121 151.983375 
L 139.453329 152.068566 
L 139.591745 151.20061 
L 139.79937 147.53493 
L 140.283827 132.595945 
L 140.699076 122.007871 
L 140.9067 120.317614 
L 140.975909 120.425224 
L 141.114325 121.653974 
L 141.391158 127.728065 
L 142.360072 155.198705 
L 142.498488 155.599512 
L 142.636904 154.608261 
L 142.844529 150.704601 
L 143.259778 137.179834 
L 143.744235 122.480237 
L 143.951859 119.842422 
L 144.021068 119.630344 
L 144.090276 119.761555 
L 144.228692 121.028984 
L 144.505525 127.044147 
L 145.405231 151.158922 
L 145.543647 151.596526 
L 145.682063 150.650131 
L 145.889688 146.779649 
L 146.304937 132.978642 
L 146.858602 115.799002 
L 147.066227 113.515312 
L 147.135435 113.436612 
L 147.273851 114.303823 
L 147.481475 117.940526 
L 147.965933 132.728649 
L 148.381181 143.121592 
L 148.588806 144.68428 
L 148.658014 144.527991 
L 148.79643 143.190851 
L 149.073263 136.848096 
L 150.111385 107.307743 
L 150.180594 107.140227 
L 150.249802 107.321113 
L 150.388218 108.698918 
L 150.665051 114.951321 
L 151.564757 139.677867 
L 151.703173 140.212064 
L 151.841589 139.381635 
L 152.049214 135.739087 
L 152.464463 122.667019 
L 152.464463 122.667019 
" clip-path="url(#p5262a45570)" style="fill: none; stroke: #1f77b4; stroke-width: 2; stroke-linecap: square"/>
   </g>
   <g id="patch_3">
    <path d="M 7.2 244.078125 
L 7.2 22.318125 
" style="fill: none; stroke: #000000; stroke-width: 0.8; stroke-linejoin: miter; stroke-linecap: square"/>
   </g>
   <g id="patch_4">
    <path d="M 159.381818 244.078125 
L 159.381818 22.318125 
" style="fill: none; stroke: #000000; stroke-width: 0.8; stroke-linejoin: miter; stroke-linecap: square"/>
   </g>
   <g id="patch_5">
    <path d="M 7.2 244.078125 
L 159.381818 244.078125 
" style="fill: none; stroke: #000000; stroke-width: 0.8; stroke-linejoin: miter; stroke-linecap: square"/>
   </g>
   <g id="patch_6">
    <path d="M 7.2 22.318125 
L 159.381818 22.318125 
" style="fill: none; stroke: #000000; stroke-width: 0.8; stroke-linejoin: miter; stroke-linecap: square"/>
   </g>
   <g id="text_1">
    <!-- Combined Curve -->
    <g transform="translate(33.197472 16.318125) scale(0.12 -0.12)">
     <defs>
      <path id="DejaVuSans-43" d="M 4122 4306 
L 4122 3641 
Q 3803 3938 3442 4084 
Q 3081 4231 2675 4231 
Q 1875 4231 1450 3742 
Q 1025 3253 1025 2328 
Q 1025 1406 1450 917 
Q 1875 428 2675 428 
Q 3081 428 3442 575 
Q 3803 722 4122 1019 
L 4122 359 
Q 3791 134 3420 21 
Q 3050 -91 2638 -91 
Q 1578 -91 968 557 
Q 359 1206 359 2328 
Q 359 3453 968 4101 
Q 1578 4750 2638 4750 
Q 3056 4750 3426 4639 
Q 3797 4528 4122 4306 
z
" transform="scale(0.015625)"/>
      <path id="DejaVuSans-6f" d="M 1959 3097 
Q 1497 3097 1228 2736 
Q 959 2375 959 1747 
Q 959 1119 1226 758 
Q 1494 397 1959 397 
Q 2419 397 2687 759 
Q 2956 1122 2956 1747 
Q 2956 2369 2687 2733 
Q 2419 3097 1959 3097 
z
M 1959 3584 
Q 2709 3584 3137 3096 
Q 3566 2609 3566 1747 
Q 3566 888 3137 398 
Q 2709 -91 1959 -91 
Q 1206 -91 779 398 
Q 353 888 353 1747 
Q 353 2609 779 3096 
Q 1206 3584 1959 3584 
z
" transform="scale(0.015625)"/>
      <path id="DejaVuSans-6d" d="M 3328 2828 
Q 3544 3216 3844 3400 
Q 4144 3584 4550 3584 
Q 5097 3584 5394 3201 
Q 5691 2819 5691 2113 
L 5691 0 
L 5113 0 
L 5113 2094 
Q 5113 2597 4934 2840 
Q 4756 3084 4391 3084 
Q 3944 3084 3684 2787 
Q 3425 2491 3425 1978 
L 3425 0 
L 2847 0 
L 2847 2094 
Q 2847 2600 2669 2842 
Q 2491 3084 2119 3084 
Q 1678 3084 1418 2786 
Q 1159 2488 1159 1978 
L 1159 0 
L 581 0 
L 581 3500 
L 1159 3500 
L 1159 2956 
Q 1356 3278 1631 3431 
Q 1906 3584 2284 3584 
Q 2666 3584 2933 3390 
Q 3200 3197 3328 2828 
z
" transform="scale(0.015625)"/>
      <path id="DejaVuSans-62" d="M 3116 1747 
Q 3116 2381 2855 2742 
Q 2594 3103 2138 3103 
Q 1681 3103 1420 2742 
Q 1159 2381 1159 1747 
Q 1159 1113 1420 752 
Q 1681 391 2138 391 
Q 2594 391 2855 752 
Q 3116 1113 3116 1747 
z
M 1159 2969 
Q 1341 3281 1617 3432 
Q 1894 3584 2278 3584 
Q 2916 3584 3314 3078 
Q 3713 2572 3713 1747 
Q 3713 922 3314 415 
Q 2916 -91 2278 -91 
Q 1894 -91 1617 61 
Q 1341 213 1159 525 
L 1159 0 
L 581 0 
L 581 4863 
L 1159 4863 
L 1159 2969 
z
" transform="scale(0.015625)"/>
      <path id="DejaVuSans-69" d="M 603 3500 
L 1178 3500 
L 1178 0 
L 603 0 
L 603 3500 
z
M 603 4863 
L 1178 4863 
L 1178 4134 
L 603 4134 
L 603 4863 
z
" transform="scale(0.015625)"/>
      <path id="DejaVuSans-6e" d="M 3513 2113 
L 3513 0 
L 2938 0 
L 2938 2094 
Q 2938 2591 2744 2837 
Q 2550 3084 2163 3084 
Q 1697 3084 1428 2787 
Q 1159 2491 1159 1978 
L 1159 0 
L 581 0 
L 581 3500 
L 1159 3500 
L 1159 2956 
Q 1366 3272 1645 3428 
Q 1925 3584 2291 3584 
Q 2894 3584 3203 3211 
Q 3513 2838 3513 2113 
z
" transform="scale(0.015625)"/>
      <path id="DejaVuSans-65" d="M 3597 1894 
L 3597 1613 
L 953 1613 
Q 991 1019 1311 708 
Q 1631 397 2203 397 
Q 2534 397 2845 478 
Q 3156 559 3463 722 
L 3463 178 
Q 3153 47 2828 -22 
Q 2503 -91 2169 -91 
Q 1331 -91 842 396 
Q 353 884 353 1716 
Q 353 2575 817 3079 
Q 1281 3584 2069 3584 
Q 2775 3584 3186 3129 
Q 3597 2675 3597 1894 
z
M 3022 2063 
Q 3016 2534 2758 2815 
Q 2500 3097 2075 3097 
Q 1594 3097 1305 2825 
Q 1016 2553 972 2059 
L 3022 2063 
z
" transform="scale(0.015625)"/>
      <path id="DejaVuSans-64" d="M 2906 2969 
L 2906 4863 
L 3481 4863 
L 3481 0 
L 2906 0 
L 2906 525 
Q 2725 213 2448 61 
Q 2172 -91 1784 -91 
Q 1150 -91 751 415 
Q 353 922 353 1747 
Q 353 2572 751 3078 
Q 1150 3584 1784 3584 
Q 2172 3584 2448 3432 
Q 2725 3281 2906 2969 
z
M 947 1747 
Q 947 1113 1208 752 
Q 1469 391 1925 391 
Q 2381 391 2643 752 
Q 2906 1113 2906 1747 
Q 2906 2381 2643 2742 
Q 2381 3103 1925 3103 
Q 1469 3103 1208 2742 
Q 947 2381 947 1747 
z
" transform="scale(0.015625)"/>
      <path id="DejaVuSans-20" transform="scale(0.015625)"/>
      <path id="DejaVuSans-75" d="M 544 1381 
L 544 3500 
L 1119 3500 
L 1119 1403 
Q 1119 906 1312 657 
Q 1506 409 1894 409 
Q 2359 409 2629 706 
Q 2900 1003 2900 1516 
L 2900 3500 
L 3475 3500 
L 3475 0 
L 2900 0 
L 2900 538 
Q 2691 219 2414 64 
Q 2138 -91 1772 -91 
Q 1169 -91 856 284 
Q 544 659 544 1381 
z
M 1991 3584 
L 1991 3584 
z
" transform="scale(0.015625)"/>
      <path id="DejaVuSans-72" d="M 2631 2963 
Q 2534 3019 2420 3045 
Q 2306 3072 2169 3072 
Q 1681 3072 1420 2755 
Q 1159 2438 1159 1844 
L 1159 0 
L 581 0 
L 581 3500 
L 1159 3500 
L 1159 2956 
Q 1341 3275 1631 3429 
Q 1922 3584 2338 3584 
Q 2397 3584 2469 3576 
Q 2541 3569 2628 3553 
L 2631 2963 
z
" transform="scale(0.015625)"/>
      <path id="DejaVuSans-76" d="M 191 3500 
L 800 3500 
L 1894 563 
L 2988 3500 
L 3597 3500 
L 2284 0 
L 1503 0 
L 191 3500 
z
" transform="scale(0.015625)"/>
     </defs>
     <use xlink:href="#DejaVuSans-43"/>
     <use xlink:href="#DejaVuSans-6f" transform="translate(69.824219 0)"/>
     <use xlink:href="#DejaVuSans-6d" transform="translate(131.005859 0)"/>
     <use xlink:href="#DejaVuSans-62" transform="translate(228.417969 0)"/>
     <use xlink:href="#DejaVuSans-69" transform="translate(291.894531 0)"/>
     <use xlink:href="#DejaVuSans-6e" transform="translate(319.677734 0)"/>
     <use xlink:href="#DejaVuSans-65" transform="translate(383.056641 0)"/>
     <use xlink:href="#DejaVuSans-64" transform="translate(444.580078 0)"/>
     <use xlink:href="#DejaVuSans-20" transform="translate(508.056641 0)"/>
     <use xlink:href="#DejaVuSans-43" transform="translate(539.84375 0)"/>
     <use xlink:href="#DejaVuSans-75" transform="translate(609.667969 0)"/>
     <use xlink:href="#DejaVuSans-72" transform="translate(673.046875 0)"/>
     <use xlink:href="#DejaVuSans-76" transform="translate(714.160156 0)"/>
     <use xlink:href="#DejaVuSans-65" transform="translate(773.339844 0)"/>
    </g>
   </g>
  </g>
  <g id="axes_2">
   <g id="patch_7">
    <path d="M 189.818182 244.078125 
L 342 244.078125 
L 342 22.318125 
L 189.818182 22.318125 
z
" style="fill: #ffffff"/>
   </g>
   <g id="matplotlib.axis_3"/>
   <g id="matplotlib.axis_4"/>
   <g id="line2d_2">
    <path d="M 196.735537 120.787708 
L 198.258117 107.4449 
L 199.573072 97.787145 
L 200.818819 90.260732 
L 201.926149 84.830638 
L 203.03348 80.469417 
L 204.14081 77.024398 
L 205.248141 74.318734 
L 206.424679 72.046635 
L 207.808842 69.885947 
L 210.092712 66.817808 
L 215.352532 60.069429 
L 216.390654 59.182986 
L 217.221152 58.763921 
L 217.913233 58.667439 
L 218.536107 58.813001 
L 219.15898 59.208041 
L 219.781854 59.878613 
L 220.473935 60.974827 
L 221.235225 62.637591 
L 222.065723 65.026044 
L 222.965429 68.309239 
L 224.003551 72.993211 
L 225.18009 79.403366 
L 226.564253 88.254751 
L 228.432873 101.823209 
L 232.654571 133.047293 
L 234.038734 141.375693 
L 235.146065 146.769584 
L 236.045771 150.184341 
L 236.876269 152.506001 
L 237.56835 153.812306 
L 238.122016 154.444298 
L 238.606473 154.699966 
L 239.021722 154.703215 
L 239.506179 154.4632 
L 240.059844 153.882006 
L 240.682717 152.863315 
L 241.444007 151.147444 
L 242.412921 148.338354 
L 243.727876 143.741075 
L 247.119076 131.525487 
L 248.08799 128.97273 
L 248.84928 127.525093 
L 249.472153 126.771736 
L 249.956611 126.481639 
L 250.371859 126.452194 
L 250.787108 126.633779 
L 251.271566 127.121073 
L 251.825231 128.050399 
L 252.448104 129.578255 
L 253.140186 131.87599 
L 253.970684 135.451633 
L 254.939598 140.695649 
L 256.046928 147.964841 
L 257.431092 158.620167 
L 259.438128 176.030662 
L 262.76012 204.845022 
L 264.213491 215.472235 
L 265.39003 222.554275 
L 266.358944 227.185325 
L 267.189442 230.221918 
L 267.950732 232.223717 
L 268.573605 233.301919 
L 269.12727 233.841946 
L 269.611727 233.998125 
L 270.026976 233.903264 
L 270.511433 233.534575 
L 271.065099 232.787563 
L 271.687972 231.556492 
L 272.449262 229.536673 
L 273.348968 226.505147 
L 274.525507 221.675358 
L 276.048086 214.379564 
L 278.747204 200.106837 
L 282.415237 181.029908 
L 287.951889 152.818211 
L 289.682093 142.432483 
L 291.343089 131.104798 
L 293.142501 117.223274 
L 295.357162 98.225641 
L 299.9249 58.485255 
L 301.378272 48.100492 
L 302.485602 41.655743 
L 303.385308 37.553796 
L 304.146598 34.970391 
L 304.769472 33.50326 
L 305.323137 32.70753 
L 305.738386 32.43175 
L 306.084427 32.414478 
L 306.430467 32.591255 
L 306.845716 33.059421 
L 307.330173 33.956489 
L 307.953047 35.656446 
L 308.645128 38.244752 
L 309.475626 42.270798 
L 310.44454 48.125047 
L 311.621079 56.664225 
L 313.143659 69.446236 
L 318.611103 117.053007 
L 319.85685 125.278379 
L 320.894972 130.797501 
L 321.794678 134.512593 
L 322.625176 137.036681 
L 323.317258 138.48094 
L 323.940131 139.283892 
L 324.424588 139.597003 
L 324.909045 139.652003 
L 325.393503 139.464709 
L 325.947168 138.977328 
L 326.570041 138.117075 
L 327.400539 136.537007 
L 328.50787 133.860905 
L 332.660359 123.19872 
L 333.490857 121.867741 
L 334.182939 121.141551 
L 334.736604 120.840939 
L 335.082645 120.787708 
L 335.082645 120.787708 
" clip-path="url(#pe7e695c2ba)" style="fill: none; stroke: #40e6a4; stroke-width: 2; stroke-linecap: square"/>
   </g>
   <g id="patch_8">
    <path d="M 189.818182 244.078125 
L 189.818182 22.318125 
" style="fill: none; stroke: #000000; stroke-width: 0.8; stroke-linejoin: miter; stroke-linecap: square"/>
   </g>
   <g id="patch_9">
    <path d="M 342 244.078125 
L 342 22.318125 
" style="fill: none; stroke: #000000; stroke-width: 0.8; stroke-linejoin: miter; stroke-linecap: square"/>
   </g>
   <g id="patch_10">
    <path d="M 189.818182 244.078125 
L 342 244.078125 
" style="fill: none; stroke: #000000; stroke-width: 0.8; stroke-linejoin: miter; stroke-linecap: square"/>
   </g>
   <g id="patch_11">
    <path d="M 189.818182 22.318125 
L 342 22.318125 
" style="fill: none; stroke: #000000; stroke-width: 0.8; stroke-linejoin: miter; stroke-linecap: square"/>
   </g>
   <g id="text_2">
    <!-- Slow Component -->
    <g transform="translate(215.113466 16.318125) scale(0.12 -0.12)">
     <defs>
      <path id="DejaVuSans-53" d="M 3425 4513 
L 3425 3897 
Q 3066 4069 2747 4153 
Q 2428 4238 2131 4238 
Q 1616 4238 1336 4038 
Q 1056 3838 1056 3469 
Q 1056 3159 1242 3001 
Q 1428 2844 1947 2747 
L 2328 2669 
Q 3034 2534 3370 2195 
Q 3706 1856 3706 1288 
Q 3706 609 3251 259 
Q 2797 -91 1919 -91 
Q 1588 -91 1214 -16 
Q 841 59 441 206 
L 441 856 
Q 825 641 1194 531 
Q 1563 422 1919 422 
Q 2459 422 2753 634 
Q 3047 847 3047 1241 
Q 3047 1584 2836 1778 
Q 2625 1972 2144 2069 
L 1759 2144 
Q 1053 2284 737 2584 
Q 422 2884 422 3419 
Q 422 4038 858 4394 
Q 1294 4750 2059 4750 
Q 2388 4750 2728 4690 
Q 3069 4631 3425 4513 
z
" transform="scale(0.015625)"/>
      <path id="DejaVuSans-6c" d="M 603 4863 
L 1178 4863 
L 1178 0 
L 603 0 
L 603 4863 
z
" transform="scale(0.015625)"/>
      <path id="DejaVuSans-77" d="M 269 3500 
L 844 3500 
L 1563 769 
L 2278 3500 
L 2956 3500 
L 3675 769 
L 4391 3500 
L 4966 3500 
L 4050 0 
L 3372 0 
L 2619 2869 
L 1863 0 
L 1184 0 
L 269 3500 
z
" transform="scale(0.015625)"/>
      <path id="DejaVuSans-70" d="M 1159 525 
L 1159 -1331 
L 581 -1331 
L 581 3500 
L 1159 3500 
L 1159 2969 
Q 1341 3281 1617 3432 
Q 1894 3584 2278 3584 
Q 2916 3584 3314 3078 
Q 3713 2572 3713 1747 
Q 3713 922 3314 415 
Q 2916 -91 2278 -91 
Q 1894 -91 1617 61 
Q 1341 213 1159 525 
z
M 3116 1747 
Q 3116 2381 2855 2742 
Q 2594 3103 2138 3103 
Q 1681 3103 1420 2742 
Q 1159 2381 1159 1747 
Q 1159 1113 1420 752 
Q 1681 391 2138 391 
Q 2594 391 2855 752 
Q 3116 1113 3116 1747 
z
" transform="scale(0.015625)"/>
      <path id="DejaVuSans-74" d="M 1172 4494 
L 1172 3500 
L 2356 3500 
L 2356 3053 
L 1172 3053 
L 1172 1153 
Q 1172 725 1289 603 
Q 1406 481 1766 481 
L 2356 481 
L 2356 0 
L 1766 0 
Q 1100 0 847 248 
Q 594 497 594 1153 
L 594 3053 
L 172 3053 
L 172 3500 
L 594 3500 
L 594 4494 
L 1172 4494 
z
" transform="scale(0.015625)"/>
     </defs>
     <use xlink:href="#DejaVuSans-53"/>
     <use xlink:href="#DejaVuSans-6c" transform="translate(63.476562 0)"/>
     <use xlink:href="#DejaVuSans-6f" transform="translate(91.259766 0)"/>
     <use xlink:href="#DejaVuSans-77" transform="translate(152.441406 0)"/>
     <use xlink:href="#DejaVuSans-20" transform="translate(234.228516 0)"/>
     <use xlink:href="#DejaVuSans-43" transform="translate(266.015625 0)"/>
     <use xlink:href="#DejaVuSans-6f" transform="translate(335.839844 0)"/>
     <use xlink:href="#DejaVuSans-6d" transform="translate(397.021484 0)"/>
     <use xlink:href="#DejaVuSans-70" transform="translate(494.433594 0)"/>
     <use xlink:href="#DejaVuSans-6f" transform="translate(557.910156 0)"/>
     <use xlink:href="#DejaVuSans-6e" transform="translate(619.091797 0)"/>
     <use xlink:href="#DejaVuSans-65" transform="translate(682.470703 0)"/>
     <use xlink:href="#DejaVuSans-6e" transform="translate(743.994141 0)"/>
     <use xlink:href="#DejaVuSans-74" transform="translate(807.373047 0)"/>
    </g>
   </g>
  </g>
 </g>
 <defs>
  <clipPath id="p5262a45570">
   <rect x="7.2" y="22.318125" width="152.181818" height="221.76"/>
  </clipPath>
  <clipPath id="pe7e695c2ba">
   <rect x="189.818182" y="22.318125" width="152.181818" height="221.76"/>
  </clipPath>
 </defs>
</svg>
